SplineFontDB: 3.0
FontName: Jost-Medium
FullName: Jost* 500 Medium
FamilyName: Jost* Medium
Weight: Medium
Copyright: This typeface is licensed under the SIL open font license.
UComments: "2018-6-8: Created with FontForge (http://fontforge.org)"
Version: 003.300
ItalicAngle: 0
UnderlinePosition: -100
UnderlineWidth: 50
Ascent: 800
Descent: 200
InvalidEm: 0
LayerCount: 2
Layer: 0 0 "Back" 1
Layer: 1 0 "Fore" 0
XUID: [1021 69 1495626776 15290027]
FSType: 0
OS2Version: 0
OS2_WeightWidthSlopeOnly: 0
OS2_UseTypoMetrics: 0
CreationTime: 1528475722
ModificationTime: 1563287946
PfmFamily: 17
TTFWeight: 500
TTFWidth: 5
LineGap: 100
VLineGap: 0
OS2TypoAscent: 825
OS2TypoAOffset: 0
OS2TypoDescent: -225
OS2TypoDOffset: 0
OS2TypoLinegap: 100
OS2WinAscent: 900
OS2WinAOffset: 0
OS2WinDescent: 300
OS2WinDOffset: 0
HheadAscent: 1030
HheadAOffset: 0
HheadDescent: -350
HheadDOffset: 0
OS2CapHeight: 700
OS2XHeight: 460
OS2Vendor: 'PfEd'
Lookup: 1 0 0 "alt a" { "alt a"  } ['ss01' ('DFLT' <'dflt' > 'latn' <'dflt' > ) ]
Lookup: 1 0 0 "Tabular Numbers lookup" { "Tabular Numbers lookup"  } ['tnum' ('DFLT' <'dflt' > 'grek' <'dflt' > 'latn' <'dflt' > ) ]
Lookup: 258 0 0 "Lets get our kern on" { "kernin like nobodys business" [150,0,4] } ['kern' ('DFLT' <'dflt' > 'latn' <'dflt' > ) ]
MarkAttachClasses: 1
DEI: 91125
KernClass2: 16 14 "kernin like nobodys business"
 43 slash seven V W Wcircumflex uni040E uni0423
 175 quotedbl quotesingle asterisk grave dieresis ordfeminine macron degree acute ordmasculine circumflex breve dotaccent ring tilde quoteleft quoteright quotedblleft quotedblright
 25 nine question F P uni0420
 131 A L backslash Agrave Aacute Acircumflex Atilde Adieresis Aring Amacron Abreve Aogonek Lacute uni013B Lslash uni0410 uni0414 uni041C
 58 three eight B C germandbls uni0411 uni0412 uni0417 uni0421
 29 K X Z uni0416 uni041A uni0425

StartChar: H
Encoding: 72 72 0
Width: 699
VWidth: 0
Flags: HMW
LayerCount: 2
Fore
SplineSet
172 321 m 1
 209 430 l 1
 684 430 l 1
 646 321 l 1
 172 321 l 1
697 699 m 1
 816 700 l 1
 574 0 l 1
 460 0 l 1
 697 699 l 1
255 699 m 1
 374 700 l 1
 132 0 l 1
 18 0 l 1
 255 699 l 1
EndSplineSet
EndChar

StartChar: O
Encoding: 79 79 1
Width: 754
VWidth: 0
Flags: HMW
LayerCount: 2
Fore
SplineSet
221 350 m 0
 181 239 212 104 351 102 c 0
 493 100 619 224 665 350 c 0
 705 461 674 596 535 598 c 0
 393 600 267 476 221 350 c 0
98 350 m 0
 160 542 350 714 558 713 c 0
 760 712 844 527 788 350 c 0
 726 157 535 -16 326 -15 c 0
 123 -14 42 173 98 350 c 0
EndSplineSet
EndChar

StartChar: I
Encoding: 73 73 2
Width: 258
VWidth: 0
Flags: HMW
LayerCount: 2
Fore
SplineSet
255 700 m 1
 375 700 l 1
 133 0 l 1
 19 0 l 1
 255 700 l 1
EndSplineSet
EndChar

StartChar: C
Encoding: 67 67 3
Width: 649
VWidth: 0
Flags: HMW
LayerCount: 2
Fore
SplineSet
223 350 m 0
 183 238 219 108 355 105 c 0
 446 103 530 150 601 201 c 1
 558 61 l 1
 488 17 411 -14 327 -13 c 0
 126 -12 41 173 98 350 c 0
 160 544 350 712 559 713 c 0
 634 714 696 688 751 637 c 1
 707 497 l 1
 670 561 613 595 538 595 c 0
 398 594 269 477 223 350 c 0
EndSplineSet
EndChar

StartChar: E
Encoding: 69 69 4
Width: 537
VWidth: 0
Flags: HMW
LayerCount: 2
Fore
SplineSet
88 0 m 1
 123 104 l 1
 460 104 l 1
 424 0 l 1
 88 0 l 1
291 596 m 1
 326 700 l 1
 662 700 l 1
 627 596 l 1
 291 596 l 1
198 324 m 1
 233 426 l 1
 550 426 l 1
 515 324 l 1
 198 324 l 1
255 700 m 1
 371 700 l 1
 130 0 l 1
 18 0 l 1
 255 700 l 1
EndSplineSet
EndChar

StartChar: F
Encoding: 70 70 6
Width: 490
VWidth: 0
Flags: HMW
LayerCount: 2
Fore
SplineSet
290 593 m 1
 326 700 l 1
 625 700 l 1
 588 593 l 1
 290 593 l 1
195 316 m 1
 231 419 l 1
 520 419 l 1
 484 316 l 1
 195 316 l 1
255 700 m 1
 371 700 l 1
 130 0 l 1
 18 0 l 1
 255 700 l 1
EndSplineSet
EndChar

StartChar: G
Encoding: 71 71 7
Width: 743
VWidth: 0
Flags: HMW
LayerCount: 2
Fore
SplineSet
420 266 m 1
 457 366 l 1
 774 366 l 1
 710 173 555 -15 331 -15 c 0
 127 -15 40 172 98 350 c 0
 161 546 353 712 564 713 c 0
 677 714 760 656 804 554 c 1
 693 493 l 1
 669 564 617 602 541 601 c 0
 397 600 268 480 221 350 c 0
 180 236 211 98 353 97 c 0
 471 96 551 176 614 266 c 1
 420 266 l 1
EndSplineSet
EndChar

StartChar: T
Encoding: 84 84 8
Width: 474
VWidth: 0
Flags: HMW
LayerCount: 2
Fore
SplineSet
151 590 m 1
 190 700 l 1
 655 700 l 1
 617 590 l 1
 443 590 l 1
 241 0 l 1
 124 0 l 1
 327 590 l 1
 151 590 l 1
EndSplineSet
EndChar

StartChar: L
Encoding: 76 76 9
Width: 452
VWidth: 0
Flags: HMW
LayerCount: 2
Fore
SplineSet
256 700 m 1
 374 700 l 1
 170 107 l 1
 431 107 l 1
 394 0 l 1
 16 0 l 1
 256 700 l 1
EndSplineSet
EndChar

StartChar: D
Encoding: 68 68 10
Width: 659
VWidth: 0
Flags: HMW
LayerCount: 2
Fore
SplineSet
255 699 m 1
 376 700 l 1
 134 0 l 1
 18 0 l 1
 255 699 l 1
240 0 m 2
 85 0 l 1
 125 112 l 1
 261 112 l 2
 404 112 526 217 574 350 c 0
 618 470 575 588 437 588 c 2
 286 588 l 1
 326 700 l 1
 463 700 l 2
 661 700 751 532 692 350 c 0
 629 154 448 0 240 0 c 2
EndSplineSet
EndChar

StartChar: Q
Encoding: 81 81 11
Width: 771
VWidth: 0
Flags: HMW
LayerCount: 2
Fore
SplineSet
221 350 m 0
 180 237 214 99 355 97 c 0
 497 95 623 216 669 342 c 0
 710 455 678 596 536 598 c 0
 394 600 267 476 221 350 c 0
98 350 m 0
 160 543 352 714 560 713 c 0
 762 712 844 526 788 350 c 0
 726 157 536 -16 327 -15 c 0
 124 -14 42 173 98 350 c 0
400 300 m 1
 521 300 l 1
 714 -5 l 1
 591 -5 l 1
 400 300 l 1
EndSplineSet
EndChar

StartChar: A
Encoding: 65 65 12
Width: 648
VWidth: 0
Flags: HMW
LayerCount: 2
Fore
SplineSet
159 179 m 1
 213 278 l 1
 523 278 l 1
 510 179 l 1
 159 179 l 1
445 501 m 1
 255 244 l 1
 245 218 l 1
 79 0 l 1
 -58 0 l 1
 522 742 l 1
 592 0 l 1
 468 0 l 1
 453 212 l 1
 459 242 l 1
 445 501 l 1
EndSplineSet
EndChar

StartChar: R
Encoding: 82 82 13
Width: 559
VWidth: 0
Flags: HMW
LayerCount: 2
Fore
SplineSet
270 333 m 1
 388 333 l 1
 497 0 l 1
 368 0 l 1
 270 333 l 1
255 700 m 1
 374 700 l 1
 132 0 l 1
 18 0 l 1
 255 700 l 1
287 596 m 1
 323 700 l 1
 454 700 l 2
 579 700 664 611 627 482 c 0
 589 349 454 265 320 265 c 2
 173 265 l 1
 208 363 l 1
 335 363 l 2
 408 363 482 409 508 480 c 0
 532 546 495 596 428 596 c 2
 287 596 l 1
EndSplineSet
EndChar

StartChar: V
Encoding: 86 86 14
Width: 648
VWidth: 0
Flags: HMW
LayerCount: 2
Fore
SplineSet
352 211 m 1
 696 699 l 1
 834 699 l 1
 280 -42 l 1
 185 700 l 1
 311 700 l 1
 352 211 l 1
EndSplineSet
EndChar

StartChar: M
Encoding: 77 77 15
Width: 793
VWidth: 0
Flags: HMW
LayerCount: 2
Fore
SplineSet
291 424 m 1
 99 0 l 1
 -23 0 l 1
 321 736 l 1
 428 264 l 1
 869 744 l 1
 704 0 l 1
 585 0 l 1
 686 414 l 1
 367 63 l 1
 291 424 l 1
EndSplineSet
EndChar

StartChar: W
Encoding: 87 87 16
Width: 959
VWidth: 0
Flags: HMW
LayerCount: 2
Fore
SplineSet
702 225 m 1
 1001 699 l 1
 1140 699 l 1
 639 -41 l 1
 589 452 l 1
 231 -42 l 1
 189 700 l 1
 319 700 l 1
 323 227 l 1
 673 740 l 1
 702 225 l 1
EndSplineSet
EndChar

StartChar: N
Encoding: 78 78 17
Width: 735
VWidth: 0
Flags: HMW
LayerCount: 2
Fore
SplineSet
737 700 m 1
 851 700 l 1
 600 -32 l 1
 292 470 l 1
 130 0 l 1
 15 0 l 1
 267 732 l 1
 575 230 l 1
 737 700 l 1
EndSplineSet
EndChar

StartChar: a
Encoding: 97 97 18
Width: 478
VWidth: 0
Flags: HMW
LayerCount: 2
Fore
SplineSet
122 136 m 0
 111 97 139 76 174 74 c 0
 248 70 298 124 333 182 c 1
 331 128 l 1
 291 48 221 -9 128 -9 c 0
 46 -9 -10 50 14 132 c 0
 43 230 150 282 247 282 c 0
 301 282 344 264 381 226 c 1
 363 171 l 1
 330 198 296 214 252 213 c 0
 201 212 136 189 122 136 c 0
171 338 m 1
 152 419 l 1
 212 448 276 472 344 471 c 0
 430 470 513 421 484 327 c 1
 372 0 l 1
 267 0 l 1
 379 315 l 1
 392 354 365 378 321 381 c 0
 269 384 217 359 171 338 c 1
EndSplineSet
Substitution2: "alt a" a.alt
EndChar

StartChar: X
Encoding: 88 88 19
Width: 572
VWidth: 0
Flags: HMW
LayerCount: 2
Fore
SplineSet
593 699 m 1
 739 699 l 1
 429 358 l 1
 530 0 l 1
 397 0 l 1
 340 264 l 1
 113 0 l 1
 -33 0 l 1
 305 369 l 1
 214 700 l 1
 347 700 l 1
 395 468 l 1
 593 699 l 1
EndSplineSet
EndChar

StartChar: K
Encoding: 75 75 20
Width: 582
VWidth: 0
Flags: HMW
LayerCount: 2
Fore
SplineSet
255 700 m 1
 376 700 l 1
 134 0 l 1
 18 0 l 1
 255 700 l 1
611 699 m 1
 759 699 l 1
 361 367 l 1
 524 0 l 1
 393 0 l 1
 226 375 l 1
 611 699 l 1
EndSplineSet
EndChar

StartChar: Y
Encoding: 89 89 21
Width: 565
VWidth: 0
Flags: HMW
LayerCount: 2
Fore
SplineSet
616 699 m 1
 755 699 l 1
 387 289 l 1
 287 0 l 1
 169 0 l 1
 274 301 l 1
 189 700 l 1
 314 700 l 1
 363 405 l 1
 616 699 l 1
EndSplineSet
EndChar

StartChar: B
Encoding: 66 66 22
Width: 565
VWidth: 0
Flags: HMW
LayerCount: 2
Fore
SplineSet
226 362 m 1
 246 418 l 1
 348 419 l 2
 405 420 467 453 488 511 c 0
 507 565 474 600 422 601 c 2
 340 602 l 1
 166 98 l 1
 249 99 l 2
 322 100 399 142 425 215 c 0
 449 283 406 326 340 327 c 2
 214 328 l 1
 237 392 l 1
 357 393 l 2
 470 391 576 328 538 201 c 0
 498 69 367 0 238 0 c 2
 16 0 l 1
 256 700 l 1
 449 700 l 2
 553 700 647 639 610 523 c 0
 575 412 455 364 348 362 c 2
 226 362 l 1
EndSplineSet
EndChar

StartChar: Z
Encoding: 90 90 23
Width: 540
VWidth: 0
Flags: HMW
LayerCount: 2
Fore
SplineSet
186 590 m 1
 225 700 l 1
 716 699 l 1
 181 108 l 1
 486 107 l 1
 448 0 l 1
 -49 0 l 1
 484 589 l 1
 186 590 l 1
EndSplineSet
EndChar

StartChar: o
Encoding: 111 111 24
Width: 529
VWidth: 0
Flags: HMW
LayerCount: 2
Fore
SplineSet
66 230 m 0
 103 360 231 470 369 470 c 0
 503 470 573 353 538 230 c 0
 501 100 373 -9 235 -9 c 0
 102 -9 31 107 66 230 c 0
174 230 m 0
 152 166 173 89 251 87 c 0
 331 85 406 158 430 230 c 0
 452 294 430 372 352 374 c 0
 272 376 198 302 174 230 c 0
EndSplineSet
EndChar

StartChar: J
Encoding: 74 74 25
Width: 260
VWidth: 0
Flags: HMW
LayerCount: 2
Fore
SplineSet
-155 -88 m 1
 -138 -107 -121 -124 -93 -122 c 0
 -47 -119 -10 -76 4 -36 c 2
 256 700 l 1
 376 700 l 1
 118 -58 l 2
 82 -156 -5 -228 -112 -227 c 0
 -164 -226 -202 -206 -240 -173 c 1
 -155 -88 l 1
EndSplineSet
EndChar

StartChar: t
Encoding: 116 116 26
Width: 254
VWidth: 0
Flags: HMW
LayerCount: 2
Fore
SplineSet
109 460 m 1
 359 460 l 1
 325 364 l 1
 74 364 l 1
 109 460 l 1
232 619 m 1
 339 620 l 1
 125 0 l 1
 23 0 l 1
 232 619 l 1
EndSplineSet
EndChar

StartChar: d
Encoding: 100 100 27
Width: 553
VWidth: 0
Flags: HMW
LayerCount: 2
Fore
SplineSet
599 779 m 1
 709 780 l 1
 440 0 l 1
 335 0 l 1
 599 779 l 1
53 230 m 0
 91 351 208 471 342 470 c 0
 474 469 484 329 452 230 c 0
 416 116 323 -8 193 -9 c 0
 60 -10 18 120 53 230 c 0
163 230 m 0
 140 167 156 86 236 85 c 0
 315 84 387 161 413 230 c 0
 434 289 424 371 348 375 c 0
 266 379 189 301 163 230 c 0
EndSplineSet
EndChar

StartChar: l
Encoding: 108 108 28
Width: 231
VWidth: 0
Flags: HMW
LayerCount: 2
Fore
SplineSet
274 779 m 1
 383 780 l 1
 114 0 l 1
 10 0 l 1
 274 779 l 1
EndSplineSet
EndChar

StartChar: i
Encoding: 105 105 29
Width: 250
VWidth: 0
Flags: HMW
LayerCount: 2
Fore
SplineSet
223 643 m 0
 223 680 253 708 291 708 c 0
 329 708 359 680 359 643 c 0
 359 606 329 577 291 577 c 0
 253 577 223 606 223 643 c 0
174 459 m 1
 282 459 l 1
 125 0 l 1
 20 0 l 1
 174 459 l 1
EndSplineSet
EndChar

StartChar: r
Encoding: 114 114 30
Width: 350
VWidth: 0
Flags: HMW
LayerCount: 2
Fore
SplineSet
272 460 m 1
 113 0 l 1
 7 0 l 1
 166 460 l 1
 272 460 l 1
366 345 m 1
 352 357 338 367 318 368 c 0
 259 370 222 304 202 259 c 1
 176 282 l 1
 209 360 278 469 368 470 c 0
 401 471 422 454 444 433 c 1
 366 345 l 1
EndSplineSet
EndChar

StartChar: c
Encoding: 99 99 31
Width: 454
VWidth: 0
Flags: HMW
LayerCount: 2
Fore
SplineSet
171 230 m 0
 148 162 174 88 254 85 c 0
 318 83 376 120 423 160 c 1
 391 41 l 1
 343 11 290 -9 232 -9 c 0
 98 -8 28 106 63 230 c 0
 100 362 228 468 367 469 c 0
 420 469 465 452 504 418 c 1
 470 299 l 1
 448 348 412 376 356 375 c 0
 271 374 196 306 171 230 c 0
EndSplineSet
EndChar

StartChar: b
Encoding: 98 98 32
Width: 553
VWidth: 0
Flags: HMW
LayerCount: 2
Fore
SplineSet
379 780 m 1
 111 0 l 1
 4 0 l 1
 272 780 l 1
 379 780 l 1
549 230 m 0
 511 109 396 -11 262 -10 c 0
 130 -9 119 131 151 230 c 0
 187 344 281 468 411 469 c 0
 544 470 584 340 549 230 c 0
440 230 m 0
 463 293 447 374 367 375 c 0
 288 376 216 299 190 230 c 0
 169 171 179 89 255 85 c 0
 337 81 414 159 440 230 c 0
EndSplineSet
EndChar

StartChar: p
Encoding: 112 112 33
Width: 553
VWidth: 0
Flags: HMW
LayerCount: 2
Fore
SplineSet
38 -219 m 1
 -72 -220 l 1
 163 460 l 1
 267 459 l 1
 38 -219 l 1
549 230 m 0
 511 109 396 -15 261 -13 c 0
 127 -11 121 131 153 230 c 0
 189 344 280 471 411 472 c 0
 546 473 584 340 549 230 c 0
440 231 m 0
 463 295 446 371 367 372 c 0
 289 373 215 298 190 229 c 0
 169 169 181 92 256 88 c 0
 337 84 414 160 440 231 c 0
EndSplineSet
EndChar

StartChar: q
Encoding: 113 113 34
Width: 553
VWidth: 0
Flags: HMW
LayerCount: 2
Fore
SplineSet
258 -220 m 1
 492 460 l 1
 599 460 l 1
 365 -220 l 1
 258 -220 l 1
53 230 m 0
 91 351 207 475 342 473 c 0
 476 471 482 329 450 230 c 0
 414 116 323 -11 192 -12 c 0
 57 -13 18 120 53 230 c 0
163 229 m 0
 140 165 158 89 237 88 c 0
 315 87 388 162 413 231 c 0
 434 291 422 368 347 372 c 0
 266 376 189 300 163 229 c 0
EndSplineSet
EndChar

StartChar: h
Encoding: 104 104 35
Width: 509
VWidth: 0
Flags: HMW
LayerCount: 2
Fore
SplineSet
383 780 m 1
 114 0 l 1
 8 0 l 1
 275 780 l 1
 383 780 l 1
385 280 m 2
 398 322 404 377 346 381 c 0
 284 385 238 328 210 281 c 1
 183 282 l 1
 220 373 289 471 398 472 c 0
 504 473 520 379 494 295 c 1
 393 0 l 1
 288 0 l 1
 385 280 l 2
EndSplineSet
EndChar

StartChar: n
Encoding: 110 110 36
Width: 512
VWidth: 0
Flags: HMW
LayerCount: 2
Fore
SplineSet
273 460 m 1
 114 0 l 1
 7 0 l 1
 166 460 l 1
 273 460 l 1
385 280 m 2
 398 322 404 377 346 381 c 0
 284 385 238 329 210 282 c 1
 182 279 l 1
 219 370 288 469 397 470 c 0
 503 471 521 378 495 293 c 1
 395 0 l 1
 288 0 l 1
 385 280 l 2
EndSplineSet
EndChar

StartChar: m
Encoding: 109 109 37
Width: 748
VWidth: 0
Flags: HMW
LayerCount: 2
Fore
SplineSet
364 280 m 2
 376 318 389 376 333 380 c 0
 274 385 233 327 208 282 c 1
 180 279 l 1
 216 367 280 469 387 470 c 0
 492 471 495 375 472 295 c 2
 371 0 l 1
 267 0 l 1
 364 280 l 2
271 460 m 1
 112 0 l 1
 7 0 l 1
 166 460 l 1
 271 460 l 1
732 293 m 2
 632 0 l 1
 525 0 l 1
 624 280 l 2
 636 318 649 376 593 380 c 0
 534 385 493 327 468 282 c 1
 422 279 l 1
 461 370 537 470 647 470 c 0
 753 470 756 373 732 293 c 2
EndSplineSet
EndChar

StartChar: k
Encoding: 107 107 38
Width: 466
VWidth: 0
Flags: HMW
LayerCount: 2
Fore
SplineSet
270 779 m 1
 378 780 l 1
 108 0 l 1
 6 0 l 1
 270 779 l 1
417 459 m 1
 556 459 l 1
 292 259 l 1
 407 0 l 1
 289 0 l 1
 172 276 l 1
 417 459 l 1
EndSplineSet
EndChar

StartChar: u
Encoding: 117 117 39
Width: 512
VWidth: 0
Flags: HMW
LayerCount: 2
Fore
SplineSet
288 0 m 1
 447 460 l 1
 555 460 l 1
 396 0 l 1
 288 0 l 1
177 180 m 1
 164 138 159 83 216 79 c 0
 278 75 323 131 351 178 c 1
 379 181 l 1
 342 90 274 -9 165 -10 c 0
 59 -11 41 82 66 167 c 1
 167 460 l 1
 273 459 l 1
 177 180 l 1
EndSplineSet
EndChar

StartChar: e
Encoding: 101 101 40
Width: 506
VWidth: 0
Flags: HMW
LayerCount: 2
Fore
SplineSet
122 205 m 1
 144 279 l 1
 416 279 l 1
 428 332 411 385 347 386 c 0
 270 387 213 321 184 257 c 2
 173 230 l 1
 152 165 159 83 242 80 c 0
 300 78 347 117 388 153 c 1
 474 112 l 1
 407 43 323 -10 223 -9 c 0
 89 -7 34 110 66 230 c 0
 71 247 77 263 84 279 c 0
 133 386 241 470 362 469 c 0
 499 468 545 355 515 235 c 0
 512 225 509 215 506 205 c 1
 122 205 l 1
EndSplineSet
EndChar

StartChar: g
Encoding: 103 103 41
Width: 551
VWidth: 0
Flags: HMW
LayerCount: 2
Fore
SplineSet
-27 -31 m 1
 75 -32 l 1
 69 -92 87 -138 155 -139 c 0
 241 -141 310 -64 336 10 c 2
 492 460 l 1
 597 460 l 1
 443 10 l 2
 398 -120 302 -232 150 -233 c 0
 24 -234 -46 -151 -27 -31 c 1
54 233 m 0
 92 354 209 471 342 470 c 0
 473 469 485 332 453 232 c 0
 418 119 323 -3 194 -4 c 0
 61 -5 19 123 54 233 c 0
164 232 m 0
 141 168 159 91 238 90 c 0
 316 89 389 164 414 233 c 0
 435 293 423 372 348 375 c 0
 264 378 190 303 164 232 c 0
EndSplineSet
EndChar

StartChar: f
Encoding: 102 102 42
Width: 291
VWidth: 0
Flags: HMW
LayerCount: 2
Fore
SplineSet
130 460 m 1
 384 460 l 1
 350 364 l 1
 96 364 l 1
 130 460 l 1
445 665 m 1
 436 677 427 690 410 690 c 0
 370 690 346 639 334 608 c 2
 124 0 l 1
 19 0 l 1
 234 631 l 2
 265 713 330 795 427 792 c 0
 466 791 492 772 518 745 c 1
 445 665 l 1
EndSplineSet
EndChar

StartChar: s
Encoding: 115 115 43
Width: 399
VWidth: 0
Flags: HMW
LayerCount: 2
Fore
SplineSet
93 166 m 1
 114 126 142 76 195 77 c 0
 224 77 264 97 273 126 c 0
 286 170 238 189 207 204 c 0
 148 232 100 276 119 347 c 0
 140 427 219 469 304 469 c 0
 370 469 419 437 454 387 c 1
 382 326 l 1
 361 355 335 382 295 383 c 0
 269 384 228 370 219 342 c 0
 205 299 272 283 299 270 c 0
 356 243 398 192 381 125 c 0
 359 38 282 -14 187 -14 c 0
 103 -14 52 40 18 105 c 1
 93 166 l 1
EndSplineSet
EndChar

StartChar: y
Encoding: 121 121 44
Width: 444
VWidth: 0
Flags: HMW
LayerCount: 2
Fore
SplineSet
558 459 m 1
 41 -219 l 1
 -77 -219 l 1
 137 60 l 1
 101 460 l 1
 210 460 l 1
 230 96 l 1
 179 100 l 1
 438 459 l 1
 558 459 l 1
EndSplineSet
EndChar

StartChar: w
Encoding: 119 119 45
Width: 670
VWidth: 0
Flags: HMW
LayerCount: 2
Fore
SplineSet
105 460 m 1
 214 460 l 1
 219 193 l 1
 447 499 l 1
 465 191 l 1
 659 459 l 1
 780 459 l 1
 404 -36 l 1
 377 273 l 1
 137 -37 l 1
 105 460 l 1
EndSplineSet
EndChar

StartChar: v
Encoding: 118 118 46
Width: 446
VWidth: 0
Flags: HMW
LayerCount: 2
Fore
SplineSet
107 460 m 1
 220 460 l 1
 240 170 l 1
 441 459 l 1
 562 459 l 1
 177 -46 l 1
 107 460 l 1
EndSplineSet
EndChar

StartChar: x
Encoding: 120 120 47
Width: 437
VWidth: 0
Flags: HMW
LayerCount: 2
Fore
SplineSet
417 459 m 1
 543 459 l 1
 315 229 l 1
 402 0 l 1
 292 0 l 1
 236 161 l 1
 88 0 l 1
 -41 0 l 1
 203 249 l 1
 119 460 l 1
 231 460 l 1
 282 316 l 1
 417 459 l 1
EndSplineSet
EndChar

StartChar: z
Encoding: 122 122 48
Width: 455
VWidth: 0
Flags: HMW
LayerCount: 2
Fore
SplineSet
328 360 m 1
 113 360 l 1
 148 460 l 1
 552 460 l 1
 182 100 l 1
 403 100 l 1
 367 0 l 1
 -46 0 l 1
 328 360 l 1
EndSplineSet
EndChar

StartChar: j
Encoding: 106 106 49
Width: 243
VWidth: 0
Flags: HMW
LayerCount: 2
Fore
SplineSet
215 643 m 0
 215 680 245 708 283 708 c 0
 321 708 351 680 351 643 c 0
 351 606 321 577 283 577 c 0
 245 577 215 606 215 643 c 0
-116 -100 m 1
 -108 -112 -92 -125 -78 -126 c 0
 -39 -129 -14 -71 -4 -43 c 2
 169 460 l 1
 275 460 l 1
 96 -66 l 2
 65 -148 8 -230 -89 -227 c 0
 -128 -226 -161 -207 -188 -180 c 1
 -116 -100 l 1
EndSplineSet
EndChar

StartChar: P
Encoding: 80 80 50
Width: 543
VWidth: 0
Flags: HMW
LayerCount: 2
Fore
SplineSet
255 699 m 1
 374 700 l 1
 132 0 l 1
 18 0 l 1
 255 699 l 1
287 596 m 1
 323 700 l 1
 449 700 l 1
 575 699 657 612 622 482 c 0
 586 348 451 266 316 265 c 1
 173 265 l 1
 210 369 l 1
 337 369 l 1
 409 372 482 412 508 483 c 0
 532 550 494 594 428 595 c 2
 287 596 l 1
EndSplineSet
EndChar

StartChar: U
Encoding: 85 85 51
Width: 617
VWidth: 0
Flags: HMW
LayerCount: 2
Fore
SplineSet
252 700 m 1
 369 700 l 1
 207 235 l 2
 187 169 196 94 280 93 c 0
 381 92 434 160 461 235 c 1
 621 700 l 1
 738 700 l 1
 577 230 l 2
 530 94 431 -17 258 -17 c 0
 114 -17 49 102 91 230 c 1
 252 700 l 1
EndSplineSet
EndChar

StartChar: S
Encoding: 83 83 52
Width: 544
VWidth: 0
Flags: HMW
LayerCount: 2
Fore
SplineSet
144 236 m 1
 155 169 177 94 259 94 c 0
 318 93 376 133 397 188 c 0
 424 260 358 296 303 323 c 0
 219 363 163 428 193 526 c 0
 228 638 347 712 462 712 c 0
 560 712 614 648 636 559 c 1
 532 505 l 1
 518 556 495 604 434 605 c 0
 384 606 328 570 311 522 c 0
 287 455 370 426 416 403 c 0
 502 362 548 288 519 192 c 0
 482 71 359 -14 234 -14 c 0
 118 -14 57 74 40 179 c 1
 144 236 l 1
EndSplineSet
EndChar

StartChar: at
Encoding: 64 64 53
Width: 724
VWidth: 0
Flags: HMW
LayerCount: 2
Fore
SplineSet
324 320 m 0
 313 288 313 245 354 240 c 0
 416 232 480 316 497 368 c 0
 508 401 505 443 464 447 c 0
 403 453 341 370 324 320 c 0
233 316 m 0
 261 411 358 534 468 529 c 0
 553 526 557 432 538 369 c 0
 510 274 426 156 315 158 c 0
 227 160 212 246 233 316 c 0
80 320 m 0
 146 525 347 716 572 715 c 0
 755 714 831 550 779 390 c 0
 745 287 652 139 527 147 c 0
 454 151 457 213 469 268 c 1
 463 281 l 1
 573 519 l 1
 663 519 l 1
 552 297 l 2
 548 288 543 279 540 270 c 0
 536 254 532 233 552 227 c 0
 614 207 678 347 694 390 c 0
 737 506 702 633 560 635 c 0
 380 637 222 480 165 320 c 0
 120 194 158 68 308 64 c 0
 379 62 447 86 511 112 c 1
 526 38 l 1
 452 4 373 -17 291 -16 c 0
 96 -13 24 148 80 320 c 0
EndSplineSet
EndChar

StartChar: period
Encoding: 46 46 54
Width: 290
VWidth: 0
Flags: HMW
LayerCount: 2
Fore
SplineSet
41 52 m 0
 41 90 71 121 111 121 c 0
 151 121 182 90 182 52 c 0
 182 14 151 -18 111 -18 c 0
 71 -18 41 14 41 52 c 0
EndSplineSet
EndChar

StartChar: comma
Encoding: 44 44 55
Width: 294
VWidth: 0
Flags: HMW
LayerCount: 2
Fore
SplineSet
107 108 m 1
 208 75 l 1
 14 -169 l 1
 -63 -146 l 1
 107 108 l 1
EndSplineSet
EndChar

StartChar: colon
Encoding: 58 58 56
Width: 290
VWidth: 0
Flags: HMW
LayerCount: 2
Fore
SplineSet
38 52 m 0
 38 90 68 121 108 121 c 0
 148 121 179 90 179 52 c 0
 179 14 148 -18 108 -18 c 0
 68 -18 38 14 38 52 c 0
167 429 m 0
 167 467 197 498 237 498 c 0
 277 498 308 467 308 429 c 0
 308 391 277 359 237 359 c 0
 197 359 167 391 167 429 c 0
EndSplineSet
EndChar

StartChar: semicolon
Encoding: 59 59 57
Width: 334
VWidth: 0
Flags: HMW
LayerCount: 2
Fore
SplineSet
203 426 m 0
 203 464 234 496 274 496 c 0
 314 496 344 464 344 426 c 0
 344 388 314 356 274 356 c 0
 234 356 203 388 203 426 c 0
116 108 m 1
 217 75 l 1
 22 -169 l 1
 -54 -146 l 1
 116 108 l 1
EndSplineSet
EndChar

StartChar: quotedbl
Encoding: 34 34 58
Width: 457
VWidth: 0
Flags: HMW
LayerCount: 2
Fore
SplineSet
291 699 m 1
 414 699 l 1
 226 394 l 1
 152 393 l 1
 291 699 l 1
472 699 m 1
 596 699 l 1
 407 394 l 1
 334 393 l 1
 472 699 l 1
EndSplineSet
EndChar

StartChar: exclam
Encoding: 33 33 59
Width: 298
VWidth: 0
Flags: HMW
LayerCount: 2
Fore
SplineSet
268 700 m 1
 401 700 l 1
 212 214 l 1
 126 214 l 1
 268 700 l 1
42 49 m 0
 42 87 73 117 113 117 c 0
 153 117 184 87 184 49 c 0
 184 11 153 -19 113 -19 c 0
 73 -19 42 11 42 49 c 0
EndSplineSet
EndChar

StartChar: quotesingle
Encoding: 39 39 60
Width: 276
VWidth: 0
Flags: HMW
LayerCount: 2
Fore
SplineSet
291 699 m 1
 414 699 l 1
 226 394 l 1
 152 393 l 1
 291 699 l 1
EndSplineSet
EndChar

StartChar: numbersign
Encoding: 35 35 61
Width: 592
VWidth: 0
Flags: HMW
LayerCount: 2
Fore
SplineSet
163 429 m 1
 191 516 l 1
 684 516 l 1
 655 429 l 1
 522 428 l 1
 504 431 l 1
 318 431 l 1
 300 428 l 1
 163 429 l 1
42 189 m 1
 71 276 l 1
 193 277 l 1
 214 274 l 1
 413 274 l 1
 437 277 l 1
 564 276 l 1
 535 189 l 1
 42 189 l 1
615 699 m 1
 718 699 l 1
 316 0 l 1
 216 0 l 1
 346 226 l 1
 362 247 l 1
 482 459 l 1
 491 482 l 1
 615 699 l 1
406 699 m 1
 508 699 l 1
 383 485 l 1
 368 462 l 1
 246 247 l 1
 236 226 l 1
 106 0 l 1
 10 0 l 1
 406 699 l 1
EndSplineSet
EndChar

StartChar: hyphen
Encoding: 45 45 62
Width: 201
VWidth: 0
Flags: HMW
LayerCount: 2
Fore
SplineSet
14 189 m 1
 47 287 l 1
 245 287 l 1
 211 189 l 1
 14 189 l 1
EndSplineSet
EndChar

StartChar: dollar
Encoding: 36 36 63
Width: 560
VWidth: 0
Flags: HMW
LayerCount: 2
Fore
SplineSet
461 817 m 1
 554 817 l 1
 500 656 l 1
 413 656 l 1
 461 817 l 1
229 53 m 1
 315 53 l 1
 266 -111 l 1
 174 -111 l 1
 229 53 l 1
543 504 m 1
 530 555 510 609 449 610 c 0
 397 611 341 578 324 528 c 0
 299 456 381 427 431 403 c 0
 516 362 567 288 541 192 c 0
 508 70 385 -10 261 -9 c 0
 147 -8 85 76 62 178 c 1
 164 236 l 1
 178 169 202 94 285 94 c 0
 343 94 401 132 419 188 c 0
 443 261 374 296 319 323 c 0
 235 364 178 436 206 533 c 0
 237 640 357 709 464 709 c 0
 561 709 620 648 645 559 c 1
 543 504 l 1
EndSplineSet
EndChar

StartChar: bar
Encoding: 124 124 64
Width: 287
VWidth: 0
Flags: HMW
LayerCount: 2
Fore
SplineSet
300 784 m 1
 403 784 l 1
 96 -214 l 1
 -8 -214 l 1
 300 784 l 1
EndSplineSet
EndChar

StartChar: zero
Encoding: 48 48 65
Width: 587
VWidth: 0
Flags: HMW
LayerCount: 2
Fore
SplineSet
215 350 m 0
 190 280 143 101 266 97 c 0
 390 93 470 252 505 350 c 0
 530 420 577 599 454 603 c 0
 330 607 250 448 215 350 c 0
101 350 m 0
 154 511 285 712 475 711 c 0
 669 710 663 485 619 350 c 0
 566 189 435 -12 244 -11 c 0
 50 -10 57 215 101 350 c 0
EndSplineSet
Substitution2: "Tabular Numbers lookup" uniFF10
EndChar

StartChar: one
Encoding: 49 49 66
Width: 445
VWidth: 0
Flags: HMW
LayerCount: 2
Fore
SplineSet
195 534 m 1
 236 650 l 1
 526 713 l 1
 280 0 l 1
 166 0 l 1
 365 577 l 1
 195 534 l 1
EndSplineSet
Substitution2: "Tabular Numbers lookup" uniFF11
EndChar

StartChar: two
Encoding: 50 50 67
Width: 568
VWidth: 0
Flags: HMW
LayerCount: 2
Fore
SplineSet
-18 0 m 1
 388 341 l 2
 437 382 497 431 516 496 c 0
 532 551 506 602 445 604 c 0
 358 607 304 522 273 453 c 1
 159 453 l 1
 207 587 312 713 466 712 c 0
 582 711 668 619 636 502 c 0
 614 422 553 355 489 304 c 2
 243 112 l 1
 525 111 l 1
 491 0 l 1
 -18 0 l 1
EndSplineSet
Substitution2: "Tabular Numbers lookup" uniFF12
EndChar

StartChar: four
Encoding: 52 52 68
Width: 592
VWidth: 0
Flags: HMW
LayerCount: 2
Fore
SplineSet
6 135 m 1
 568 698 l 1
 643 699 l 1
 404 0 l 1
 284 0 l 1
 345 176 l 1
 356 187 l 1
 457 475 l 1
 210 229 l 1
 426 228 l 1
 445 237 l 1
 590 237 l 1
 555 134 l 1
 6 135 l 1
EndSplineSet
Substitution2: "Tabular Numbers lookup" uniFF14
EndChar

StartChar: slash
Encoding: 47 47 69
Width: 520
VWidth: 0
Flags: HMW
LayerCount: 2
Fore
SplineSet
585 699 m 5
 697 699 l 5
 15 -149 l 5
 -94 -148 l 5
 585 699 l 5
EndSplineSet
EndChar

StartChar: backslash
Encoding: 92 92 70
Width: 495
VWidth: 0
Flags: HMW
LayerCount: 2
Fore
SplineSet
198 701 m 1
 302 700 l 1
 426 0 l 1
 327 0 l 1
 198 701 l 1
EndSplineSet
EndChar

StartChar: eight
Encoding: 56 56 71
Width: 544
VWidth: 0
Flags: HMW
LayerCount: 2
Fore
SplineSet
199 532 m 0
 232 637 346 713 454 712 c 0
 556 711 630 633 600 530 c 0
 568 422 455 351 345 351 c 0
 241 351 167 427 199 532 c 0
303 518 m 0
 288 474 304 422 356 421 c 0
 413 420 470 470 488 519 c 0
 504 563 489 616 435 617 c 0
 377 618 321 568 303 518 c 0
59 191 m 0
 95 310 223 393 345 392 c 0
 460 392 543 305 507 189 c 0
 471 72 342 -13 221 -12 c 0
 108 -11 25 78 59 191 c 0
177 206 m 0
 157 151 178 90 242 89 c 0
 311 88 379 146 401 207 c 0
 419 260 397 321 335 322 c 0
 267 323 199 264 177 206 c 0
EndSplineSet
Substitution2: "Tabular Numbers lookup" uniFF18
EndChar

StartChar: nine
Encoding: 57 57 72
Width: 577
VWidth: 0
Flags: HMW
LayerCount: 2
Fore
SplineSet
530 464 m 0
 552 530 527 606 448 607 c 0
 366 608 291 537 266 463 c 0
 244 397 267 319 346 318 c 0
 428 317 505 390 530 464 c 0
238 2 m 1
 84 2 l 1
 380 274 l 1
 402 275 l 1
 367 253 332 236 290 237 c 0
 168 239 125 361 154 464 c 0
 192 601 323 712 467 712 c 0
 607 712 679 593 642 464 c 0
 624 400 583 344 538 298 c 2
 238 2 l 1
EndSplineSet
Substitution2: "Tabular Numbers lookup" uniFF19
EndChar

StartChar: three
Encoding: 51 51 73
Width: 541
VWidth: 0
Flags: HMW
LayerCount: 2
Fore
SplineSet
318 343 m 1
 335 406 l 1
 401 417 478 445 500 516 c 0
 514 561 497 607 445 609 c 0
 383 611 341 562 313 514 c 1
 203 515 l 1
 246 624 339 711 463 711 c 0
 569 711 646 628 616 521 c 0
 579 391 437 350 318 343 c 1
248 -12 m 0
 120 -11 57 79 76 200 c 1
 189 199 l 1
 183 139 201 94 269 92 c 0
 335 90 400 139 420 201 c 0
 447 283 377 309 310 317 c 1
 329 384 l 1
 446 377 571 328 532 187 c 0
 498 65 370 -13 248 -12 c 0
EndSplineSet
Substitution2: "Tabular Numbers lookup" uniFF13
EndChar

StartChar: five
Encoding: 53 53 74
Width: 561
VWidth: 0
Flags: HMW
LayerCount: 2
Fore
SplineSet
562 227 m 0
 523 90 392 -10 249 -11 c 0
 150 -11 79 39 32 115 c 1
 121 198 l 1
 148 145 188 101 255 100 c 0
 336 99 417 157 442 235 c 0
 464 306 425 364 350 368 c 0
 281 371 215 343 153 316 c 1
 357 700 l 1
 702 700 l 1
 668 595 l 1
 417 596 l 1
 318 435 l 1
 353 449 389 460 427 460 c 0
 554 458 592 333 562 227 c 0
EndSplineSet
Substitution2: "Tabular Numbers lookup" uniFF15
EndChar

StartChar: six
Encoding: 54 54 75
Width: 577
VWidth: 0
Flags: HMW
LayerCount: 2
Fore
SplineSet
195 236 m 0
 173 170 198 94 277 93 c 0
 359 92 435 163 460 237 c 0
 482 303 458 381 379 382 c 0
 297 383 220 310 195 236 c 0
487 698 m 1
 642 698 l 1
 346 426 l 1
 323 425 l 1
 358 447 393 464 435 463 c 0
 557 461 601 339 572 236 c 0
 534 99 402 -12 258 -12 c 0
 118 -12 47 107 84 236 c 0
 102 300 142 356 187 402 c 2
 487 698 l 1
EndSplineSet
Substitution2: "Tabular Numbers lookup" uniFF16
EndChar

StartChar: seven
Encoding: 55 55 76
Width: 522
VWidth: 0
Flags: HMW
LayerCount: 2
Fore
SplineSet
172 588 m 1
 208 700 l 1
 707 699 l 1
 173 0 l 1
 44 0 l 1
 497 587 l 1
 172 588 l 1
EndSplineSet
Substitution2: "Tabular Numbers lookup" uniFF17
EndChar

StartChar: plus
Encoding: 43 43 77
Width: 600
VWidth: 0
Flags: HMW
LayerCount: 2
Fore
SplineSet
77 208 m 1
 113 314 l 1
 597 314 l 1
 560 207 l 1
 77 208 l 1
366 516 m 1
 480 517 l 1
 302 5 l 1
 194 6 l 1
 366 516 l 1
EndSplineSet
EndChar

StartChar: equal
Encoding: 61 61 78
Width: 581
VWidth: 0
Flags: HMW
LayerCount: 2
Fore
SplineSet
43 118 m 1
 76 215 l 1
 548 215 l 1
 514 117 l 1
 43 118 l 1
102 291 m 1
 135 388 l 1
 607 388 l 1
 574 290 l 1
 102 291 l 1
EndSplineSet
EndChar

StartChar: percent
Encoding: 37 37 79
Width: 770
VWidth: 0
Flags: HMW
LayerCount: 2
Fore
SplineSet
158 545 m 0
 185 634 275 713 371 713 c 0
 465 713 508 627 483 543 c 0
 456 454 365 374 269 374 c 0
 175 374 133 461 158 545 c 0
247 543 m 0
 235 509 244 463 289 461 c 0
 333 459 380 505 393 544 c 0
 405 578 397 624 352 626 c 0
 308 628 260 582 247 543 c 0
420 158 m 0
 447 247 537 326 633 326 c 0
 727 326 770 240 745 156 c 0
 718 67 627 -13 531 -13 c 0
 437 -13 395 74 420 158 c 0
509 156 m 0
 497 122 507 77 550 75 c 0
 594 73 641 115 656 157 c 0
 668 191 658 237 615 239 c 0
 571 241 524 198 509 156 c 0
743 699 m 1
 857 699 l 1
 159 0 l 1
 49 0 l 1
 743 699 l 1
EndSplineSet
EndChar

StartChar: ampersand
Encoding: 38 38 80
Width: 664
VWidth: 0
Flags: HMW
LayerCount: 2
Fore
SplineSet
295 379 m 2
 265 433 230 487 247 552 c 0
 272 647 375 714 471 713 c 0
 561 712 625 640 600 550 c 0
 575 457 476 401 397 359 c 0
 320 319 201 287 172 193 c 0
 153 131 193 89 254 86 c 0
 403 77 534 231 630 325 c 1
 694 268 l 1
 571 145 414 -14 226 -11 c 0
 116 -9 27 70 58 185 c 0
 94 317 231 365 342 418 c 0
 396 445 481 482 499 546 c 0
 509 582 494 620 451 621 c 0
 408 622 364 588 351 547 c 0
 335 499 369 454 390 415 c 2
 610 0 l 1
 498 0 l 1
 295 379 l 2
EndSplineSet
EndChar

StartChar: question
Encoding: 63 63 81
Width: 550
VWidth: 0
Flags: HMW
LayerCount: 2
Fore
SplineSet
509 500 m 0
 532 564 499 615 431 616 c 0
 365 618 307 574 260 533 c 1
 197 595 l 1
 270 660 358 715 460 713 c 0
 579 711 652 613 616 499 c 0
 579 380 463 312 347 288 c 1
 303 184 l 1
 218 184 l 1
 256 359 l 1
 281 359 l 1
 369 363 477 411 509 500 c 0
143 48 m 0
 143 84 174 113 212 113 c 0
 251 113 281 83 281 48 c 0
 281 11 250 -18 212 -18 c 0
 172 -18 143 12 143 48 c 0
EndSplineSet
EndChar

StartChar: parenleft
Encoding: 40 40 82
Width: 302
VWidth: 0
Flags: HMW
LayerCount: 2
Fore
SplineSet
388 778 m 1
 488 778 l 1
 382 628 296 466 241 290 c 0
 191 131 166 -35 188 -201 c 1
 94 -201 l 1
 65 -36 81 131 129 290 c 0
 183 468 272 633 388 778 c 1
EndSplineSet
EndChar

StartChar: parenright
Encoding: 41 41 83
Width: 302
VWidth: 0
Flags: HMW
LayerCount: 2
Fore
SplineSet
26 -198 m 1
 -74 -198 l 1
 32 -48 118 114 173 290 c 0
 223 449 247 615 225 781 c 1
 320 781 l 1
 349 616 333 449 285 290 c 0
 231 112 142 -53 26 -198 c 1
EndSplineSet
EndChar

StartChar: asterisk
Encoding: 42 42 84
Width: 557
VWidth: 0
Flags: HMW
LayerCount: 2
Fore
SplineSet
603 600 m 1
 601 506 l 1
 390 460 l 1
 391 519 l 1
 603 600 l 1
498 343 m 1
 404 287 l 1
 362 474 l 1
 414 506 l 1
 498 343 l 1
248 290 m 1
 186 351 l 1
 370 504 l 1
 409 467 l 1
 248 290 l 1
193 509 m 1
 250 599 l 1
 412 514 l 1
 377 461 l 1
 193 509 l 1
415 699 m 1
 513 699 l 1
 420 489 l 1
 362 489 l 1
 415 699 l 1
EndSplineSet
EndChar

StartChar: less
Encoding: 60 60 85
Width: 602
VWidth: 0
Flags: HMW
LayerCount: 2
Fore
SplineSet
254 257 m 1
 529 108 l 1
 492 11 l 1
 83 228 l 1
 106 295 l 1
 667 515 l 1
 627 398 l 1
 254 257 l 1
EndSplineSet
EndChar

StartChar: greater
Encoding: 62 62 86
Width: 602
VWidth: 0
Flags: HMW
LayerCount: 2
Fore
SplineSet
417 263 m 1
 143 412 l 1
 179 509 l 1
 588 292 l 1
 566 225 l 1
 5 6 l 1
 44 123 l 1
 417 263 l 1
EndSplineSet
EndChar

StartChar: bracketleft
Encoding: 91 91 87
Width: 305
VWidth: 0
Flags: HMW
LayerCount: 2
Fore
SplineSet
372 682 m 1
 123 -122 l 1
 219 -122 l 1
 187 -220 l 1
 -14 -220 l 1
 295 780 l 1
 496 780 l 1
 466 683 l 1
 372 682 l 1
EndSplineSet
EndChar

StartChar: bracketright
Encoding: 93 93 88
Width: 305
VWidth: 0
Flags: HMW
LayerCount: 2
Fore
SplineSet
39 -122 m 1
 288 682 l 1
 192 682 l 1
 223 780 l 1
 424 780 l 1
 115 -220 l 1
 -86 -220 l 1
 -56 -123 l 1
 39 -122 l 1
EndSplineSet
EndChar

StartChar: asciicircum
Encoding: 94 94 89
Width: 479
VWidth: 0
Flags: HMW
LayerCount: 2
Fore
SplineSet
397 602 m 1
 254 456 l 1
 146 456 l 1
 394 709 l 1
 454 710 l 1
 528 454 l 1
 435 454 l 1
 397 602 l 1
EndSplineSet
EndChar

StartChar: underscore
Encoding: 95 95 90
Width: 481
VWidth: 0
Flags: HMW
LayerCount: 2
Fore
SplineSet
-104 -141 m 1
 -80 -70 l 1
 406 -70 l 1
 382 -141 l 1
 -104 -141 l 1
EndSplineSet
EndChar

StartChar: grave
Encoding: 96 96 91
Width: 352
VWidth: 0
Flags: HMW
LayerCount: 2
Fore
SplineSet
230 660 m 1
 326 703 l 1
 423 540 l 1
 359 508 l 1
 230 660 l 1
EndSplineSet
EndChar

StartChar: braceleft
Encoding: 123 123 92
Width: 325
VWidth: 0
Flags: HMW
LayerCount: 2
Fore
SplineSet
367 639 m 2
 321 490 l 2
 289 388 248 303 135 281 c 1
 140 300 l 1
 246 272 222 175 196 90 c 2
 148 -60 l 2
 139 -88 147 -107 176 -108 c 2
 213 -109 l 1
 186 -200 l 1
 121 -200 l 2
 46 -200 19 -125 39 -60 c 2
 101 140 l 2
 115 186 119 217 83 250 c 1
 107 330 l 1
 153 356 174 391 191 441 c 2
 251 641 l 2
 275 712 334 778 412 779 c 1
 487 779 l 1
 461 690 l 1
 429 690 l 2
 397 690 377 670 367 639 c 2
EndSplineSet
EndChar

StartChar: braceright
Encoding: 125 125 93
Width: 325
VWidth: 0
Flags: HMW
LayerCount: 2
Fore
SplineSet
76 -59 m 2
 122 90 l 2
 154 192 196 277 309 299 c 1
 303 280 l 1
 197 308 221 405 247 490 c 2
 295 640 l 2
 304 668 295 687 266 688 c 2
 231 689 l 1
 257 780 l 1
 322 780 l 2
 397 779 424 705 404 640 c 2
 342 440 l 2
 328 394 324 363 360 330 c 1
 336 250 l 1
 290 224 269 189 252 139 c 2
 191 -61 l 2
 167 -133 110 -198 32 -199 c 1
 -44 -199 l 1
 -17 -110 l 1
 14 -110 l 2
 46 -110 66 -90 76 -59 c 2
EndSplineSet
EndChar

StartChar: asciitilde
Encoding: 126 126 94
Width: 541
VWidth: 0
Flags: HMW
LayerCount: 2
Fore
SplineSet
160 170 m 1
 72 176 l 1
 73 184 73 193 75 201 c 0
 83 230 101 258 122 280 c 0
 154 312 199 335 245 334 c 0
 286 334 318 311 348 286 c 0
 362 274 383 253 404 254 c 0
 427 255 448 279 457 299 c 0
 461 308 461 319 461 329 c 1
 553 323 l 1
 552 314 553 303 550 294 c 0
 543 265 525 236 504 214 c 0
 477 186 436 164 396 165 c 0
 357 166 327 189 298 213 c 0
 279 228 256 247 230 246 c 0
 201 245 175 221 164 195 c 0
 160 187 161 178 160 170 c 1
EndSplineSet
EndChar

StartChar: exclamdown
Encoding: 161 161 95
Width: 298
VWidth: 0
Flags: HMW
LayerCount: 2
Fore
SplineSet
80 -239 m 1
 -54 -239 l 1
 138 248 l 1
 222 248 l 1
 80 -239 l 1
304 410 m 0
 295 377 251 344 217 346 c 0
 182 348 159 379 168 414 c 0
 177 447 221 481 255 479 c 0
 290 477 313 445 304 410 c 0
EndSplineSet
EndChar

StartChar: cent
Encoding: 162 162 96
Width: 545
VWidth: 0
Flags: HMW
LayerCount: 2
Fore
SplineSet
204 37 m 1
 286 37 l 1
 237 -111 l 1
 148 -111 l 1
 204 37 l 1
194 230 m 0
 169 163 192 88 272 85 c 0
 337 83 397 121 445 160 c 1
 408 41 l 1
 360 11 306 -9 248 -9 c 0
 114 -8 48 107 86 230 c 0
 127 362 258 468 398 469 c 0
 451 469 494 453 533 418 c 1
 496 298 l 1
 476 348 440 376 385 375 c 0
 302 374 222 306 194 230 c 0
385 577 m 1
 474 577 l 1
 418 429 l 1
 337 429 l 1
 385 577 l 1
EndSplineSet
EndChar

StartChar: sterling
Encoding: 163 163 97
Width: 556
VWidth: 0
Flags: HMW
LayerCount: 2
Fore
SplineSet
134 370 m 1
 484 370 l 1
 453 285 l 1
 103 285 l 1
 134 370 l 1
527 475 m 1
 537 531 540 601 466 604 c 0
 406 607 350 562 328 509 c 0
 295 429 358 348 334 266 c 0
 303 160 201 87 101 53 c 1
 137 104 l 1
 479 104 l 1
 442 0 l 1
 1 0 l 1
 84 78 192 150 228 264 c 0
 256 351 192 433 218 520 c 0
 251 631 371 710 485 709 c 0
 600 708 645 614 632 512 c 1
 527 475 l 1
EndSplineSet
EndChar

StartChar: currency
Encoding: 164 164 98
Width: 543
VWidth: 0
Flags: HMW
LayerCount: 2
Fore
SplineSet
145 506 m 1
 214 558 l 1
 275 457 l 1
 210 408 l 1
 145 506 l 1
45 43 m 1
 7 103 l 1
 128 192 l 1
 166 134 l 1
 45 43 l 1
514 408 m 1
 474 467 l 1
 597 558 l 1
 634 499 l 1
 514 408 l 1
364 142 m 1
 432 192 l 1
 494 92 l 1
 428 43 l 1
 364 142 l 1
94 300 m 0
 133 425 259 539 395 539 c 0
 528 539 583 417 547 300 c 0
 508 175 382 61 246 61 c 0
 113 61 58 183 94 300 c 0
195 299 m 0
 172 237 191 163 267 162 c 0
 346 160 421 231 446 301 c 0
 469 363 450 437 374 438 c 0
 295 440 220 369 195 299 c 0
EndSplineSet
EndChar

StartChar: yen
Encoding: 165 165 99
Width: 579
VWidth: 0
Flags: HMW
LayerCount: 2
Fore
SplineSet
83 280 m 1
 112 365 l 1
 607 365 l 1
 578 280 l 1
 83 280 l 1
32 130 m 1
 60 215 l 1
 556 215 l 1
 527 130 l 1
 32 130 l 1
624 699 m 1
 762 699 l 1
 396 292 l 1
 295 0 l 1
 176 0 l 1
 281 303 l 1
 196 700 l 1
 321 700 l 1
 369 405 l 1
 624 699 l 1
EndSplineSet
EndChar

StartChar: brokenbar
Encoding: 166 166 100
Width: 287
VWidth: 0
Flags: HMW
LayerCount: 2
Fore
SplineSet
276 694 m 1
 379 694 l 1
 293 445 l 1
 190 445 l 1
 276 694 l 1
229 255 m 1
 143 6 l 1
 39 6 l 1
 125 255 l 1
 229 255 l 1
EndSplineSet
EndChar

StartChar: section
Encoding: 167 167 101
Width: 448
VWidth: 0
Flags: HMW
LayerCount: 2
Fore
SplineSet
471 568 m 1
 452 597 431 619 393 619 c 0
 368 619 325 606 316 579 c 0
 304 542 364 525 388 512 c 0
 444 486 489 438 470 372 c 0
 442 272 337 243 246 237 c 1
 258 273 l 1
 299 287 350 310 364 356 c 0
 380 407 331 427 294 446 c 0
 239 475 195 519 215 586 c 0
 239 666 329 714 408 715 c 0
 474 716 525 687 552 629 c 1
 471 568 l 1
100 165 m 1
 113 120 138 81 194 81 c 0
 226 81 271 98 282 130 c 0
 297 173 247 190 217 206 c 0
 159 233 107 280 128 350 c 0
 157 448 265 472 354 478 c 1
 344 448 l 1
 303 432 252 414 236 369 c 0
 216 313 272 292 311 271 c 0
 366 242 407 194 389 129 c 0
 364 38 264 -15 174 -14 c 0
 91 -13 38 33 18 105 c 1
 100 165 l 1
EndSplineSet
EndChar

StartChar: dieresis
Encoding: 168 168 102
Width: 457
VWidth: 0
Flags: HMW
LayerCount: 2
Fore
SplineSet
431 650 m 0
 438 681 482 715 514 713 c 0
 548 711 570 679 563 646 c 0
 556 615 512 581 480 583 c 0
 446 585 424 617 431 650 c 0
226 650 m 0
 233 681 277 715 309 713 c 0
 343 711 365 679 358 646 c 0
 351 615 307 581 275 583 c 0
 241 585 219 617 226 650 c 0
EndSplineSet
EndChar

StartChar: copyright
Encoding: 169 169 103
Width: 752
VWidth: 0
Flags: HMW
LayerCount: 2
Fore
SplineSet
319 350 m 0
 296 281 321 205 402 203 c 0
 456 201 505 231 548 260 c 1
 525 176 l 1
 483 151 440 133 390 133 c 0
 270 133 212 242 243 350 c 0
 276 466 388 566 511 567 c 0
 557 568 594 551 630 522 c 1
 607 438 l 1
 581 474 551 497 505 497 c 0
 421 497 345 427 319 350 c 0
165 350 m 0
 118 206 178 42 348 41 c 0
 524 40 682 189 735 350 c 0
 782 494 722 658 552 659 c 0
 376 660 218 511 165 350 c 0
109 350 m 0
 164 541 348 711 553 710 c 0
 751 709 841 527 791 350 c 0
 736 159 551 -11 346 -10 c 0
 148 -9 59 173 109 350 c 0
EndSplineSet
EndChar

StartChar: registered
Encoding: 174 174 104
Width: 752
VWidth: 0
Flags: HMW
LayerCount: 2
Fore
SplineSet
410 346 m 1
 476 346 l 1
 549 149 l 1
 469 149 l 1
 410 346 l 1
390 569 m 1
 460 569 l 1
 331 151 l 1
 260 151 l 1
 390 569 l 1
411 508 m 1
 430 569 l 1
 509 570 l 1
 581 566 640 519 619 441 c 0
 598 361 517 316 439 312 c 1
 350 312 l 1
 368 369 l 1
 445 370 l 1
 486 373 534 397 547 440 c 0
 559 480 532 504 495 508 c 1
 411 508 l 1
165 350 m 0
 118 206 178 42 348 41 c 0
 524 40 682 189 735 350 c 0
 782 494 722 658 552 659 c 0
 376 660 218 511 165 350 c 0
109 350 m 0
 164 540 348 711 553 710 c 0
 751 709 841 527 791 350 c 0
 736 160 551 -11 346 -10 c 0
 148 -9 59 173 109 350 c 0
EndSplineSet
EndChar

StartChar: ordfeminine
Encoding: 170 170 105
Width: 235
VWidth: 0
Flags: HMW
LayerCount: 2
Fore
SplineSet
197 530 m 0
 193 513 205 498 222 497 c 0
 258 494 281 526 301 550 c 1
 301 523 l 1
 277 487 247 455 200 456 c 0
 158 457 130 491 143 532 c 0
 157 578 214 608 259 608 c 0
 287 608 308 597 329 580 c 1
 319 553 l 1
 302 564 286 576 264 575 c 0
 241 574 203 555 197 530 c 0
224 637 m 1
 215 680 l 1
 245 692 276 706 309 705 c 0
 353 704 388 680 380 632 c 1
 322 461 l 1
 268 461 l 1
 328 625 l 1
 323 643 322 654 300 658 c 0
 275 662 246 646 224 637 c 1
EndSplineSet
EndChar

StartChar: ordmasculine
Encoding: 186 186 106
Width: 261
VWidth: 0
Flags: HMW
LayerCount: 2
Fore
SplineSet
160 581 m 0
 179 644 247 700 314 699 c 0
 381 698 417 641 398 579 c 0
 379 516 311 460 244 461 c 0
 177 462 141 519 160 581 c 0
214 579 m 0
 203 550 212 510 249 509 c 0
 288 508 330 547 343 581 c 0
 354 610 345 650 308 651 c 0
 269 652 227 613 214 579 c 0
EndSplineSet
EndChar

StartChar: guillemotleft
Encoding: 171 171 107
Width: 490
VWidth: 0
Flags: HMW
LayerCount: 2
Fore
SplineSet
331 256 m 1
 406 61 l 1
 328 12 l 1
 233 262 l 1
 485 497 l 1
 537 440 l 1
 331 256 l 1
163 256 m 1
 239 61 l 1
 160 12 l 1
 65 262 l 1
 318 497 l 1
 370 440 l 1
 163 256 l 1
EndSplineSet
EndChar

StartChar: guillemotright
Encoding: 187 187 108
Width: 490
VWidth: 0
Flags: HMW
LayerCount: 2
Fore
SplineSet
226 254 m 1
 151 449 l 1
 229 498 l 1
 325 248 l 1
 73 13 l 1
 20 70 l 1
 226 254 l 1
394 254 m 1
 318 449 l 1
 397 498 l 1
 492 248 l 1
 240 13 l 1
 188 70 l 1
 394 254 l 1
EndSplineSet
EndChar

StartChar: uni00AD
Encoding: 173 173 109
Width: 197
VWidth: 0
Flags: HMW
LayerCount: 2
Fore
SplineSet
20 201 m 1
 44 275 l 1
 237 275 l 1
 211 201 l 1
 20 201 l 1
EndSplineSet
EndChar

StartChar: logicalnot
Encoding: 172 172 110
Width: 594
VWidth: 0
Flags: HMW
LayerCount: 2
Fore
SplineSet
104 289 m 1
 138 387 l 1
 615 387 l 1
 541 176 l 1
 454 176 l 1
 496 289 l 1
 104 289 l 1
EndSplineSet
EndChar

StartChar: macron
Encoding: 175 175 111
Width: 487
VWidth: 0
Flags: HMW
LayerCount: 2
Fore
SplineSet
221 588 m 1
 252 687 l 1
 593 687 l 1
 563 588 l 1
 221 588 l 1
EndSplineSet
EndChar

StartChar: degree
Encoding: 176 176 112
Width: 267
VWidth: 0
Flags: HMW
LayerCount: 2
Fore
SplineSet
166 600 m 0
 185 663 253 720 320 719 c 0
 387 718 422 659 403 597 c 0
 384 534 317 477 249 478 c 0
 182 479 147 538 166 600 c 0
219 598 m 0
 208 568 218 528 255 527 c 0
 294 526 337 564 350 599 c 0
 361 629 351 669 314 670 c 0
 275 671 232 633 219 598 c 0
EndSplineSet
EndChar

StartChar: plusminus
Encoding: 177 177 113
Width: 584
VWidth: 0
Flags: HMW
LayerCount: 2
Fore
SplineSet
27 3 m 1
 58 103 l 1
 526 103 l 1
 494 3 l 1
 27 3 l 1
131 340 m 1
 163 443 l 1
 630 443 l 1
 598 340 l 1
 131 340 l 1
393 620 m 1
 506 620 l 1
 363 163 l 1
 255 164 l 1
 393 620 l 1
EndSplineSet
EndChar

StartChar: uni00B2
Encoding: 178 178 114
Width: 348
VWidth: 0
Flags: HMW
LayerCount: 2
Fore
SplineSet
62 284 m 1
 312 487 l 2
 342 511 383 541 395 580 c 0
 404 610 394 642 359 645 c 0
 306 650 271 594 249 555 c 1
 178 555 l 1
 213 633 276 710 370 709 c 0
 443 708 487 648 466 578 c 0
 452 531 413 495 376 465 c 2
 226 350 l 1
 391 348 l 1
 369 283 l 1
 62 284 l 1
EndSplineSet
EndChar

StartChar: uni00B3
Encoding: 179 179 115
Width: 313
VWidth: 0
Flags: HMW
LayerCount: 2
Fore
SplineSet
249 487 m 1
 261 523 l 1
 301 532 349 546 364 590 c 0
 373 616 362 643 333 645 c 0
 297 648 270 615 251 590 c 1
 183 591 l 1
 215 652 267 707 342 706 c 0
 406 705 452 656 432 592 c 0
 408 514 320 494 249 487 c 1
203 273 m 0
 123 274 92 328 100 400 c 1
 168 400 l 1
 168 366 172 338 213 335 c 0
 251 333 296 367 307 402 c 0
 323 452 280 463 242 471 c 1
 255 510 l 1
 325 503 401 476 376 391 c 0
 355 320 275 272 203 273 c 0
EndSplineSet
EndChar

StartChar: acute
Encoding: 180 180 116
Width: 352
VWidth: 0
Flags: HMW
LayerCount: 2
Fore
SplineSet
460 653 m 1
 247 509 l 1
 193 547 l 1
 380 702 l 1
 460 653 l 1
EndSplineSet
EndChar

StartChar: mu
Encoding: 181 181 117
Width: 512
VWidth: 0
Flags: HMW
LayerCount: 2
Fore
SplineSet
288 0 m 1
 447 460 l 1
 555 460 l 1
 396 0 l 1
 288 0 l 1
177 180 m 1
 164 138 159 83 216 79 c 0
 278 75 323 131 351 178 c 1
 387 181 l 1
 348 90 275 -9 165 -10 c 0
 59 -11 41 82 66 167 c 1
 167 460 l 1
 273 459 l 1
 177 180 l 1
164 459 m 1
 272 460 l 1
 2 -320 l 1
 -99 -319 l 1
 164 459 l 1
EndSplineSet
EndChar

StartChar: paragraph
Encoding: 182 182 118
Width: 579
VWidth: 0
Flags: HMW
LayerCount: 2
Fore
SplineSet
428 624 m 1
 454 699 l 1
 657 699 l 1
 631 624 l 1
 428 624 l 1
617 699 m 1
 710 699 l 1
 397 -219 l 1
 303 -219 l 1
 617 699 l 1
454 699 m 1
 547 699 l 1
 233 -219 l 1
 140 -219 l 1
 454 699 l 1
313 271 m 1
 193 284 128 366 166 486 c 0
 207 617 323 699 454 699 c 1
 313 271 l 1
EndSplineSet
EndChar

StartChar: periodcentered
Encoding: 183 183 119
Width: 290
VWidth: 0
Flags: HMW
LayerCount: 2
Fore
SplineSet
109 254 m 0
 118 287 162 323 197 321 c 0
 234 319 255 284 246 250 c 0
 237 217 192 180 157 182 c 0
 120 184 100 220 109 254 c 0
EndSplineSet
EndChar

StartChar: uni00B9
Encoding: 185 185 120
Width: 446
VWidth: 0
Flags: HMW
LayerCount: 2
Fore
SplineSet
284 596 m 1
 306 663 l 1
 483 702 l 1
 335 275 l 1
 265 275 l 1
 382 619 l 1
 284 596 l 1
EndSplineSet
EndChar

StartChar: cedilla
Encoding: 184 184 121
Width: 345
VWidth: 0
Flags: HMW
LayerCount: 2
Fore
SplineSet
143 63 m 1
 227 61 l 1
 114 -53 l 1
 119 -52 124 -52 129 -52 c 0
 173 -58 195 -94 184 -137 c 0
 169 -195 101 -234 44 -234 c 0
 4 -235 -25 -218 -55 -194 c 1
 -6 -146 l 1
 10 -158 25 -170 47 -170 c 0
 67 -170 109 -152 114 -130 c 0
 119 -109 95 -98 79 -97 c 0
 55 -95 28 -105 5 -112 c 1
 143 63 l 1
EndSplineSet
EndChar

StartChar: questiondown
Encoding: 191 191 122
Width: 550
VWidth: 0
Flags: HMW
LayerCount: 2
Fore
SplineSet
172 200 m 0
 149 136 182 85 250 84 c 0
 316 82 375 126 422 167 c 1
 485 105 l 1
 412 40 324 -15 222 -13 c 0
 103 -11 30 87 66 201 c 0
 103 320 219 388 335 412 c 1
 379 516 l 1
 464 517 l 1
 426 341 l 1
 401 341 l 1
 313 337 204 289 172 200 c 0
536 650 m 0
 528 618 481 585 448 587 c 0
 414 589 391 620 399 654 c 0
 407 686 453 720 486 718 c 0
 520 716 544 684 536 650 c 0
EndSplineSet
EndChar

StartChar: multiply
Encoding: 215 215 123
Width: 560
VWidth: 0
Flags: HMW
LayerCount: 2
Fore
SplineSet
76 14 m 1
 29 93 l 1
 251 260 l 1
 144 430 l 1
 231 496 l 1
 331 324 l 1
 550 496 l 1
 598 417 l 1
 375 250 l 1
 482 80 l 1
 395 14 l 1
 296 186 l 1
 76 14 l 1
EndSplineSet
EndChar

StartChar: Oslash
Encoding: 216 216 124
Width: 743
VWidth: 0
Flags: HMW
LayerCount: 2
Fore
SplineSet
221 350 m 0
 181 239 212 104 351 102 c 0
 493 100 619 224 665 350 c 0
 705 461 674 596 535 598 c 0
 393 600 267 476 221 350 c 0
98 350 m 0
 160 543 350 714 559 713 c 0
 761 712 844 527 788 350 c 0
 726 157 535 -16 326 -15 c 0
 123 -14 42 174 98 350 c 0
848 752 m 1
 900 703 l 1
 33 -52 l 1
 -18 -5 l 1
 848 752 l 1
EndSplineSet
EndChar

StartChar: Thorn
Encoding: 222 222 125
Width: 540
VWidth: 0
Flags: HMW
LayerCount: 2
Fore
SplineSet
257 699 m 1
 367 700 l 1
 126 0 l 1
 21 0 l 1
 257 699 l 1
239 466 m 1
 276 568 l 1
 402 568 l 0
 527 563 615 480 575 350 c 0
 534 217 403 140 269 135 c 0
 126 135 l 1
 163 237 l 1
 289 237 l 1
 364 240 439 278 467 352 c 0
 493 423 449 461 381 465 c 1
 239 466 l 1
EndSplineSet
EndChar

StartChar: divide
Encoding: 247 247 126
Width: 592
VWidth: 0
Flags: HMW
LayerCount: 2
Fore
SplineSet
341 494 m 0
 350 527 394 564 429 562 c 0
 466 560 487 524 478 490 c 0
 469 457 425 421 390 423 c 0
 353 425 332 460 341 494 c 0
201 84 m 0
 210 117 254 153 289 151 c 0
 326 149 346 114 337 80 c 0
 328 47 284 10 249 12 c 0
 212 14 192 50 201 84 c 0
70 240 m 1
 105 342 l 1
 614 342 l 1
 578 239 l 1
 70 240 l 1
EndSplineSet
EndChar

StartChar: oslash
Encoding: 248 248 127
Width: 513
VWidth: 0
Flags: HMW
LayerCount: 2
Fore
SplineSet
53 230 m 0
 94 360 225 469 364 469 c 0
 499 469 564 352 526 230 c 0
 485 100 354 -9 215 -9 c 0
 80 -9 15 108 53 230 c 0
157 230 m 0
 133 164 152 85 233 84 c 0
 316 82 395 155 422 230 c 0
 446 295 426 374 346 376 c 0
 263 378 184 304 157 230 c 0
532 501 m 1
 578 473 l 1
 35 -45 l 1
 -10 -18 l 1
 532 501 l 1
EndSplineSet
EndChar

StartChar: circumflex
Encoding: 710 710 128
Width: 451
VWidth: 0
Flags: HMW
LayerCount: 2
Fore
SplineSet
395 637 m 1
 267 548 l 1
 210 604 l 1
 419 740 l 1
 542 597 l 1
 461 548 l 1
 395 637 l 1
EndSplineSet
EndChar

StartChar: ogonek
Encoding: 731 731 129
Width: 244
VWidth: 0
Flags: HMW
LayerCount: 2
Fore
SplineSet
109 -122 m 1
 125 -182 l 1
 96 -202 65 -219 29 -219 c 0
 -30 -220 -77 -180 -61 -119 c 0
 -42 -45 46 -6 108 24 c 1
 145 0 l 1
 107 -23 43 -49 31 -98 c 0
 27 -117 32 -137 54 -141 c 0
 72 -144 94 -130 109 -122 c 1
EndSplineSet
EndChar

StartChar: tilde
Encoding: 732 732 130
Width: 498
VWidth: 0
Flags: HMW
LayerCount: 2
Fore
SplineSet
242 633 m 1
 271 673 314 719 368 716 c 0
 409 714 433 666 475 669 c 0
 504 671 529 700 549 718 c 1
 591 659 l 1
 559 624 513 581 461 585 c 0
 421 588 395 637 354 633 c 0
 324 630 307 606 291 584 c 1
 242 633 l 1
EndSplineSet
EndChar

StartChar: ring
Encoding: 730 730 131
Width: 280
VWidth: 0
Flags: HMW
LayerCount: 2
Fore
SplineSet
245 781 m 0
 261 836 325 885 383 884 c 0
 441 883 475 832 459 777 c 0
 443 722 380 672 321 673 c 0
 263 674 229 727 245 781 c 0
305 777 m 0
 299 758 308 732 330 729 c 0
 353 726 392 759 398 780 c 0
 404 799 395 826 373 829 c 0
 350 832 311 798 305 777 c 0
EndSplineSet
EndChar

StartChar: dotaccent
Encoding: 729 729 132
Width: 282
VWidth: 0
Flags: HMW
LayerCount: 2
Fore
SplineSet
294 802 m 0
 302 833 346 867 378 865 c 0
 412 863 433 830 425 797 c 0
 417 766 373 732 341 734 c 0
 307 736 286 769 294 802 c 0
EndSplineSet
EndChar

StartChar: uni2010
Encoding: 8208 8208 133
Width: 201
VWidth: 0
Flags: HMW
LayerCount: 2
Fore
SplineSet
14 189 m 1
 47 287 l 1
 245 287 l 1
 211 189 l 1
 14 189 l 1
EndSplineSet
EndChar

StartChar: endash
Encoding: 8211 8211 134
Width: 712
VWidth: 0
Flags: HMW
LayerCount: 2
Fore
SplineSet
76 189 m 1
 108 287 l 1
 692 287 l 1
 658 188 l 1
 76 189 l 1
EndSplineSet
EndChar

StartChar: figuredash
Encoding: 8210 8210 135
Width: 569
VWidth: 0
Flags: HMW
LayerCount: 2
Fore
SplineSet
76 189 m 1
 108 287 l 1
 547 287 l 1
 514 188 l 1
 76 189 l 1
EndSplineSet
EndChar

StartChar: emdash
Encoding: 8212 8212 136
Width: 856
VWidth: 0
Flags: HMW
LayerCount: 2
Fore
SplineSet
76 189 m 1
 108 287 l 1
 836 287 l 1
 803 188 l 1
 76 189 l 1
EndSplineSet
EndChar

StartChar: minus
Encoding: 8722 8722 137
Width: 555
VWidth: 0
Flags: HMW
LayerCount: 2
Fore
SplineSet
71 189 m 1
 103 287 l 1
 542 287 l 1
 509 188 l 1
 71 189 l 1
EndSplineSet
EndChar

StartChar: quoteright
Encoding: 8217 8217 138
Width: 279
VWidth: 0
Flags: HMW
LayerCount: 2
Fore
SplineSet
282 699 m 1
 406 699 l 1
 225 461 l 1
 147 461 l 1
 282 699 l 1
EndSplineSet
EndChar

StartChar: quoteleft
Encoding: 8216 8216 139
Width: 279
VWidth: 0
Flags: HMW
LayerCount: 2
Fore
SplineSet
286 460 m 1
 162 461 l 1
 342 698 l 1
 421 698 l 1
 286 460 l 1
EndSplineSet
EndChar

StartChar: quotesinglbase
Encoding: 8218 8218 140
Width: 279
VWidth: 0
Flags: HMW
LayerCount: 2
Fore
SplineSet
80 79 m 1
 203 79 l 1
 23 -159 l 1
 -55 -159 l 1
 80 79 l 1
EndSplineSet
EndChar

StartChar: quotedblleft
Encoding: 8220 8220 141
Width: 479
VWidth: 0
Flags: HMW
LayerCount: 2
Fore
SplineSet
286 460 m 1
 162 461 l 1
 342 698 l 1
 421 698 l 1
 286 460 l 1
486 460 m 1
 362 461 l 1
 542 698 l 1
 621 698 l 1
 486 460 l 1
EndSplineSet
EndChar

StartChar: quotedblright
Encoding: 8221 8221 142
Width: 479
VWidth: 0
Flags: HMW
LayerCount: 2
Fore
SplineSet
282 699 m 1
 406 699 l 1
 225 461 l 1
 147 461 l 1
 282 699 l 1
483 699 m 1
 606 699 l 1
 426 461 l 1
 347 461 l 1
 483 699 l 1
EndSplineSet
EndChar

StartChar: perthousand
Encoding: 8240 8240 143
Width: 1157
VWidth: 0
Flags: HMW
LayerCount: 2
Fore
SplineSet
806 158 m 0
 833 247 924 326 1020 326 c 0
 1114 326 1157 240 1132 156 c 0
 1105 67 1014 -13 918 -13 c 0
 824 -13 781 74 806 158 c 0
896 156 m 0
 884 122 892 78 935 75 c 0
 979 72 1029 118 1042 157 c 0
 1054 191 1046 236 1003 239 c 0
 959 242 909 195 896 156 c 0
158 545 m 0
 185 634 275 713 371 713 c 0
 465 713 508 627 483 543 c 0
 456 454 365 374 269 374 c 0
 175 374 133 461 158 545 c 0
247 543 m 0
 235 509 244 464 287 461 c 0
 331 458 380 505 393 544 c 0
 405 578 397 623 354 626 c 0
 310 629 260 582 247 543 c 0
420 158 m 0
 447 247 537 326 633 326 c 0
 727 326 770 240 745 156 c 0
 718 67 627 -13 531 -13 c 0
 437 -13 395 74 420 158 c 0
509 156 m 0
 497 122 506 78 549 75 c 0
 593 72 643 118 656 157 c 0
 668 191 659 236 616 239 c 0
 572 242 522 195 509 156 c 0
743 699 m 1
 857 699 l 1
 159 0 l 1
 49 0 l 1
 743 699 l 1
EndSplineSet
EndChar

StartChar: guilsinglleft
Encoding: 8249 8249 144
Width: 329
VWidth: 0
Flags: HMW
LayerCount: 2
Fore
SplineSet
163 256 m 1
 239 61 l 1
 160 12 l 1
 65 262 l 1
 318 497 l 1
 370 440 l 1
 163 256 l 1
EndSplineSet
EndChar

StartChar: guilsinglright
Encoding: 8250 8250 145
Width: 329
VWidth: 0
Flags: HMW
LayerCount: 2
Fore
SplineSet
231 254 m 1
 156 449 l 1
 234 498 l 1
 330 248 l 1
 77 13 l 1
 25 70 l 1
 231 254 l 1
EndSplineSet
EndChar

StartChar: uni2031
Encoding: 8241 8241 146
Width: 1544
VWidth: 0
Flags: HMW
LayerCount: 2
Fore
SplineSet
1193 158 m 0
 1220 247 1310 326 1406 326 c 0
 1500 326 1544 240 1519 156 c 0
 1492 67 1400 -13 1304 -13 c 0
 1210 -13 1168 74 1193 158 c 0
1282 156 m 0
 1270 122 1279 78 1322 75 c 0
 1366 72 1416 118 1429 157 c 0
 1441 191 1432 236 1389 239 c 0
 1345 242 1295 195 1282 156 c 0
806 158 m 0
 833 247 924 326 1020 326 c 0
 1114 326 1157 240 1132 156 c 0
 1105 67 1014 -13 918 -13 c 0
 824 -13 781 74 806 158 c 0
896 156 m 0
 884 122 892 78 935 75 c 0
 979 72 1029 118 1042 157 c 0
 1054 191 1046 236 1003 239 c 0
 959 242 909 195 896 156 c 0
158 545 m 0
 185 634 275 713 371 713 c 0
 465 713 508 627 483 543 c 0
 456 454 365 374 269 374 c 0
 175 374 133 461 158 545 c 0
247 543 m 0
 235 509 244 464 287 461 c 0
 331 458 380 505 393 544 c 0
 405 578 397 623 354 626 c 0
 310 629 260 582 247 543 c 0
420 158 m 0
 447 247 537 326 633 326 c 0
 727 326 770 240 745 156 c 0
 718 67 627 -13 531 -13 c 0
 437 -13 395 74 420 158 c 0
509 156 m 0
 497 122 506 78 549 75 c 0
 593 72 643 118 656 157 c 0
 668 191 659 236 616 239 c 0
 572 242 522 195 509 156 c 0
743 699 m 1
 857 699 l 1
 159 0 l 1
 49 0 l 1
 743 699 l 1
EndSplineSet
EndChar

StartChar: uni203D
Encoding: 8253 8253 147
Width: 550
VWidth: 0
Flags: HMW
LayerCount: 2
Fore
SplineSet
511 493 m 0
 537 561 501 615 428 616 c 0
 361 617 307 576 260 533 c 1
 197 595 l 1
 268 662 357 715 459 713 c 0
 578 711 652 613 616 499 c 0
 575 367 440 297 311 284 c 1
 293 348 l 1
 382 359 477 402 511 493 c 0
311 507 m 1
 429 506 l 1
 294 184 l 1
 223 184 l 1
 311 507 l 1
146 51 m 0
 155 84 200 118 234 116 c 0
 269 114 292 82 283 47 c 0
 274 14 229 -20 195 -18 c 0
 160 -16 137 16 146 51 c 0
EndSplineSet
EndChar

StartChar: Euro
Encoding: 8364 8364 148
Width: 573
VWidth: 0
Flags: HMW
LayerCount: 2
Fore
SplineSet
109 397 m 1
 130 459 l 1
 601 459 l 1
 580 397 l 1
 109 397 l 1
61 273 m 1
 82 334 l 1
 537 334 l 1
 515 273 l 1
 61 273 l 1
249 350 m 0
 216 259 198 95 335 92 c 0
 396 90 451 122 502 151 c 1
 465 27 l 1
 417 5 366 -13 313 -13 c 0
 115 -13 93 201 141 350 c 0
 197 522 350 714 548 713 c 0
 598 713 639 697 682 673 c 1
 643 547 l 1
 611 584 577 609 526 609 c 0
 389 609 290 465 249 350 c 0
EndSplineSet
EndChar

StartChar: fraction
Encoding: 8260 8260 149
Width: 672
VWidth: 0
Flags: HMW
LayerCount: 2
Fore
SplineSet
725 698 m 1
 816 698 l 1
 90 0 l 1
 -1 0 l 1
 725 698 l 1
EndSplineSet
EndChar

StartChar: onequarter
Encoding: 188 188 150
Width: 734
VWidth: 0
Flags: HMW
LayerCount: 2
Fore
SplineSet
766 698 m 1
 848 698 l 1
 121 0 l 1
 39 0 l 1
 766 698 l 1
174 596 m 1
 196 663 l 1
 373 702 l 1
 225 275 l 1
 155 275 l 1
 272 619 l 1
 174 596 l 1
348 82 m 1
 420 135 l 1
 592 137 l 1
 604 142 l 1
 700 141 l 1
 679 81 l 1
 348 82 l 1
429 94 m 1
 345 80 l 1
 686 418 l 1
 733 419 l 1
 590 0 l 1
 517 0 l 1
 551 102 l 1
 558 108 l 1
 619 280 l 1
 429 94 l 1
EndSplineSet
EndChar

StartChar: onehalf
Encoding: 189 189 151
Width: 798
VWidth: 0
Flags: HMW
LayerCount: 2
Fore
SplineSet
766 698 m 1
 848 698 l 1
 121 0 l 1
 39 0 l 1
 766 698 l 1
174 596 m 1
 196 663 l 1
 373 702 l 1
 225 275 l 1
 155 275 l 1
 272 619 l 1
 174 596 l 1
412 4 m 1
 662 207 l 2
 692 231 733 261 745 300 c 0
 754 330 744 361 709 364 c 0
 656 369 621 314 599 275 c 1
 528 275 l 1
 563 353 625 430 719 429 c 0
 792 428 836 368 815 298 c 0
 801 251 763 215 726 185 c 2
 576 70 l 1
 741 68 l 1
 719 3 l 1
 412 4 l 1
EndSplineSet
EndChar

StartChar: threequarters
Encoding: 190 190 152
Width: 793
VWidth: 0
Flags: HMW
LayerCount: 2
Fore
SplineSet
827 698 m 1
 909 698 l 1
 183 0 l 1
 101 0 l 1
 827 698 l 1
255 487 m 1
 267 523 l 1
 307 532 354 546 369 590 c 0
 378 616 368 643 339 645 c 0
 303 648 276 615 257 590 c 1
 189 591 l 1
 221 652 273 707 348 706 c 0
 412 705 458 656 438 592 c 0
 414 514 326 494 255 487 c 1
209 273 m 0
 129 274 99 328 107 400 c 1
 174 400 l 1
 174 366 178 338 219 335 c 0
 257 333 302 367 313 402 c 0
 329 452 286 463 248 471 c 1
 261 510 l 1
 331 503 407 476 382 391 c 0
 361 320 281 272 209 273 c 0
407 82 m 1
 479 135 l 1
 651 137 l 1
 663 142 l 1
 760 141 l 1
 738 81 l 1
 407 82 l 1
489 94 m 1
 404 80 l 1
 746 418 l 1
 792 419 l 1
 649 0 l 1
 576 0 l 1
 611 102 l 1
 617 108 l 1
 678 280 l 1
 489 94 l 1
EndSplineSet
EndChar

StartChar: uni2150
Encoding: 8528 8528 153
Width: 830
VWidth: 0
Flags: HMW
LayerCount: 2
Fore
SplineSet
728 698 m 1
 820 698 l 1
 94 0 l 1
 2 0 l 1
 728 698 l 1
174 596 m 1
 196 663 l 1
 373 702 l 1
 225 275 l 1
 155 275 l 1
 272 619 l 1
 174 596 l 1
575 353 m 1
 598 419 l 1
 901 419 l 1
 566 0 l 1
 487 0 l 1
 767 352 l 1
 575 353 l 1
EndSplineSet
EndChar

StartChar: uni2151
Encoding: 8529 8529 154
Width: 775
VWidth: 0
Flags: HMW
LayerCount: 2
Fore
SplineSet
726 698 m 1
 817 698 l 1
 91 0 l 1
 -0 0 l 1
 726 698 l 1
174 596 m 1
 196 663 l 1
 373 702 l 1
 225 275 l 1
 155 275 l 1
 272 619 l 1
 174 596 l 1
733 281 m 0
 746 319 735 364 689 366 c 0
 641 369 589 322 574 280 c 0
 561 242 572 196 618 193 c 0
 666 190 718 239 733 281 c 0
551 5 m 1
 456 5 l 1
 637 165 l 1
 652 164 l 1
 631 154 610 143 586 144 c 0
 513 145 489 220 507 281 c 0
 531 362 613 429 698 429 c 0
 782 429 826 357 801 279 c 0
 789 241 763 209 736 181 c 1
 551 5 l 1
EndSplineSet
EndChar

StartChar: uni2152
Encoding: 8530 8530 155
Width: 1066
VWidth: 0
Flags: HMW
LayerCount: 2
Fore
SplineSet
726 698 m 1
 817 698 l 1
 91 0 l 1
 -0 0 l 1
 726 698 l 1
174 596 m 1
 196 663 l 1
 373 702 l 1
 225 275 l 1
 155 275 l 1
 272 619 l 1
 174 596 l 1
538 323 m 1
 561 390 l 1
 737 429 l 1
 589 2 l 1
 520 2 l 1
 637 346 l 1
 538 323 l 1
814 210 m 0
 799 168 771 62 843 58 c 0
 916 54 967 153 988 210 c 0
 1003 252 1032 358 960 362 c 0
 887 366 835 267 814 210 c 0
745 210 m 0
 775 305 856 427 968 426 c 0
 1084 425 1083 293 1057 210 c 0
 1027 115 947 -7 834 -6 c 0
 718 -5 719 128 745 210 c 0
EndSplineSet
EndChar

StartChar: onethird
Encoding: 8531 8531 156
Width: 755
VWidth: 0
Flags: HMW
LayerCount: 2
Fore
SplineSet
726 698 m 1
 817 698 l 1
 91 0 l 1
 -0 0 l 1
 726 698 l 1
174 596 m 1
 196 663 l 1
 373 702 l 1
 225 275 l 1
 155 275 l 1
 272 619 l 1
 174 596 l 1
591 207 m 1
 603 243 l 1
 643 252 691 266 706 310 c 0
 715 336 705 363 676 365 c 0
 640 368 612 335 593 310 c 1
 526 311 l 1
 558 372 609 427 684 426 c 0
 748 425 795 376 775 312 c 0
 751 234 662 214 591 207 c 1
545 -7 m 0
 465 -6 435 48 443 120 c 1
 511 120 l 1
 511 86 514 58 555 55 c 0
 593 53 639 87 650 122 c 0
 666 172 622 183 584 191 c 1
 598 230 l 1
 668 223 743 196 718 111 c 0
 697 40 617 -8 545 -7 c 0
EndSplineSet
EndChar

StartChar: twothirds
Encoding: 8532 8532 157
Width: 877
VWidth: 0
Flags: HMW
LayerCount: 2
Fore
SplineSet
853 698 m 1
 944 698 l 1
 217 0 l 1
 126 0 l 1
 853 698 l 1
67 284 m 1
 317 487 l 2
 347 511 388 541 400 580 c 0
 409 610 399 641 364 644 c 0
 311 649 276 594 254 555 c 1
 183 555 l 1
 218 633 280 710 374 709 c 0
 447 708 491 648 470 578 c 0
 456 531 417 495 380 465 c 2
 231 350 l 1
 396 348 l 1
 374 283 l 1
 67 284 l 1
713 207 m 1
 725 243 l 1
 765 252 813 266 828 310 c 0
 837 336 826 363 797 365 c 0
 761 368 735 335 716 310 c 1
 647 311 l 1
 679 372 731 427 806 426 c 0
 870 425 916 376 896 312 c 0
 872 234 784 214 713 207 c 1
667 -7 m 0
 587 -6 557 48 565 120 c 1
 633 120 l 1
 633 86 636 58 677 55 c 0
 715 53 760 87 771 122 c 0
 787 172 744 183 706 191 c 1
 719 230 l 1
 789 223 865 196 840 111 c 0
 819 40 739 -8 667 -7 c 0
EndSplineSet
EndChar

StartChar: uni2155
Encoding: 8533 8533 158
Width: 745
VWidth: 0
Flags: HMW
LayerCount: 2
Fore
SplineSet
726 698 m 1
 817 698 l 1
 91 0 l 1
 -0 0 l 1
 726 698 l 1
174 596 m 1
 196 663 l 1
 373 702 l 1
 225 275 l 1
 155 275 l 1
 272 619 l 1
 174 596 l 1
714 133 m 0
 689 52 607 -7 523 -8 c 0
 463 -9 422 22 393 68 c 1
 446 117 l 1
 463 86 484 59 524 58 c 0
 571 57 628 94 642 140 c 0
 655 180 634 214 591 219 c 0
 549 223 507 203 470 189 c 1
 523 230 l 1
 554 253 595 275 635 274 c 0
 711 271 734 197 714 133 c 0
637 355 m 1
 562 236 l 1
 458 179 l 1
 599 417 l 1
 807 417 l 1
 786 356 l 1
 637 355 l 1
EndSplineSet
EndChar

StartChar: uni2156
Encoding: 8534 8534 159
Width: 870
VWidth: 0
Flags: HMW
LayerCount: 2
Fore
SplineSet
853 698 m 1
 944 698 l 1
 217 0 l 1
 126 0 l 1
 853 698 l 1
67 284 m 1
 317 487 l 2
 347 511 388 541 400 580 c 0
 409 610 399 641 364 644 c 0
 311 649 276 594 254 555 c 1
 183 555 l 1
 218 633 280 710 374 709 c 0
 447 708 491 648 470 578 c 0
 456 531 417 495 380 465 c 2
 231 350 l 1
 396 348 l 1
 374 283 l 1
 67 284 l 1
836 133 m 0
 811 52 729 -7 645 -8 c 0
 585 -9 544 22 515 68 c 1
 568 117 l 1
 585 86 606 59 646 58 c 0
 693 57 749 94 763 140 c 0
 776 180 756 214 713 219 c 0
 671 223 629 203 592 189 c 1
 644 230 l 1
 675 253 717 275 757 274 c 0
 833 271 856 197 836 133 c 0
758 355 m 1
 684 236 l 1
 580 179 l 1
 721 417 l 1
 929 417 l 1
 907 356 l 1
 758 355 l 1
EndSplineSet
EndChar

StartChar: uni2157
Encoding: 8535 8535 160
Width: 819
VWidth: 0
Flags: HMW
LayerCount: 2
Fore
SplineSet
803 698 m 1
 894 698 l 1
 168 0 l 1
 77 0 l 1
 803 698 l 1
254 487 m 1
 265 523 l 1
 305 532 353 546 368 590 c 0
 377 616 367 643 338 645 c 0
 302 648 274 615 255 590 c 1
 188 591 l 1
 220 652 271 707 346 706 c 0
 410 705 457 656 437 592 c 0
 413 514 325 494 254 487 c 1
208 273 m 0
 128 274 97 328 105 400 c 1
 173 400 l 1
 173 366 176 338 217 335 c 0
 255 333 301 367 312 402 c 0
 328 452 285 463 247 471 c 1
 260 510 l 1
 330 503 406 476 381 391 c 0
 360 320 280 272 208 273 c 0
784 133 m 0
 759 52 677 -7 593 -8 c 0
 533 -9 492 22 463 68 c 1
 516 117 l 1
 533 86 553 59 593 58 c 0
 640 57 697 94 711 140 c 0
 724 180 704 214 661 219 c 0
 619 223 576 203 539 189 c 1
 593 230 l 1
 624 253 665 275 705 274 c 0
 781 271 804 197 784 133 c 0
706 355 m 1
 631 236 l 1
 528 179 l 1
 668 417 l 1
 876 417 l 1
 855 356 l 1
 706 355 l 1
EndSplineSet
EndChar

StartChar: uni2158
Encoding: 8536 8536 161
Width: 871
VWidth: 0
Flags: HMW
LayerCount: 2
Fore
SplineSet
845 698 m 1
 937 697 l 1
 211 0 l 1
 119 0 l 1
 845 698 l 1
91 362 m 1
 162 415 l 1
 334 417 l 1
 346 422 l 1
 443 421 l 1
 422 361 l 1
 91 362 l 1
173 374 m 1
 87 360 l 1
 429 698 l 1
 475 699 l 1
 332 281 l 1
 260 281 l 1
 295 382 l 1
 300 388 l 1
 361 560 l 1
 173 374 l 1
839 133 m 0
 814 52 732 -7 648 -8 c 0
 588 -9 546 21 517 67 c 1
 570 117 l 1
 587 86 608 59 648 58 c 0
 695 57 752 94 766 140 c 0
 779 180 759 214 716 219 c 0
 674 223 631 203 594 189 c 1
 647 230 l 1
 678 253 719 275 759 274 c 0
 835 271 859 197 839 133 c 0
761 355 m 1
 686 236 l 1
 583 178 l 1
 723 417 l 1
 931 417 l 1
 910 356 l 1
 761 355 l 1
EndSplineSet
EndChar

StartChar: uni2159
Encoding: 8537 8537 162
Width: 743
VWidth: 0
Flags: HMW
LayerCount: 2
Fore
SplineSet
733 698 m 1
 824 698 l 1
 98 0 l 1
 7 0 l 1
 733 698 l 1
174 596 m 1
 196 663 l 1
 373 702 l 1
 225 275 l 1
 155 275 l 1
 272 619 l 1
 174 596 l 1
488 139 m 0
 475 101 487 56 533 54 c 0
 581 51 632 98 647 140 c 0
 660 178 649 224 603 227 c 0
 555 230 503 181 488 139 c 0
671 415 m 1
 766 415 l 1
 585 255 l 1
 570 256 l 1
 591 266 611 276 635 276 c 0
 708 275 733 200 715 139 c 0
 691 58 609 -9 524 -9 c 0
 440 -9 395 63 420 141 c 0
 432 179 458 211 485 239 c 1
 671 415 l 1
EndSplineSet
EndChar

StartChar: uni215A
Encoding: 8538 8538 163
Width: 833
VWidth: 0
Flags: HMW
LayerCount: 2
Fore
SplineSet
831 698 m 1
 922 698 l 1
 196 0 l 1
 105 0 l 1
 831 698 l 1
412 413 m 0
 387 332 305 273 221 272 c 0
 161 271 120 302 91 348 c 1
 144 397 l 1
 161 366 182 339 222 338 c 0
 269 337 325 374 339 420 c 0
 352 460 332 494 289 499 c 0
 247 503 205 483 168 469 c 1
 220 510 l 1
 251 533 292 555 332 554 c 0
 408 551 432 477 412 413 c 0
334 635 m 1
 260 516 l 1
 156 459 l 1
 297 697 l 1
 505 697 l 1
 483 636 l 1
 334 635 l 1
579 139 m 0
 566 101 577 56 623 54 c 0
 671 51 723 98 738 140 c 0
 751 178 740 224 694 227 c 0
 646 230 594 181 579 139 c 0
761 415 m 1
 856 415 l 1
 676 255 l 1
 661 256 l 1
 682 266 702 276 726 276 c 0
 799 275 823 200 805 139 c 0
 781 58 700 -9 615 -9 c 0
 531 -9 486 63 511 141 c 0
 523 179 549 211 576 239 c 1
 761 415 l 1
EndSplineSet
EndChar

StartChar: oneeighth
Encoding: 8539 8539 164
Width: 765
VWidth: 0
Flags: HMW
LayerCount: 2
Fore
SplineSet
733 698 m 1
 824 698 l 1
 98 0 l 1
 7 0 l 1
 733 698 l 1
174 596 m 1
 196 663 l 1
 373 702 l 1
 225 275 l 1
 155 275 l 1
 272 619 l 1
 174 596 l 1
538 320 m 0
 557 382 626 428 689 427 c 0
 750 426 798 380 780 318 c 0
 762 255 691 210 627 211 c 0
 564 212 519 256 538 320 c 0
601 310 m 0
 593 286 602 256 631 253 c 0
 662 250 702 285 711 313 c 0
 719 338 711 367 681 370 c 0
 650 373 611 338 601 310 c 0
453 115 m 0
 474 185 553 236 624 235 c 0
 693 235 745 183 724 113 c 0
 703 44 624 -8 553 -7 c 0
 485 -6 433 47 453 115 c 0
525 123 m 0
 513 92 526 56 563 54 c 0
 602 52 647 89 659 124 c 0
 669 154 657 191 621 193 c 0
 583 195 537 156 525 123 c 0
EndSplineSet
EndChar

StartChar: threeeighths
Encoding: 8540 8540 165
Width: 836
VWidth: 0
Flags: HMW
LayerCount: 2
Fore
SplineSet
805 698 m 1
 897 698 l 1
 171 0 l 1
 79 0 l 1
 805 698 l 1
254 487 m 1
 265 523 l 1
 305 532 353 546 368 590 c 0
 377 616 367 643 338 645 c 0
 302 648 274 615 255 590 c 1
 188 591 l 1
 220 652 271 707 346 706 c 0
 410 705 457 656 437 592 c 0
 413 514 325 494 254 487 c 1
208 273 m 0
 128 274 97 328 105 400 c 1
 173 400 l 1
 173 366 176 338 217 335 c 0
 255 333 301 367 312 402 c 0
 328 452 285 463 247 471 c 1
 260 510 l 1
 330 503 406 476 381 391 c 0
 360 320 280 272 208 273 c 0
609 320 m 0
 628 382 699 428 762 427 c 0
 823 426 870 380 852 318 c 0
 834 255 763 210 699 211 c 0
 636 212 590 256 609 320 c 0
673 310 m 0
 665 286 674 256 703 253 c 0
 734 250 774 285 783 313 c 0
 791 338 783 367 753 370 c 0
 722 373 683 338 673 310 c 0
525 115 m 0
 546 185 625 236 696 235 c 0
 765 235 817 183 796 113 c 0
 775 44 697 -8 626 -7 c 0
 558 -6 505 47 525 115 c 0
597 123 m 0
 585 92 598 56 635 54 c 0
 674 52 719 89 731 124 c 0
 741 154 730 191 694 193 c 0
 656 195 609 156 597 123 c 0
EndSplineSet
EndChar

StartChar: fiveeighths
Encoding: 8541 8541 166
Width: 862
VWidth: 0
Flags: HMW
LayerCount: 2
Fore
SplineSet
831 698 m 1
 922 698 l 1
 196 0 l 1
 105 0 l 1
 831 698 l 1
409 413 m 0
 384 332 302 273 218 272 c 0
 158 271 118 302 89 348 c 1
 141 397 l 1
 158 366 179 339 219 338 c 0
 266 337 323 374 337 420 c 0
 350 460 330 494 287 499 c 0
 245 503 202 483 165 469 c 1
 218 510 l 1
 249 533 290 555 330 554 c 0
 406 551 429 477 409 413 c 0
332 635 m 1
 257 516 l 1
 153 459 l 1
 294 697 l 1
 503 697 l 1
 481 636 l 1
 332 635 l 1
635 320 m 0
 654 382 724 428 787 427 c 0
 848 426 896 380 878 318 c 0
 860 255 789 210 725 211 c 0
 662 212 616 256 635 320 c 0
699 310 m 0
 691 286 700 256 729 253 c 0
 760 250 800 285 809 313 c 0
 817 338 809 367 779 370 c 0
 748 373 709 338 699 310 c 0
551 115 m 0
 572 185 650 236 721 235 c 0
 790 235 843 183 822 113 c 0
 801 44 722 -8 651 -7 c 0
 583 -6 531 47 551 115 c 0
623 123 m 0
 611 92 624 56 661 54 c 0
 700 52 745 89 757 124 c 0
 767 154 755 191 719 193 c 0
 681 195 635 156 623 123 c 0
EndSplineSet
EndChar

StartChar: seveneighths
Encoding: 8542 8542 167
Width: 759
VWidth: 0
Flags: HMW
LayerCount: 2
Fore
SplineSet
725 698 m 1
 816 698 l 1
 90 0 l 1
 -1 0 l 1
 725 698 l 1
186 633 m 1
 208 699 l 1
 511 699 l 1
 176 282 l 1
 98 282 l 1
 378 632 l 1
 186 633 l 1
532 320 m 0
 551 382 621 428 684 427 c 0
 745 426 792 380 774 318 c 0
 756 255 686 210 622 211 c 0
 559 212 513 256 532 320 c 0
595 310 m 0
 587 286 596 256 625 253 c 0
 656 250 697 285 706 313 c 0
 714 338 706 367 676 370 c 0
 645 373 605 338 595 310 c 0
448 115 m 0
 469 185 547 236 618 235 c 0
 687 235 739 183 718 113 c 0
 697 44 619 -8 548 -7 c 0
 480 -6 428 47 448 115 c 0
519 123 m 0
 507 92 520 56 557 54 c 0
 596 52 642 89 654 124 c 0
 664 154 652 191 616 193 c 0
 578 195 531 156 519 123 c 0
EndSplineSet
EndChar

StartChar: uni2074
Encoding: 8308 8308 168
Width: 378
VWidth: 0
Flags: HMW
LayerCount: 2
Fore
SplineSet
88 362 m 1
 160 415 l 1
 332 417 l 1
 344 422 l 1
 440 421 l 1
 420 361 l 1
 88 362 l 1
170 374 m 1
 85 360 l 1
 426 698 l 1
 473 699 l 1
 330 281 l 1
 258 281 l 1
 292 382 l 1
 298 388 l 1
 359 560 l 1
 170 374 l 1
EndSplineSet
EndChar

StartChar: uni2075
Encoding: 8309 8309 169
Width: 345
VWidth: 0
Flags: HMW
LayerCount: 2
Fore
SplineSet
409 413 m 0
 384 332 302 273 218 272 c 0
 158 271 118 302 89 348 c 1
 141 397 l 1
 158 366 179 339 219 338 c 0
 266 337 323 374 337 420 c 0
 350 460 330 494 287 499 c 0
 245 503 202 483 165 469 c 1
 218 510 l 1
 249 533 290 555 330 554 c 0
 406 551 429 477 409 413 c 0
332 635 m 1
 257 516 l 1
 153 459 l 1
 294 697 l 1
 503 697 l 1
 481 636 l 1
 332 635 l 1
EndSplineSet
EndChar

StartChar: uni2076
Encoding: 8310 8310 170
Width: 339
VWidth: 0
Flags: HMW
LayerCount: 2
Fore
SplineSet
184 419 m 0
 171 381 182 336 228 334 c 0
 276 331 327 378 342 420 c 0
 355 458 345 504 299 507 c 0
 251 510 199 461 184 419 c 0
366 695 m 1
 461 695 l 1
 280 535 l 1
 265 536 l 1
 286 546 307 556 331 556 c 0
 404 555 428 480 410 419 c 0
 386 338 304 271 219 271 c 0
 135 271 91 343 116 421 c 0
 128 459 153 491 180 519 c 1
 366 695 l 1
EndSplineSet
EndChar

StartChar: uni2077
Encoding: 8311 8311 171
Width: 342
VWidth: 0
Flags: HMW
LayerCount: 2
Fore
SplineSet
186 633 m 1
 208 699 l 1
 511 699 l 1
 176 282 l 1
 98 282 l 1
 378 632 l 1
 186 633 l 1
EndSplineSet
EndChar

StartChar: uni2078
Encoding: 8312 8312 172
Width: 317
VWidth: 0
Flags: HMW
LayerCount: 2
Fore
SplineSet
188 600 m 0
 207 662 277 708 340 707 c 0
 401 706 448 660 430 598 c 0
 412 535 342 490 278 491 c 0
 215 492 169 536 188 600 c 0
251 590 m 0
 243 566 253 536 282 533 c 0
 313 530 353 565 362 593 c 0
 370 618 361 647 331 650 c 0
 300 653 261 618 251 590 c 0
104 395 m 0
 125 465 203 516 274 515 c 0
 343 515 395 463 374 393 c 0
 353 324 275 272 204 273 c 0
 136 274 84 327 104 395 c 0
176 403 m 0
 164 372 176 336 213 334 c 0
 252 332 297 369 309 404 c 0
 319 434 307 471 271 473 c 0
 233 475 188 436 176 403 c 0
EndSplineSet
EndChar

StartChar: uni2079
Encoding: 8313 8313 173
Width: 337
VWidth: 0
Flags: HMW
LayerCount: 2
Fore
SplineSet
394 561 m 0
 407 599 396 644 350 646 c 0
 302 649 250 602 235 560 c 0
 222 522 234 476 280 473 c 0
 328 470 379 519 394 561 c 0
212 285 m 1
 117 285 l 1
 297 445 l 1
 313 444 l 1
 292 434 271 423 247 424 c 0
 174 425 150 500 168 561 c 0
 192 642 274 709 359 709 c 0
 443 709 487 637 462 559 c 0
 450 521 424 489 397 461 c 1
 212 285 l 1
EndSplineSet
EndChar

StartChar: uni2070
Encoding: 8304 8304 174
Width: 356
VWidth: 0
Flags: HMW
LayerCount: 2
Fore
SplineSet
205 490 m 0
 190 448 161 342 233 338 c 0
 306 334 358 433 379 490 c 0
 394 532 422 638 350 642 c 0
 277 646 226 547 205 490 c 0
135 490 m 0
 165 585 246 707 358 706 c 0
 474 705 474 573 448 490 c 0
 418 395 338 273 225 274 c 0
 109 275 109 408 135 490 c 0
EndSplineSet
EndChar

StartChar: uni2080
Encoding: 8320 8320 175
Width: 356
VWidth: 0
Flags: HMW
LayerCount: 2
Fore
SplineSet
109 210 m 0
 94 168 65 62 137 58 c 0
 210 54 262 153 283 210 c 0
 298 252 327 358 255 362 c 0
 182 366 130 267 109 210 c 0
40 210 m 0
 70 305 151 427 263 426 c 0
 379 425 378 293 352 210 c 0
 322 115 242 -7 129 -6 c 0
 13 -5 14 128 40 210 c 0
EndSplineSet
EndChar

StartChar: uni2084
Encoding: 8324 8324 176
Width: 379
VWidth: 0
Flags: HMW
LayerCount: 2
Fore
SplineSet
-8 82 m 1
 64 135 l 1
 236 137 l 1
 248 142 l 1
 345 141 l 1
 323 81 l 1
 -8 82 l 1
74 94 m 1
 -11 80 l 1
 331 418 l 1
 377 419 l 1
 234 0 l 1
 161 0 l 1
 196 102 l 1
 202 108 l 1
 264 280 l 1
 74 94 l 1
EndSplineSet
EndChar

StartChar: uni2085
Encoding: 8325 8325 177
Width: 349
VWidth: 0
Flags: HMW
LayerCount: 2
Fore
SplineSet
315 133 m 0
 290 52 208 -7 124 -8 c 0
 64 -9 23 22 -6 68 c 1
 47 117 l 1
 64 86 85 59 125 58 c 0
 172 57 229 94 243 140 c 0
 256 180 235 214 192 219 c 0
 150 223 108 203 71 189 c 1
 124 230 l 1
 155 253 196 275 236 274 c 0
 312 271 335 197 315 133 c 0
238 355 m 1
 163 236 l 1
 59 179 l 1
 200 417 l 1
 408 417 l 1
 386 356 l 1
 238 355 l 1
EndSplineSet
EndChar

StartChar: uni2086
Encoding: 8326 8326 178
Width: 343
VWidth: 0
Flags: HMW
LayerCount: 2
Fore
SplineSet
88 139 m 0
 75 101 87 56 133 54 c 0
 181 51 232 98 247 140 c 0
 260 178 249 224 203 227 c 0
 155 230 103 181 88 139 c 0
271 415 m 1
 366 415 l 1
 185 255 l 1
 170 256 l 1
 191 266 211 276 235 276 c 0
 308 275 333 200 315 139 c 0
 291 58 209 -9 124 -9 c 0
 40 -9 -5 63 20 141 c 0
 32 179 59 211 86 239 c 1
 271 415 l 1
EndSplineSet
EndChar

StartChar: uni2087
Encoding: 8327 8327 179
Width: 344
VWidth: 0
Flags: HMW
LayerCount: 2
Fore
SplineSet
92 353 m 1
 114 419 l 1
 418 419 l 1
 82 0 l 1
 3 0 l 1
 284 352 l 1
 92 353 l 1
EndSplineSet
EndChar

StartChar: uni2088
Encoding: 8328 8328 180
Width: 319
VWidth: 0
Flags: HMW
LayerCount: 2
Fore
SplineSet
94 320 m 0
 113 382 183 428 246 427 c 0
 307 426 354 380 336 318 c 0
 318 255 248 210 184 211 c 0
 121 212 75 256 94 320 c 0
157 310 m 0
 149 286 159 256 188 253 c 0
 219 250 259 285 268 313 c 0
 276 338 267 367 237 370 c 0
 206 373 167 338 157 310 c 0
10 115 m 0
 31 185 109 236 180 235 c 0
 249 235 301 183 280 113 c 0
 259 44 181 -8 110 -7 c 0
 42 -6 -10 47 10 115 c 0
82 123 m 0
 70 92 82 56 119 54 c 0
 158 52 204 89 216 124 c 0
 226 154 214 191 178 193 c 0
 140 195 94 156 82 123 c 0
EndSplineSet
EndChar

StartChar: uni2089
Encoding: 8329 8329 181
Width: 344
VWidth: 0
Flags: HMW
LayerCount: 2
Fore
SplineSet
290 281 m 0
 303 319 291 364 245 366 c 0
 197 369 146 322 131 280 c 0
 118 242 129 196 175 193 c 0
 223 190 275 239 290 281 c 0
108 5 m 1
 13 5 l 1
 194 165 l 1
 209 164 l 1
 188 154 167 143 143 144 c 0
 70 145 45 220 63 281 c 0
 87 362 170 429 255 429 c 0
 339 429 383 357 358 279 c 0
 346 241 320 209 293 181 c 1
 108 5 l 1
EndSplineSet
EndChar

StartChar: uni2081
Encoding: 8321 8321 182
Width: 313
VWidth: 0
Flags: HMW
LayerCount: 2
Fore
SplineSet
139 323 m 1
 161 390 l 1
 339 429 l 1
 191 2 l 1
 121 2 l 1
 237 346 l 1
 139 323 l 1
EndSplineSet
EndChar

StartChar: uni2082
Encoding: 8322 8322 183
Width: 349
VWidth: 0
Flags: HMW
LayerCount: 2
Fore
SplineSet
-32 4 m 1
 218 207 l 2
 248 231 289 261 301 300 c 0
 310 330 300 362 265 365 c 0
 212 370 177 314 155 275 c 1
 84 275 l 1
 119 353 181 430 275 429 c 0
 348 428 393 368 372 298 c 0
 358 251 319 215 282 185 c 2
 132 70 l 1
 297 68 l 1
 275 3 l 1
 -32 4 l 1
EndSplineSet
EndChar

StartChar: uni2083
Encoding: 8323 8323 184
Width: 315
VWidth: 0
Flags: HMW
LayerCount: 2
Fore
SplineSet
155 207 m 1
 167 243 l 1
 207 252 254 266 269 310 c 0
 278 336 269 363 240 365 c 0
 204 368 176 335 157 310 c 1
 89 311 l 1
 121 372 173 427 248 426 c 0
 312 425 359 376 339 312 c 0
 315 234 226 214 155 207 c 1
109 -7 m 0
 29 -6 -1 48 7 120 c 1
 74 120 l 1
 74 86 77 58 118 55 c 0
 156 53 202 87 213 122 c 0
 229 172 186 183 148 191 c 1
 161 230 l 1
 231 223 307 196 282 111 c 0
 261 40 181 -8 109 -7 c 0
EndSplineSet
EndChar

StartChar: Agrave
Encoding: 192 192 185
Width: 648
VWidth: 0
Flags: HMW
LayerCount: 2
Fore
SplineSet
159 181 m 1
 213 278 l 1
 523 279 l 1
 510 179 l 1
 159 181 l 1
447 501 m 1
 255 244 l 1
 245 218 l 1
 79 0 l 1
 -58 0 l 1
 522 742 l 1
 592 0 l 1
 468 0 l 1
 450 212 l 1
 459 242 l 1
 447 501 l 1
460 952 m 1
 558 994 l 1
 649 831 l 1
 584 799 l 1
 460 952 l 1
EndSplineSet
EndChar

StartChar: Aacute
Encoding: 193 193 186
Width: 648
VWidth: 0
Flags: HMW
LayerCount: 2
Fore
SplineSet
159 181 m 1
 213 278 l 1
 523 279 l 1
 510 179 l 1
 159 181 l 1
447 501 m 1
 255 244 l 1
 245 218 l 1
 79 0 l 1
 -58 0 l 1
 522 742 l 1
 592 0 l 1
 468 0 l 1
 450 212 l 1
 459 242 l 1
 447 501 l 1
730 943 m 1
 513 801 l 1
 459 838 l 1
 651 993 l 1
 730 943 l 1
EndSplineSet
EndChar

StartChar: Acircumflex
Encoding: 194 194 187
Width: 648
VWidth: 0
Flags: HMW
LayerCount: 2
Fore
SplineSet
159 181 m 1
 213 278 l 1
 523 279 l 1
 510 179 l 1
 159 181 l 1
447 501 m 1
 255 244 l 1
 245 218 l 1
 79 0 l 1
 -58 0 l 1
 522 742 l 1
 592 0 l 1
 468 0 l 1
 450 212 l 1
 459 242 l 1
 447 501 l 1
571 859 m 1
 442 770 l 1
 385 826 l 1
 594 962 l 1
 718 819 l 1
 635 769 l 1
 571 859 l 1
EndSplineSet
EndChar

StartChar: Atilde
Encoding: 195 195 188
Width: 648
VWidth: 0
Flags: HMW
LayerCount: 2
Fore
SplineSet
159 181 m 1
 213 278 l 1
 523 279 l 1
 510 179 l 1
 159 181 l 1
447 501 m 1
 255 244 l 1
 245 218 l 1
 79 0 l 1
 -58 0 l 1
 522 742 l 1
 592 0 l 1
 468 0 l 1
 450 212 l 1
 459 242 l 1
 447 501 l 1
386 836 m 1
 416 875 460 922 515 919 c 0
 556 917 578 869 619 872 c 0
 649 874 674 902 695 920 c 1
 735 862 l 1
 703 828 655 784 603 788 c 0
 563 791 540 839 499 835 c 0
 469 832 450 807 433 786 c 1
 386 836 l 1
EndSplineSet
EndChar

StartChar: Adieresis
Encoding: 196 196 189
Width: 648
VWidth: 0
Flags: HMW
LayerCount: 2
Fore
SplineSet
159 181 m 1
 213 278 l 1
 523 279 l 1
 510 179 l 1
 159 181 l 1
447 501 m 1
 255 244 l 1
 245 218 l 1
 79 0 l 1
 -58 0 l 1
 522 742 l 1
 592 0 l 1
 468 0 l 1
 450 212 l 1
 459 242 l 1
 447 501 l 1
602 844 m 0
 610 875 655 909 687 907 c 0
 721 905 742 873 734 840 c 0
 726 809 681 775 649 777 c 0
 615 779 594 811 602 844 c 0
380 847 m 0
 388 878 434 911 466 909 c 0
 500 907 521 875 513 842 c 0
 505 811 460 777 428 779 c 0
 394 781 372 814 380 847 c 0
EndSplineSet
EndChar

StartChar: Aring
Encoding: 197 197 190
Width: 648
VWidth: 0
Flags: HMW
LayerCount: 2
Fore
SplineSet
159 181 m 1
 213 278 l 1
 523 279 l 1
 510 179 l 1
 159 181 l 1
447 501 m 1
 255 244 l 1
 245 218 l 1
 79 0 l 1
 -58 0 l 1
 522 742 l 1
 592 0 l 1
 468 0 l 1
 450 212 l 1
 459 242 l 1
 447 501 l 1
437 801 m 0
 453 856 516 905 574 904 c 0
 632 903 666 852 650 797 c 0
 634 742 571 693 512 694 c 0
 454 695 421 747 437 801 c 0
497 798 m 0
 491 779 500 752 522 749 c 0
 545 746 584 779 590 800 c 0
 596 819 587 846 565 849 c 0
 542 852 503 819 497 798 c 0
EndSplineSet
EndChar

StartChar: AE
Encoding: 198 198 191
Width: 951
VWidth: 0
Flags: HMW
LayerCount: 2
Fore
SplineSet
233 186 m 1
 273 296 l 1
 559 296 l 1
 521 186 l 1
 233 186 l 1
600 700 m 1
 686 655 l 1
 94 0 l 1
 -49 0 l 1
 600 700 l 1
487 0 m 1
 522 104 l 1
 871 104 l 1
 834 0 l 1
 487 0 l 1
705 596 m 1
 600 700 l 1
 1074 700 l 1
 1038 596 l 1
 705 596 l 1
597 324 m 1
 632 426 l 1
 962 426 l 1
 926 323 l 1
 597 324 l 1
666 699 m 1
 790 700 l 1
 548 0 l 1
 429 0 l 1
 666 699 l 1
EndSplineSet
EndChar

StartChar: Ccedilla
Encoding: 199 199 192
Width: 649
VWidth: 0
Flags: HMW
LayerCount: 2
Fore
SplineSet
223 350 m 0
 183 238 219 108 355 105 c 0
 446 103 530 150 601 201 c 1
 558 61 l 1
 488 17 411 -14 327 -13 c 0
 126 -12 41 173 98 350 c 0
 160 544 350 712 559 713 c 0
 634 714 696 688 751 637 c 1
 707 497 l 1
 670 561 613 595 538 595 c 0
 398 594 269 477 223 350 c 0
309 53 m 1
 392 51 l 1
 279 -63 l 1
 284 -62 290 -62 295 -62 c 0
 338 -68 361 -105 349 -147 c 0
 333 -204 267 -243 210 -244 c 0
 170 -245 140 -227 110 -204 c 1
 160 -156 l 1
 176 -168 191 -180 213 -180 c 0
 233 -180 274 -162 279 -140 c 0
 284 -119 261 -108 245 -107 c 0
 221 -105 194 -115 171 -122 c 1
 309 53 l 1
EndSplineSet
EndChar

StartChar: Egrave
Encoding: 200 200 193
Width: 537
VWidth: 0
Flags: HMW
LayerCount: 2
Fore
SplineSet
88 0 m 1
 123 104 l 1
 460 104 l 1
 424 0 l 1
 88 0 l 1
291 596 m 1
 326 700 l 1
 662 700 l 1
 627 596 l 1
 291 596 l 1
198 324 m 1
 233 426 l 1
 550 426 l 1
 515 323 l 1
 198 324 l 1
255 699 m 1
 371 700 l 1
 130 0 l 1
 18 0 l 1
 255 699 l 1
400 928 m 1
 498 971 l 1
 589 807 l 1
 525 775 l 1
 400 928 l 1
EndSplineSet
EndChar

StartChar: Eacute
Encoding: 201 201 194
Width: 537
VWidth: 0
Flags: HMW
LayerCount: 2
Fore
SplineSet
88 0 m 1
 123 104 l 1
 460 104 l 1
 424 0 l 1
 88 0 l 1
291 596 m 1
 326 700 l 1
 662 700 l 1
 627 596 l 1
 291 596 l 1
198 324 m 1
 233 426 l 1
 550 426 l 1
 515 323 l 1
 198 324 l 1
255 699 m 1
 371 700 l 1
 130 0 l 1
 18 0 l 1
 255 699 l 1
670 920 m 1
 454 777 l 1
 400 814 l 1
 592 969 l 1
 670 920 l 1
EndSplineSet
EndChar

StartChar: Ecircumflex
Encoding: 202 202 195
Width: 537
VWidth: 0
Flags: HMW
LayerCount: 2
Fore
SplineSet
88 0 m 1
 123 104 l 1
 460 104 l 1
 424 0 l 1
 88 0 l 1
291 596 m 1
 326 700 l 1
 662 700 l 1
 627 596 l 1
 291 596 l 1
198 324 m 1
 233 426 l 1
 550 426 l 1
 515 323 l 1
 198 324 l 1
255 699 m 1
 371 700 l 1
 130 0 l 1
 18 0 l 1
 255 699 l 1
531 871 m 1
 393 778 l 1
 353 821 l 1
 548 958 l 1
 658 815 l 1
 602 778 l 1
 531 871 l 1
EndSplineSet
EndChar

StartChar: Edieresis
Encoding: 203 203 196
Width: 537
VWidth: 0
Flags: HMW
LayerCount: 2
Fore
SplineSet
88 0 m 1
 123 104 l 1
 460 104 l 1
 424 0 l 1
 88 0 l 1
291 596 m 1
 326 700 l 1
 662 700 l 1
 627 596 l 1
 291 596 l 1
198 324 m 1
 233 426 l 1
 550 426 l 1
 515 323 l 1
 198 324 l 1
255 699 m 1
 371 700 l 1
 130 0 l 1
 18 0 l 1
 255 699 l 1
554 856 m 0
 562 887 607 921 639 919 c 0
 673 917 694 884 686 851 c 0
 678 820 634 786 602 788 c 0
 568 790 546 823 554 856 c 0
349 856 m 0
 357 887 402 921 434 919 c 0
 468 917 489 884 481 851 c 0
 473 820 429 786 397 788 c 0
 363 790 341 823 349 856 c 0
EndSplineSet
EndChar

StartChar: Igrave
Encoding: 204 204 197
Width: 258
VWidth: 0
Flags: HMW
LayerCount: 2
Fore
SplineSet
255 699 m 1
 375 700 l 1
 133 0 l 1
 18 0 l 1
 255 699 l 1
254 928 m 1
 352 971 l 1
 443 807 l 1
 378 775 l 1
 254 928 l 1
EndSplineSet
EndChar

StartChar: Iacute
Encoding: 205 205 198
Width: 258
VWidth: 0
Flags: HMW
LayerCount: 2
Fore
SplineSet
255 699 m 1
 375 700 l 1
 133 0 l 1
 18 0 l 1
 255 699 l 1
523 920 m 1
 307 776 l 1
 254 814 l 1
 446 969 l 1
 523 920 l 1
EndSplineSet
EndChar

StartChar: Icircumflex
Encoding: 206 206 199
Width: 258
VWidth: 0
Flags: HMW
LayerCount: 2
Fore
SplineSet
255 699 m 1
 375 700 l 1
 133 0 l 1
 18 0 l 1
 255 699 l 1
377 871 m 1
 239 778 l 1
 200 821 l 1
 395 958 l 1
 504 815 l 1
 448 778 l 1
 377 871 l 1
EndSplineSet
EndChar

StartChar: Idieresis
Encoding: 207 207 200
Width: 258
VWidth: 0
Flags: HMW
LayerCount: 2
Fore
SplineSet
255 699 m 1
 375 700 l 1
 133 0 l 1
 18 0 l 1
 255 699 l 1
399 841 m 0
 407 872 451 906 483 904 c 0
 517 902 539 869 531 836 c 0
 523 805 478 772 446 774 c 0
 411 776 391 808 399 841 c 0
194 841 m 0
 202 872 245 906 277 904 c 0
 311 902 334 869 326 836 c 0
 318 805 273 772 241 774 c 0
 206 776 186 808 194 841 c 0
EndSplineSet
EndChar

StartChar: Ntilde
Encoding: 209 209 201
Width: 735
VWidth: 0
Flags: HMW
LayerCount: 2
Fore
SplineSet
737 700 m 1
 851 700 l 1
 600 -32 l 1
 292 470 l 1
 130 0 l 1
 15 0 l 1
 267 732 l 1
 575 230 l 1
 737 700 l 1
406 812 m 1
 436 851 479 898 534 895 c 0
 575 893 598 845 639 848 c 0
 669 850 694 878 715 896 c 1
 755 838 l 1
 723 804 674 760 622 764 c 0
 582 767 560 815 519 811 c 0
 489 808 470 783 453 762 c 1
 406 812 l 1
EndSplineSet
EndChar

StartChar: Eth
Encoding: 208 208 202
Width: 659
VWidth: 0
Flags: HMW
LayerCount: 2
Fore
SplineSet
55 308 m 1
 84 392 l 1
 389 392 l 1
 360 307 l 1
 55 308 l 1
255 699 m 1
 376 700 l 1
 134 0 l 1
 18 0 l 1
 255 699 l 1
240 0 m 0
 85 0 l 1
 125 112 l 1
 261 112 l 0
 404 117 526 217 574 350 c 0
 618 470 575 582 437 588 c 1
 286 588 l 1
 326 700 l 1
 463 700 l 0
 661 694 751 532 692 350 c 0
 629 154 448 6 240 0 c 0
EndSplineSet
EndChar

StartChar: Ograve
Encoding: 210 210 203
Width: 754
VWidth: 0
Flags: HMW
LayerCount: 2
Fore
SplineSet
221 350 m 0
 181 239 212 104 351 102 c 0
 493 100 619 224 665 350 c 0
 705 461 674 596 535 598 c 0
 393 600 267 476 221 350 c 0
98 350 m 0
 160 542 350 714 558 713 c 0
 760 712 844 527 788 350 c 0
 726 157 535 -16 326 -15 c 0
 123 -14 42 173 98 350 c 0
515 928 m 1
 613 971 l 1
 704 807 l 1
 639 775 l 1
 515 928 l 1
EndSplineSet
EndChar

StartChar: Oacute
Encoding: 211 211 204
Width: 754
VWidth: 0
Flags: HMW
LayerCount: 2
Fore
SplineSet
221 350 m 0
 181 239 212 104 351 102 c 0
 493 100 619 224 665 350 c 0
 705 461 674 596 535 598 c 0
 393 600 267 476 221 350 c 0
98 350 m 0
 160 542 350 714 558 713 c 0
 760 712 844 527 788 350 c 0
 726 157 535 -16 326 -15 c 0
 123 -14 42 173 98 350 c 0
771 920 m 1
 554 777 l 1
 500 814 l 1
 692 969 l 1
 771 920 l 1
EndSplineSet
EndChar

StartChar: Ocircumflex
Encoding: 212 212 205
Width: 754
VWidth: 0
Flags: HMW
LayerCount: 2
Fore
SplineSet
221 350 m 0
 181 239 212 104 351 102 c 0
 493 100 619 224 665 350 c 0
 705 461 674 596 535 598 c 0
 393 600 267 476 221 350 c 0
98 350 m 0
 160 542 351 714 559 713 c 0
 761 712 844 527 788 350 c 0
 726 157 535 -16 326 -15 c 0
 123 -14 42 173 98 350 c 0
632 871 m 1
 494 778 l 1
 454 821 l 1
 649 958 l 1
 759 815 l 1
 702 778 l 1
 632 871 l 1
EndSplineSet
EndChar

StartChar: Otilde
Encoding: 213 213 206
Width: 754
VWidth: 0
Flags: HMW
LayerCount: 2
Fore
SplineSet
221 350 m 0
 181 239 212 104 351 102 c 0
 493 100 619 224 665 350 c 0
 705 461 674 596 535 598 c 0
 393 600 267 476 221 350 c 0
98 350 m 0
 160 542 351 714 559 713 c 0
 761 712 844 527 788 350 c 0
 726 157 535 -16 326 -15 c 0
 123 -14 42 173 98 350 c 0
448 825 m 1
 439 865 541 903 569 902 c 0
 608 900 630 855 670 858 c 0
 698 860 722 887 741 904 c 1
 775 858 l 1
 746 827 703 785 656 789 c 0
 618 792 598 836 559 834 c 0
 529 832 508 806 491 785 c 1
 448 825 l 1
EndSplineSet
EndChar

StartChar: Odieresis
Encoding: 214 214 207
Width: 754
VWidth: 0
Flags: HMW
LayerCount: 2
Fore
SplineSet
221 350 m 0
 181 239 212 104 351 102 c 0
 493 100 619 224 665 350 c 0
 705 461 674 596 535 598 c 0
 393 600 267 476 221 350 c 0
98 350 m 0
 160 542 350 714 558 713 c 0
 760 712 844 527 788 350 c 0
 726 157 535 -16 326 -15 c 0
 123 -14 42 173 98 350 c 0
646 841 m 0
 654 872 699 906 731 904 c 0
 765 902 786 869 778 836 c 0
 770 805 726 772 694 774 c 0
 660 776 638 808 646 841 c 0
441 841 m 0
 449 872 493 906 525 904 c 0
 559 902 581 869 573 836 c 0
 565 805 521 772 489 774 c 0
 455 776 433 808 441 841 c 0
EndSplineSet
EndChar

StartChar: Ugrave
Encoding: 217 217 208
Width: 617
VWidth: 0
Flags: HMW
LayerCount: 2
Fore
SplineSet
252 700 m 1
 369 700 l 1
 207 235 l 2
 187 169 196 95 280 93 c 0
 366 91 431 161 461 235 c 1
 621 700 l 1
 738 700 l 1
 577 230 l 2
 528 95 406 -17 256 -17 c 0
 112 -17 53 100 91 230 c 0
 252 700 l 1
434 926 m 1
 533 968 l 1
 624 804 l 1
 559 773 l 1
 434 926 l 1
EndSplineSet
EndChar

StartChar: Uacute
Encoding: 218 218 209
Width: 617
VWidth: 0
Flags: HMW
LayerCount: 2
Fore
SplineSet
252 700 m 1
 369 700 l 1
 207 235 l 2
 187 169 196 95 280 93 c 0
 366 91 431 161 461 235 c 1
 621 700 l 1
 738 700 l 1
 577 230 l 2
 528 95 406 -17 256 -17 c 0
 112 -17 53 100 91 230 c 0
 252 700 l 1
706 917 m 1
 489 774 l 1
 435 812 l 1
 628 966 l 1
 706 917 l 1
EndSplineSet
EndChar

StartChar: Ucircumflex
Encoding: 219 219 210
Width: 617
VWidth: 0
Flags: HMW
LayerCount: 2
Fore
SplineSet
252 700 m 1
 369 700 l 1
 207 235 l 2
 187 169 196 95 280 93 c 0
 366 91 431 161 461 235 c 1
 621 700 l 1
 738 700 l 1
 577 230 l 2
 528 95 406 -17 256 -17 c 0
 112 -17 53 100 91 230 c 0
 252 700 l 1
556 862 m 1
 427 773 l 1
 371 829 l 1
 579 965 l 1
 703 822 l 1
 620 773 l 1
 556 862 l 1
EndSplineSet
EndChar

StartChar: Udieresis
Encoding: 220 220 211
Width: 617
VWidth: 0
Flags: HMW
LayerCount: 2
Fore
SplineSet
252 700 m 1
 369 700 l 1
 207 235 l 2
 187 169 196 95 280 93 c 0
 366 91 431 161 461 235 c 1
 621 700 l 1
 738 700 l 1
 577 230 l 2
 528 95 406 -17 256 -17 c 0
 112 -17 53 100 91 230 c 0
 252 700 l 1
585 841 m 0
 593 872 637 906 669 904 c 0
 703 902 725 869 717 836 c 0
 709 805 665 772 633 774 c 0
 599 776 577 808 585 841 c 0
365 841 m 0
 373 872 418 906 450 904 c 0
 484 902 505 869 497 836 c 0
 489 805 444 772 412 774 c 0
 378 776 357 808 365 841 c 0
EndSplineSet
EndChar

StartChar: Yacute
Encoding: 221 221 212
Width: 565
VWidth: 0
Flags: HMW
LayerCount: 2
Fore
SplineSet
680 917 m 1
 463 774 l 1
 410 812 l 1
 602 966 l 1
 680 917 l 1
616 699 m 1
 755 699 l 1
 387 289 l 1
 287 0 l 1
 169 0 l 1
 274 301 l 1
 189 700 l 1
 314 700 l 1
 363 405 l 1
 616 699 l 1
EndSplineSet
EndChar

StartChar: agrave
Encoding: 224 224 213
Width: 478
VWidth: 0
Flags: HMW
LayerCount: 2
Fore
SplineSet
122 136 m 0
 109 96 137 76 174 74 c 0
 248 70 298 123 333 182 c 1
 331 128 l 1
 291 48 221 -9 128 -9 c 0
 48 -9 -11 45 13 127 c 0
 42 225 149 282 247 282 c 0
 301 282 344 264 381 226 c 1
 363 171 l 1
 330 198 296 214 252 213 c 0
 203 212 139 188 122 136 c 0
171 338 m 1
 152 419 l 1
 212 448 276 472 344 471 c 0
 430 470 508 423 484 327 c 1
 372 0 l 1
 267 0 l 1
 379 315 l 1
 382 356 365 378 321 381 c 0
 269 384 217 359 171 338 c 1
266 684 m 1
 365 727 l 1
 456 563 l 1
 391 531 l 1
 266 684 l 1
EndSplineSet
Substitution2: "alt a" agrave.alt
EndChar

StartChar: aacute
Encoding: 225 225 214
Width: 478
VWidth: 0
Flags: HMW
LayerCount: 2
Fore
SplineSet
122 136 m 0
 109 96 137 76 174 74 c 0
 248 70 298 123 333 182 c 1
 331 128 l 1
 291 48 221 -9 128 -9 c 0
 48 -9 -11 45 13 127 c 0
 42 225 149 282 247 282 c 0
 301 282 344 264 381 226 c 1
 363 171 l 1
 330 198 296 214 252 213 c 0
 203 212 139 188 122 136 c 0
171 338 m 1
 152 419 l 1
 212 448 276 472 344 471 c 0
 430 470 508 423 484 327 c 1
 372 0 l 1
 267 0 l 1
 379 315 l 1
 382 356 365 378 321 381 c 0
 269 384 217 359 171 338 c 1
579 676 m 1
 363 533 l 1
 309 570 l 1
 502 725 l 1
 579 676 l 1
EndSplineSet
Substitution2: "alt a" aacute.alt
EndChar

StartChar: acircumflex
Encoding: 226 226 215
Width: 478
VWidth: 0
Flags: HMW
LayerCount: 2
Fore
SplineSet
122 136 m 0
 109 96 137 76 174 74 c 0
 248 70 298 123 333 182 c 1
 331 128 l 1
 291 48 221 -9 128 -9 c 0
 48 -9 -11 45 13 127 c 0
 42 225 149 282 247 282 c 0
 301 282 344 264 381 226 c 1
 363 171 l 1
 330 198 296 214 252 213 c 0
 203 212 139 188 122 136 c 0
171 338 m 1
 152 419 l 1
 212 448 276 472 344 471 c 0
 430 470 508 423 484 327 c 1
 372 0 l 1
 267 0 l 1
 379 315 l 1
 382 356 365 378 321 381 c 0
 269 384 217 359 171 338 c 1
409 621 m 1
 280 532 l 1
 223 588 l 1
 432 724 l 1
 556 581 l 1
 473 532 l 1
 409 621 l 1
EndSplineSet
Substitution2: "alt a" acircumflex.alt
EndChar

StartChar: atilde
Encoding: 227 227 216
Width: 478
VWidth: 0
Flags: HMW
LayerCount: 2
Fore
SplineSet
122 136 m 0
 109 96 137 76 174 74 c 0
 248 70 298 123 333 182 c 1
 331 128 l 1
 291 48 221 -9 128 -9 c 0
 48 -9 -11 45 13 127 c 0
 42 225 149 282 247 282 c 0
 301 282 344 264 381 226 c 1
 363 171 l 1
 330 198 296 214 252 213 c 0
 203 212 139 188 122 136 c 0
171 338 m 1
 152 419 l 1
 212 448 276 472 344 471 c 0
 430 470 508 423 484 327 c 1
 372 0 l 1
 267 0 l 1
 379 315 l 1
 382 356 365 378 321 381 c 0
 269 384 217 359 171 338 c 1
219 583 m 1
 249 622 293 669 348 666 c 0
 389 664 412 616 453 619 c 0
 483 621 507 650 528 668 c 1
 568 609 l 1
 536 575 488 531 436 535 c 0
 396 538 373 587 332 583 c 0
 302 580 283 555 266 534 c 1
 219 583 l 1
EndSplineSet
Substitution2: "alt a" atilde.alt
EndChar

StartChar: adieresis
Encoding: 228 228 217
Width: 478
VWidth: 0
Flags: HMW
LayerCount: 2
Fore
SplineSet
122 136 m 0
 109 96 137 76 174 74 c 0
 248 70 298 123 333 182 c 1
 331 128 l 1
 291 48 221 -9 128 -9 c 0
 48 -9 -11 45 13 127 c 0
 42 225 149 282 247 282 c 0
 301 282 344 264 381 226 c 1
 363 171 l 1
 330 198 296 214 252 213 c 0
 203 212 139 188 122 136 c 0
171 338 m 1
 152 419 l 1
 212 448 276 472 344 471 c 0
 430 470 508 423 484 327 c 1
 372 0 l 1
 267 0 l 1
 379 315 l 1
 382 356 365 378 321 381 c 0
 269 384 217 359 171 338 c 1
431 600 m 0
 439 631 483 664 515 662 c 0
 549 660 571 628 563 595 c 0
 555 564 510 530 478 532 c 0
 444 534 423 567 431 600 c 0
226 600 m 0
 234 631 278 664 310 662 c 0
 344 660 365 628 357 595 c 0
 349 564 305 530 273 532 c 0
 239 534 218 567 226 600 c 0
EndSplineSet
Substitution2: "alt a" adieresis.alt
EndChar

StartChar: aring
Encoding: 229 229 218
Width: 478
VWidth: 0
Flags: HMW
LayerCount: 2
Fore
SplineSet
122 136 m 0
 109 96 137 76 174 74 c 0
 248 70 298 123 333 182 c 1
 331 128 l 1
 291 48 221 -9 128 -9 c 0
 48 -9 -11 45 13 127 c 0
 42 225 149 282 247 282 c 0
 301 282 344 264 381 226 c 1
 363 171 l 1
 330 198 296 214 252 213 c 0
 203 212 139 188 122 136 c 0
171 338 m 1
 152 419 l 1
 212 448 276 472 344 471 c 0
 430 470 508 423 484 327 c 1
 372 0 l 1
 267 0 l 1
 379 315 l 1
 382 356 365 378 321 381 c 0
 269 384 217 359 171 338 c 1
301 640 m 0
 317 695 380 744 438 743 c 0
 496 742 531 691 515 636 c 0
 499 581 436 531 377 532 c 0
 319 533 285 586 301 640 c 0
361 636 m 0
 355 617 364 591 386 588 c 0
 409 585 448 618 454 639 c 0
 460 658 451 685 429 688 c 0
 406 691 367 657 361 636 c 0
EndSplineSet
Substitution2: "alt a" aring.alt
EndChar

StartChar: germandbls
Encoding: 223 223 219
Width: 544
VWidth: 0
Flags: HMW
LayerCount: 2
Fore
SplineSet
233 90 m 1
 320 105 404 156 435 243 c 0
 467 333 402 377 322 389 c 1
 345 463 l 1
 478 453 580 366 535 224 c 0
 489 77 347 2 202 -9 c 1
 233 90 l 1
332 421 m 1
 353 490 l 1
 419 499 493 521 517 591 c 0
 536 644 510 690 452 691 c 0
 392 692 339 653 320 598 c 2
 113 0 l 1
 8 0 l 1
 215 607 l 2
 252 714 351 792 473 792 c 0
 583 792 660 716 626 605 c 0
 585 473 458 428 332 421 c 1
EndSplineSet
EndChar

StartChar: ae
Encoding: 230 230 220
Width: 803
VWidth: 0
Flags: HMW
LayerCount: 2
Fore
SplineSet
121 136 m 0
 108 96 136 76 173 74 c 0
 247 70 296 123 329 182 c 1
 370 127 l 1
 326 40 247 -9 149 -9 c 0
 67 -9 -14 34 13 127 c 0
 41 225 149 282 247 282 c 0
 301 282 344 264 381 226 c 1
 363 171 l 1
 330 198 295 214 251 213 c 0
 202 212 138 188 121 136 c 0
171 338 m 1
 152 419 l 1
 211 448 276 472 344 471 c 0
 434 469 476 415 453 327 c 1
 387 131 l 1
 313 131 l 1
 377 308 l 1
 386 349 364 377 322 381 c 0
 271 386 216 359 171 338 c 1
403 206 m 1
 427 279 l 1
 795 280 l 1
 788 205 l 1
 403 206 l 1
693 247 m 2
 711 304 716 382 638 386 c 0
 560 390 501 321 470 257 c 2
 457 230 l 1
 434 166 437 84 521 80 c 0
 579 77 629 116 671 151 c 1
 754 111 l 1
 686 42 600 -11 500 -9 c 0
 369 -6 325 119 369 230 c 0
 376 247 386 263 395 279 c 0
 453 378 544 470 668 469 c 0
 800 468 830 343 800 235 c 0
 797 225 794 216 790 206 c 1
 685 226 l 1
 693 247 l 2
EndSplineSet
EndChar

StartChar: ccedilla
Encoding: 231 231 221
Width: 454
VWidth: 0
Flags: HMW
LayerCount: 2
Fore
SplineSet
158 230 m 0
 133 163 156 88 236 85 c 0
 301 82 361 119 409 159 c 1
 373 41 l 1
 325 11 271 -9 213 -9 c 0
 79 -8 12 107 50 230 c 0
 91 362 222 468 362 469 c 0
 415 469 458 452 497 418 c 1
 460 299 l 1
 440 349 405 376 350 375 c 0
 267 374 186 306 158 230 c 0
197 58 m 1
 279 56 l 1
 168 -58 l 1
 173 -57 178 -57 183 -57 c 0
 226 -63 248 -100 236 -142 c 0
 220 -199 154 -238 97 -239 c 0
 57 -240 27 -222 -3 -199 c 1
 48 -151 l 1
 64 -163 78 -175 100 -175 c 0
 120 -175 163 -157 168 -135 c 0
 173 -114 148 -103 132 -102 c 0
 108 -100 81 -110 58 -117 c 1
 197 58 l 1
EndSplineSet
EndChar

StartChar: egrave
Encoding: 232 232 222
Width: 506
VWidth: 0
Flags: HMW
LayerCount: 2
Fore
SplineSet
109 206 m 1
 133 279 l 1
 402 280 l 1
 410 332 405 383 341 386 c 0
 263 389 204 321 173 257 c 2
 160 230 l 1
 137 166 141 84 224 80 c 0
 282 77 332 116 374 151 c 1
 457 111 l 1
 388 42 303 -10 203 -9 c 0
 68 -7 19 112 54 230 c 0
 59 247 65 263 73 279 c 0
 125 385 235 470 357 469 c 0
 495 468 536 353 503 235 c 0
 500 225 498 216 494 206 c 1
 109 206 l 1
297 691 m 1
 395 733 l 1
 486 570 l 1
 422 538 l 1
 297 691 l 1
EndSplineSet
EndChar

StartChar: eacute
Encoding: 233 233 223
Width: 506
VWidth: 0
Flags: HMW
LayerCount: 2
Fore
SplineSet
109 206 m 1
 133 279 l 1
 402 280 l 1
 410 332 405 383 341 386 c 0
 263 389 204 321 173 257 c 2
 160 230 l 1
 137 166 141 84 224 80 c 0
 282 77 332 116 374 151 c 1
 457 111 l 1
 388 42 303 -10 203 -9 c 0
 68 -7 19 112 54 230 c 0
 59 247 65 263 73 279 c 0
 125 385 235 470 357 469 c 0
 495 468 536 353 503 235 c 0
 500 225 498 216 494 206 c 1
 109 206 l 1
596 682 m 1
 379 539 l 1
 326 577 l 1
 517 732 l 1
 596 682 l 1
EndSplineSet
EndChar

StartChar: ecircumflex
Encoding: 234 234 224
Width: 506
VWidth: 0
Flags: HMW
LayerCount: 2
Fore
SplineSet
109 206 m 1
 133 279 l 1
 402 280 l 1
 410 332 405 383 341 386 c 0
 263 389 204 321 173 257 c 2
 160 230 l 1
 137 166 141 84 224 80 c 0
 282 77 332 116 374 151 c 1
 457 111 l 1
 388 42 303 -10 203 -9 c 0
 68 -7 19 112 54 230 c 0
 59 247 65 263 73 279 c 0
 125 385 235 470 357 469 c 0
 495 468 536 353 503 235 c 0
 500 225 498 216 494 206 c 1
 109 206 l 1
422 620 m 1
 294 531 l 1
 237 587 l 1
 446 723 l 1
 569 580 l 1
 487 530 l 1
 422 620 l 1
EndSplineSet
EndChar

StartChar: edieresis
Encoding: 235 235 225
Width: 506
VWidth: 0
Flags: HMW
LayerCount: 2
Fore
SplineSet
109 206 m 1
 133 279 l 1
 402 280 l 1
 410 332 405 383 341 386 c 0
 263 389 204 321 173 257 c 2
 160 230 l 1
 137 166 141 84 224 80 c 0
 282 77 332 116 374 151 c 1
 457 111 l 1
 388 42 303 -10 203 -9 c 0
 68 -7 19 112 54 230 c 0
 59 247 65 263 73 279 c 0
 125 385 235 470 357 469 c 0
 495 468 536 353 503 235 c 0
 500 225 498 216 494 206 c 1
 109 206 l 1
444 599 m 0
 452 630 496 663 528 661 c 0
 562 659 584 627 576 594 c 0
 568 563 524 529 492 531 c 0
 458 533 436 566 444 599 c 0
239 599 m 0
 247 630 291 663 323 661 c 0
 357 659 379 627 371 594 c 0
 363 563 318 529 286 531 c 0
 252 533 231 566 239 599 c 0
EndSplineSet
EndChar

StartChar: igrave
Encoding: 236 236 226
Width: 250
VWidth: 0
Flags: HMW
LayerCount: 2
Fore
SplineSet
174 459 m 1
 282 460 l 1
 122 0 l 1
 20 0 l 1
 174 459 l 1
149 698 m 1
 248 741 l 1
 339 577 l 1
 274 545 l 1
 149 698 l 1
EndSplineSet
EndChar

StartChar: dotlessi
Encoding: 305 305 227
Width: 250
VWidth: 0
Flags: HMW
LayerCount: 2
Fore
SplineSet
174 459 m 1
 282 460 l 1
 122 0 l 1
 20 0 l 1
 174 459 l 1
EndSplineSet
EndChar

StartChar: kgreenlandic
Encoding: 312 312 228
Width: 466
VWidth: 0
Flags: HMW
LayerCount: 2
Fore
SplineSet
161 459 m 1
 268 460 l 1
 108 0 l 1
 6 0 l 1
 161 459 l 1
417 459 m 1
 556 459 l 1
 296 265 l 1
 407 0 l 1
 289 0 l 1
 172 276 l 1
 417 459 l 1
EndSplineSet
EndChar

StartChar: iacute
Encoding: 237 237 229
Width: 250
VWidth: 0
Flags: HMW
LayerCount: 2
Fore
SplineSet
174 459 m 1
 282 460 l 1
 122 0 l 1
 20 0 l 1
 174 459 l 1
465 690 m 1
 249 547 l 1
 195 584 l 1
 387 739 l 1
 465 690 l 1
EndSplineSet
EndChar

StartChar: icircumflex
Encoding: 238 238 230
Width: 250
VWidth: 0
Flags: HMW
LayerCount: 2
Fore
SplineSet
174 459 m 1
 282 460 l 1
 122 0 l 1
 20 0 l 1
 174 459 l 1
292 627 m 1
 163 538 l 1
 107 595 l 1
 315 731 l 1
 439 587 l 1
 357 538 l 1
 292 627 l 1
EndSplineSet
EndChar

StartChar: idieresis
Encoding: 239 239 231
Width: 250
VWidth: 0
Flags: HMW
LayerCount: 2
Fore
SplineSet
174 459 m 1
 282 460 l 1
 122 0 l 1
 20 0 l 1
 174 459 l 1
319 621 m 0
 327 652 371 686 403 684 c 0
 437 682 459 649 451 616 c 0
 443 585 399 552 367 554 c 0
 333 556 311 588 319 621 c 0
114 621 m 0
 122 652 166 686 198 684 c 0
 232 682 254 649 246 616 c 0
 238 585 194 552 162 554 c 0
 128 556 106 588 114 621 c 0
EndSplineSet
EndChar

StartChar: ntilde
Encoding: 241 241 232
Width: 512
VWidth: 0
Flags: HMW
LayerCount: 2
Fore
SplineSet
273 460 m 1
 114 0 l 1
 7 0 l 1
 166 460 l 1
 273 460 l 1
385 280 m 1
 398 322 404 377 346 381 c 0
 284 385 238 329 210 282 c 1
 176 279 l 1
 215 370 287 469 397 470 c 0
 503 471 520 378 495 293 c 1
 395 0 l 1
 288 0 l 1
 385 280 l 1
232 582 m 1
 262 621 305 668 360 665 c 0
 401 663 424 615 465 618 c 0
 495 620 519 648 540 666 c 1
 580 608 l 1
 547 574 500 530 448 534 c 0
 408 537 386 586 345 582 c 0
 315 579 295 554 278 533 c 1
 232 582 l 1
EndSplineSet
EndChar

StartChar: ograve
Encoding: 242 242 233
Width: 529
VWidth: 0
Flags: HMW
LayerCount: 2
Fore
SplineSet
53 230 m 0
 94 360 225 470 364 470 c 0
 498 470 564 352 526 230 c 0
 485 100 354 -9 215 -9 c 0
 81 -9 15 108 53 230 c 0
162 230 m 0
 139 167 155 89 234 87 c 0
 315 85 391 158 417 230 c 0
 440 293 424 372 345 374 c 0
 264 376 188 302 162 230 c 0
297 698 m 1
 395 741 l 1
 486 577 l 1
 422 545 l 1
 297 698 l 1
EndSplineSet
EndChar

StartChar: oacute
Encoding: 243 243 234
Width: 529
VWidth: 0
Flags: HMW
LayerCount: 2
Fore
SplineSet
53 230 m 0
 94 360 225 470 364 470 c 0
 498 470 564 352 526 230 c 0
 485 100 354 -9 215 -9 c 0
 81 -9 15 108 53 230 c 0
162 230 m 0
 139 167 155 89 234 87 c 0
 315 85 391 158 417 230 c 0
 440 293 424 372 345 374 c 0
 264 376 188 302 162 230 c 0
600 690 m 1
 384 547 l 1
 330 584 l 1
 522 739 l 1
 600 690 l 1
EndSplineSet
EndChar

StartChar: ocircumflex
Encoding: 244 244 235
Width: 529
VWidth: 0
Flags: HMW
LayerCount: 2
Fore
SplineSet
53 230 m 0
 94 360 225 470 364 470 c 0
 498 470 564 352 526 230 c 0
 485 100 354 -9 215 -9 c 0
 81 -9 15 108 53 230 c 0
162 230 m 0
 139 167 155 89 234 87 c 0
 315 85 391 158 417 230 c 0
 440 293 424 372 345 374 c 0
 264 376 188 302 162 230 c 0
434 635 m 1
 306 546 l 1
 249 602 l 1
 458 738 l 1
 581 595 l 1
 499 545 l 1
 434 635 l 1
EndSplineSet
EndChar

StartChar: otilde
Encoding: 245 245 236
Width: 529
VWidth: 0
Flags: HMW
LayerCount: 2
Fore
SplineSet
53 230 m 0
 94 360 225 470 364 470 c 0
 498 470 564 352 526 230 c 0
 485 100 354 -9 215 -9 c 0
 81 -9 15 108 53 230 c 0
162 230 m 0
 139 167 155 89 234 87 c 0
 315 85 391 158 417 230 c 0
 440 293 424 372 345 374 c 0
 264 376 188 302 162 230 c 0
240 582 m 1
 231 625 337 666 368 665 c 0
 409 663 431 615 473 618 c 0
 503 620 527 648 548 666 c 1
 589 608 l 1
 557 574 509 530 457 534 c 0
 417 537 394 586 353 582 c 0
 323 579 304 554 287 533 c 1
 240 582 l 1
EndSplineSet
EndChar

StartChar: odieresis
Encoding: 246 246 237
Width: 529
VWidth: 0
Flags: HMW
LayerCount: 2
Fore
SplineSet
53 230 m 0
 94 360 225 470 364 470 c 0
 498 470 564 352 526 230 c 0
 485 100 354 -9 215 -9 c 0
 81 -9 15 108 53 230 c 0
162 230 m 0
 139 167 155 89 234 87 c 0
 315 85 391 158 417 230 c 0
 440 293 424 372 345 374 c 0
 264 376 188 302 162 230 c 0
459 621 m 0
 467 652 511 686 543 684 c 0
 577 682 598 649 590 616 c 0
 582 585 538 552 506 554 c 0
 472 556 451 588 459 621 c 0
254 621 m 0
 262 652 306 686 338 684 c 0
 372 682 393 649 385 616 c 0
 377 585 333 552 301 554 c 0
 267 556 246 588 254 621 c 0
EndSplineSet
EndChar

StartChar: ugrave
Encoding: 249 249 238
Width: 512
VWidth: 0
Flags: HMW
LayerCount: 2
Fore
SplineSet
288 0 m 1
 447 460 l 1
 555 460 l 1
 396 0 l 1
 288 0 l 1
177 180 m 1
 164 138 159 83 216 79 c 0
 278 75 323 131 351 178 c 1
 387 181 l 1
 348 90 275 -9 165 -10 c 0
 59 -11 41 82 66 167 c 1
 167 460 l 1
 273 459 l 1
 177 180 l 1
316 698 m 1
 415 741 l 1
 506 577 l 1
 440 545 l 1
 316 698 l 1
EndSplineSet
EndChar

StartChar: uacute
Encoding: 250 250 239
Width: 512
VWidth: 0
Flags: HMW
LayerCount: 2
Fore
SplineSet
288 0 m 1
 447 460 l 1
 555 460 l 1
 396 0 l 1
 288 0 l 1
177 180 m 1
 164 138 159 83 216 79 c 0
 278 75 323 131 351 178 c 1
 387 181 l 1
 348 90 275 -9 165 -10 c 0
 59 -11 41 82 66 167 c 1
 167 460 l 1
 273 459 l 1
 177 180 l 1
563 690 m 1
 347 546 l 1
 294 584 l 1
 486 739 l 1
 563 690 l 1
EndSplineSet
EndChar

StartChar: ucircumflex
Encoding: 251 251 240
Width: 512
VWidth: 0
Flags: HMW
LayerCount: 2
Fore
SplineSet
288 0 m 1
 447 460 l 1
 555 460 l 1
 396 0 l 1
 288 0 l 1
177 180 m 1
 164 138 159 83 216 79 c 0
 278 75 323 131 351 178 c 1
 387 181 l 1
 348 90 275 -9 165 -10 c 0
 59 -11 41 82 66 167 c 1
 167 460 l 1
 273 459 l 1
 177 180 l 1
425 635 m 1
 297 546 l 1
 239 602 l 1
 449 738 l 1
 572 595 l 1
 490 545 l 1
 425 635 l 1
EndSplineSet
EndChar

StartChar: udieresis
Encoding: 252 252 241
Width: 512
VWidth: 0
Flags: HMW
LayerCount: 2
Fore
SplineSet
288 0 m 1
 447 460 l 1
 555 460 l 1
 396 0 l 1
 288 0 l 1
177 180 m 1
 164 138 159 83 216 79 c 0
 278 75 323 131 351 178 c 1
 387 181 l 1
 348 90 275 -9 165 -10 c 0
 59 -11 41 82 66 167 c 1
 167 460 l 1
 273 459 l 1
 177 180 l 1
448 613 m 0
 456 644 500 678 532 676 c 0
 566 674 588 642 580 609 c 0
 572 578 527 544 495 546 c 0
 460 548 440 580 448 613 c 0
243 613 m 0
 251 644 295 678 327 676 c 0
 361 674 382 642 374 609 c 0
 366 578 322 544 290 546 c 0
 255 548 235 580 243 613 c 0
EndSplineSet
EndChar

StartChar: yacute
Encoding: 253 253 242
Width: 444
VWidth: 0
Flags: HMW
LayerCount: 2
Fore
SplineSet
558 459 m 1
 41 -219 l 1
 -77 -219 l 1
 137 60 l 1
 101 460 l 1
 216 460 l 1
 230 96 l 1
 179 100 l 1
 438 459 l 1
 558 459 l 1
541 690 m 1
 325 547 l 1
 272 584 l 1
 464 739 l 1
 541 690 l 1
EndSplineSet
EndChar

StartChar: thorn
Encoding: 254 254 243
Width: 553
VWidth: 0
Flags: HMW
LayerCount: 2
Fore
SplineSet
38 -219 m 1
 -72 -220 l 1
 272 780 l 1
 377 779 l 1
 38 -219 l 1
549 230 m 0
 511 109 396 -11 262 -10 c 0
 130 -9 118 131 150 230 c 0
 186 344 281 468 411 469 c 0
 544 470 584 340 549 230 c 0
440 230 m 0
 463 293 447 374 367 375 c 0
 288 376 215 299 189 230 c 0
 168 171 179 89 255 85 c 0
 337 81 414 159 440 230 c 0
EndSplineSet
EndChar

StartChar: ydieresis
Encoding: 255 255 244
Width: 444
VWidth: 0
Flags: HMW
LayerCount: 2
Fore
SplineSet
558 459 m 1
 41 -219 l 1
 -77 -219 l 1
 137 60 l 1
 101 460 l 1
 216 460 l 1
 230 96 l 1
 179 100 l 1
 438 459 l 1
 558 459 l 1
409 599 m 0
 417 630 461 663 493 661 c 0
 527 659 548 627 540 594 c 0
 532 563 488 529 456 531 c 0
 422 533 401 566 409 599 c 0
204 599 m 0
 212 630 256 663 288 661 c 0
 322 659 343 627 335 594 c 0
 327 563 283 529 251 531 c 0
 217 533 196 566 204 599 c 0
EndSplineSet
EndChar

StartChar: Amacron
Encoding: 256 256 245
Width: 648
VWidth: 0
Flags: HMW
LayerCount: 2
Fore
SplineSet
159 181 m 1
 213 278 l 1
 523 279 l 1
 510 179 l 1
 159 181 l 1
447 501 m 1
 255 244 l 1
 245 218 l 1
 79 0 l 1
 -58 0 l 1
 522 742 l 1
 592 0 l 1
 468 0 l 1
 450 212 l 1
 459 242 l 1
 447 501 l 1
374 800 m 1
 407 897 l 1
 749 897 l 1
 716 799 l 1
 374 800 l 1
EndSplineSet
EndChar

StartChar: amacron
Encoding: 257 257 246
Width: 478
VWidth: 0
Flags: HMW
LayerCount: 2
Fore
SplineSet
122 136 m 0
 109 96 137 76 174 74 c 0
 248 70 298 123 333 182 c 1
 331 128 l 1
 291 48 221 -9 128 -9 c 0
 48 -9 -11 45 13 127 c 0
 42 225 149 282 247 282 c 0
 301 282 344 264 381 226 c 1
 363 171 l 1
 330 198 296 214 252 213 c 0
 203 212 139 188 122 136 c 0
171 338 m 1
 152 419 l 1
 212 448 276 472 344 471 c 0
 430 470 508 423 484 327 c 1
 372 0 l 1
 267 0 l 1
 379 315 l 1
 382 356 365 378 321 381 c 0
 269 384 217 359 171 338 c 1
207 547 m 1
 240 644 l 1
 582 644 l 1
 549 546 l 1
 207 547 l 1
EndSplineSet
Substitution2: "alt a" amacron.alt
EndChar

StartChar: breve
Encoding: 728 728 247
Width: 513
VWidth: 0
Flags: HMW
LayerCount: 2
Fore
SplineSet
331 850 m 1
 408 850 l 1
 407 815 415 784 457 782 c 0
 502 780 532 815 554 849 c 1
 636 848 l 1
 602 770 538 708 447 708 c 0
 359 708 322 769 331 850 c 1
EndSplineSet
EndChar

StartChar: Abreve
Encoding: 258 258 248
Width: 648
VWidth: 0
Flags: HMW
LayerCount: 2
Fore
SplineSet
159 181 m 1
 213 278 l 1
 523 279 l 1
 510 179 l 1
 159 181 l 1
447 501 m 1
 255 244 l 1
 245 218 l 1
 79 0 l 1
 -58 0 l 1
 522 742 l 1
 592 0 l 1
 468 0 l 1
 450 212 l 1
 459 242 l 1
 447 501 l 1
439 941 m 1
 516 941 l 1
 514 906 519 876 561 874 c 0
 606 872 637 907 661 940 c 1
 744 939 l 1
 707 861 641 800 550 800 c 0
 461 800 428 861 439 941 c 1
EndSplineSet
EndChar

StartChar: abreve
Encoding: 259 259 249
Width: 478
VWidth: 0
Flags: HMW
LayerCount: 2
Fore
SplineSet
122 136 m 0
 109 96 137 76 174 74 c 0
 248 70 298 123 333 182 c 1
 331 128 l 1
 291 48 221 -9 128 -9 c 0
 48 -9 -11 45 13 127 c 0
 42 225 149 282 247 282 c 0
 301 282 344 264 381 226 c 1
 363 171 l 1
 330 198 296 214 252 213 c 0
 203 212 139 188 122 136 c 0
171 338 m 1
 152 419 l 1
 212 448 276 472 344 471 c 0
 430 470 508 423 484 327 c 1
 372 0 l 1
 267 0 l 1
 379 315 l 1
 382 356 365 378 321 381 c 0
 269 384 217 359 171 338 c 1
266 674 m 1
 344 673 l 1
 342 638 347 608 389 606 c 0
 434 604 465 640 489 673 c 1
 572 672 l 1
 535 595 469 532 378 532 c 0
 289 532 255 594 266 674 c 1
EndSplineSet
Substitution2: "alt a" abreve.alt
EndChar

StartChar: Aogonek
Encoding: 260 260 250
Width: 648
VWidth: 0
Flags: HMW
LayerCount: 2
Fore
SplineSet
159 181 m 1
 213 278 l 1
 523 279 l 1
 510 179 l 1
 159 181 l 1
447 501 m 1
 255 244 l 1
 245 218 l 1
 79 0 l 1
 -58 0 l 1
 522 742 l 1
 592 0 l 1
 468 0 l 1
 450 212 l 1
 459 242 l 1
 447 501 l 1
535 -122 m 1
 549 -183 l 1
 519 -203 488 -219 452 -219 c 0
 393 -220 350 -180 367 -119 c 0
 388 -45 476 -6 539 24 c 1
 576 0 l 1
 537 -24 472 -49 458 -98 c 0
 453 -117 457 -137 479 -141 c 0
 497 -144 520 -130 535 -122 c 1
EndSplineSet
EndChar

StartChar: aogonek
Encoding: 261 261 251
Width: 478
VWidth: 0
Flags: HMW
LayerCount: 2
Fore
SplineSet
122 136 m 0
 111 97 139 76 174 74 c 0
 248 70 298 124 333 182 c 1
 331 128 l 1
 291 48 221 -9 128 -9 c 0
 46 -9 -10 50 14 132 c 0
 43 230 150 282 247 282 c 0
 301 282 344 264 381 226 c 1
 363 171 l 1
 330 198 296 214 252 213 c 0
 203 212 137 188 122 136 c 0
171 338 m 1
 152 419 l 1
 212 448 276 472 344 471 c 0
 430 470 508 423 484 327 c 1
 372 0 l 1
 267 0 l 1
 379 315 l 1
 382 356 365 378 321 381 c 0
 269 384 217 359 171 338 c 1
320 -122 m 1
 334 -183 l 1
 304 -203 274 -219 238 -219 c 0
 179 -220 134 -180 151 -119 c 0
 172 -45 261 -6 324 24 c 1
 360 0 l 1
 321 -24 257 -49 243 -98 c 0
 238 -117 242 -137 264 -141 c 0
 282 -144 305 -130 320 -122 c 1
EndSplineSet
Substitution2: "alt a" aogonek.alt
EndChar

StartChar: Cacute
Encoding: 262 262 252
Width: 649
VWidth: 0
Flags: HMW
LayerCount: 2
Fore
SplineSet
223 350 m 0
 183 238 219 108 355 105 c 0
 446 103 530 150 601 201 c 1
 558 61 l 1
 488 17 411 -14 327 -13 c 0
 126 -12 41 173 98 350 c 0
 160 544 350 712 559 713 c 0
 634 714 696 688 751 637 c 1
 707 497 l 1
 670 561 613 595 538 595 c 0
 398 594 269 477 223 350 c 0
762 917 m 1
 546 774 l 1
 492 812 l 1
 684 966 l 1
 762 917 l 1
EndSplineSet
EndChar

StartChar: cacute
Encoding: 263 263 253
Width: 454
VWidth: 0
Flags: HMW
LayerCount: 2
Fore
SplineSet
158 230 m 0
 133 163 156 88 236 85 c 0
 301 82 361 119 409 159 c 1
 373 41 l 1
 325 11 271 -9 213 -9 c 0
 79 -8 12 107 50 230 c 0
 91 362 222 468 362 469 c 0
 415 469 458 452 497 418 c 1
 460 299 l 1
 440 349 405 376 350 375 c 0
 267 374 186 306 158 230 c 0
565 675 m 1
 349 532 l 1
 295 569 l 1
 487 724 l 1
 565 675 l 1
EndSplineSet
EndChar

StartChar: Ccircumflex
Encoding: 264 264 254
Width: 649
VWidth: 0
Flags: HMW
LayerCount: 2
Fore
SplineSet
223 350 m 0
 183 238 219 108 355 105 c 0
 446 103 530 150 601 201 c 1
 558 61 l 1
 488 17 411 -14 327 -13 c 0
 126 -12 41 173 98 350 c 0
 160 544 350 712 559 713 c 0
 634 714 696 688 751 637 c 1
 707 497 l 1
 670 561 613 595 538 595 c 0
 398 594 269 477 223 350 c 0
624 862 m 1
 496 773 l 1
 439 829 l 1
 648 965 l 1
 771 822 l 1
 689 773 l 1
 624 862 l 1
EndSplineSet
EndChar

StartChar: ccircumflex
Encoding: 265 265 255
Width: 454
VWidth: 0
Flags: HMW
LayerCount: 2
Fore
SplineSet
158 230 m 0
 133 163 156 88 236 85 c 0
 301 82 361 119 409 159 c 1
 373 41 l 1
 325 11 271 -9 213 -9 c 0
 79 -8 12 107 50 230 c 0
 91 362 222 468 362 469 c 0
 415 469 458 452 497 418 c 1
 460 299 l 1
 440 349 405 376 350 375 c 0
 267 374 186 306 158 230 c 0
415 620 m 1
 286 531 l 1
 229 587 l 1
 438 723 l 1
 562 580 l 1
 480 530 l 1
 415 620 l 1
EndSplineSet
EndChar

StartChar: Cdotaccent
Encoding: 266 266 256
Width: 649
VWidth: 0
Flags: HMW
LayerCount: 2
Fore
SplineSet
223 350 m 0
 183 238 219 108 355 105 c 0
 446 103 530 150 601 201 c 1
 558 61 l 1
 488 17 411 -14 327 -13 c 0
 126 -12 41 173 98 350 c 0
 160 544 350 712 559 713 c 0
 634 714 696 688 751 637 c 1
 707 497 l 1
 670 561 613 595 538 595 c 0
 398 594 269 477 223 350 c 0
535 841 m 0
 543 872 587 906 619 904 c 0
 653 902 674 869 666 836 c 0
 658 805 614 772 582 774 c 0
 548 776 527 808 535 841 c 0
EndSplineSet
EndChar

StartChar: cdotaccent
Encoding: 267 267 257
Width: 454
VWidth: 0
Flags: HMW
LayerCount: 2
Fore
SplineSet
158 230 m 0
 133 163 156 88 236 85 c 0
 301 82 361 119 409 159 c 1
 373 41 l 1
 325 11 271 -9 213 -9 c 0
 79 -8 12 107 50 230 c 0
 91 362 222 468 362 469 c 0
 415 469 458 452 497 418 c 1
 460 299 l 1
 440 349 405 376 350 375 c 0
 267 374 186 306 158 230 c 0
338 601 m 0
 346 632 390 666 422 664 c 0
 456 662 477 630 469 597 c 0
 461 566 417 532 385 534 c 0
 351 536 330 568 338 601 c 0
EndSplineSet
EndChar

StartChar: Ccaron
Encoding: 268 268 258
Width: 649
VWidth: 0
Flags: HMW
LayerCount: 2
Fore
SplineSet
223 350 m 0
 183 238 219 108 355 105 c 0
 446 103 530 150 601 201 c 1
 558 61 l 1
 488 17 411 -14 327 -13 c 0
 126 -12 41 173 98 350 c 0
 160 544 350 712 559 713 c 0
 634 714 696 688 751 637 c 1
 707 497 l 1
 670 561 613 595 538 595 c 0
 398 594 269 477 223 350 c 0
616 876 m 1
 744 965 l 1
 801 909 l 1
 592 773 l 1
 469 916 l 1
 552 965 l 1
 616 876 l 1
EndSplineSet
EndChar

StartChar: ccaron
Encoding: 269 269 259
Width: 454
VWidth: 0
Flags: HMW
LayerCount: 2
Fore
SplineSet
158 230 m 0
 133 163 156 88 236 85 c 0
 301 82 361 119 409 159 c 1
 373 41 l 1
 325 11 271 -9 213 -9 c 0
 79 -8 12 107 50 230 c 0
 91 362 222 468 362 469 c 0
 415 469 458 452 497 418 c 1
 460 299 l 1
 440 349 405 376 350 375 c 0
 267 374 186 306 158 230 c 0
407 633 m 1
 535 722 l 1
 592 666 l 1
 383 530 l 1
 259 674 l 1
 342 723 l 1
 407 633 l 1
EndSplineSet
EndChar

StartChar: Dcaron
Encoding: 270 270 260
Width: 659
VWidth: 0
Flags: HMW
LayerCount: 2
Fore
SplineSet
255 699 m 1
 376 700 l 1
 134 0 l 1
 18 0 l 1
 255 699 l 1
240 0 m 0
 85 0 l 1
 125 112 l 1
 261 112 l 0
 404 117 526 217 574 350 c 0
 618 470 575 582 437 588 c 1
 286 588 l 1
 326 700 l 1
 463 700 l 0
 661 694 751 532 692 350 c 0
 629 154 448 6 240 0 c 0
566 876 m 1
 694 965 l 1
 751 909 l 1
 543 773 l 1
 419 916 l 1
 501 965 l 1
 566 876 l 1
EndSplineSet
EndChar

StartChar: dcaron
Encoding: 271 271 261
Width: 553
VWidth: 0
Flags: HMW
LayerCount: 2
Fore
SplineSet
599 779 m 1
 709 780 l 1
 440 0 l 1
 335 0 l 1
 599 779 l 1
53 230 m 0
 91 351 208 471 342 470 c 0
 474 469 485 329 453 230 c 0
 417 116 323 -8 193 -9 c 0
 60 -10 18 120 53 230 c 0
163 230 m 0
 140 167 156 86 236 85 c 0
 315 84 388 161 414 230 c 0
 435 289 424 371 348 375 c 0
 266 379 189 301 163 230 c 0
812 778 m 1
 913 745 l 1
 719 501 l 1
 642 524 l 1
 812 778 l 1
EndSplineSet
EndChar

StartChar: Dcroat
Encoding: 272 272 262
Width: 659
VWidth: 0
Flags: HMW
LayerCount: 2
Fore
SplineSet
54 306 m 1
 83 390 l 1
 386 390 l 1
 357 305 l 1
 54 306 l 1
255 699 m 1
 376 700 l 1
 134 0 l 1
 18 0 l 1
 255 699 l 1
240 0 m 0
 85 0 l 1
 125 112 l 1
 261 112 l 0
 404 117 526 217 574 350 c 0
 618 470 575 582 437 588 c 1
 286 588 l 1
 326 700 l 1
 463 700 l 0
 661 694 751 532 692 350 c 0
 629 154 448 6 240 0 c 0
EndSplineSet
EndChar

StartChar: dcroat
Encoding: 273 273 263
Width: 553
VWidth: 0
Flags: HMW
LayerCount: 2
Fore
SplineSet
420 580 m 1
 449 665 l 1
 758 665 l 1
 728 580 l 1
 420 580 l 1
599 779 m 1
 709 780 l 1
 440 0 l 1
 335 0 l 1
 599 779 l 1
53 230 m 0
 91 351 208 471 342 470 c 0
 474 469 485 329 453 230 c 0
 417 116 323 -8 193 -9 c 0
 60 -10 18 120 53 230 c 0
163 230 m 0
 140 167 156 86 236 85 c 0
 315 84 388 161 414 230 c 0
 435 289 424 371 348 375 c 0
 266 379 189 301 163 230 c 0
EndSplineSet
EndChar

StartChar: Emacron
Encoding: 274 274 264
Width: 537
VWidth: 0
Flags: HMW
LayerCount: 2
Fore
SplineSet
88 0 m 1
 123 104 l 1
 460 104 l 1
 424 0 l 1
 88 0 l 1
291 596 m 1
 326 700 l 1
 662 700 l 1
 627 596 l 1
 291 596 l 1
198 324 m 1
 233 426 l 1
 550 426 l 1
 515 323 l 1
 198 324 l 1
255 699 m 1
 371 700 l 1
 130 0 l 1
 18 0 l 1
 255 699 l 1
314 773 m 1
 347 871 l 1
 689 871 l 1
 655 773 l 1
 314 773 l 1
EndSplineSet
EndChar

StartChar: emacron
Encoding: 275 275 265
Width: 506
VWidth: 0
Flags: HMW
LayerCount: 2
Fore
SplineSet
109 206 m 1
 133 279 l 1
 402 280 l 1
 410 332 405 383 341 386 c 0
 263 389 204 321 173 257 c 2
 160 230 l 1
 137 166 141 84 224 80 c 0
 282 77 332 116 374 151 c 1
 457 111 l 1
 388 42 303 -10 203 -9 c 0
 68 -7 19 112 54 230 c 0
 59 247 65 263 73 279 c 0
 125 385 235 470 357 469 c 0
 495 468 536 353 503 235 c 0
 500 225 498 216 494 206 c 1
 109 206 l 1
215 531 m 1
 249 628 l 1
 591 628 l 1
 557 530 l 1
 215 531 l 1
EndSplineSet
EndChar

StartChar: Ebreve
Encoding: 276 276 266
Width: 537
VWidth: 0
Flags: HMW
LayerCount: 2
Fore
SplineSet
88 0 m 1
 123 104 l 1
 460 104 l 1
 424 0 l 1
 88 0 l 1
291 596 m 1
 326 700 l 1
 662 700 l 1
 627 596 l 1
 291 596 l 1
198 324 m 1
 233 426 l 1
 550 426 l 1
 515 323 l 1
 198 324 l 1
255 699 m 1
 371 700 l 1
 130 0 l 1
 18 0 l 1
 255 699 l 1
378 915 m 1
 455 914 l 1
 453 879 459 850 501 848 c 0
 546 846 577 881 601 914 c 1
 684 913 l 1
 647 835 581 774 490 774 c 0
 401 774 367 835 378 915 c 1
EndSplineSet
EndChar

StartChar: ebreve
Encoding: 277 277 267
Width: 506
VWidth: 0
Flags: HMW
LayerCount: 2
Fore
SplineSet
109 206 m 1
 133 279 l 1
 402 280 l 1
 410 332 405 383 341 386 c 0
 263 389 204 321 173 257 c 2
 160 230 l 1
 137 166 141 84 224 80 c 0
 282 77 332 116 374 151 c 1
 457 111 l 1
 388 42 303 -10 203 -9 c 0
 68 -7 19 112 54 230 c 0
 59 247 65 263 73 279 c 0
 125 385 235 470 357 469 c 0
 495 468 536 353 503 235 c 0
 500 225 498 216 494 206 c 1
 109 206 l 1
280 673 m 1
 358 672 l 1
 356 637 361 607 403 605 c 0
 448 603 479 639 503 672 c 1
 586 671 l 1
 549 594 483 531 392 531 c 0
 303 531 269 593 280 673 c 1
EndSplineSet
EndChar

StartChar: Edotaccent
Encoding: 278 278 268
Width: 537
VWidth: 0
Flags: HMW
LayerCount: 2
Fore
SplineSet
88 0 m 1
 123 104 l 1
 460 104 l 1
 424 0 l 1
 88 0 l 1
291 596 m 1
 326 700 l 1
 662 700 l 1
 627 596 l 1
 291 596 l 1
198 324 m 1
 233 426 l 1
 550 426 l 1
 515 323 l 1
 198 324 l 1
255 699 m 1
 371 700 l 1
 130 0 l 1
 18 0 l 1
 255 699 l 1
440 841 m 0
 448 872 492 906 524 904 c 0
 558 902 580 869 572 836 c 0
 564 805 519 772 487 774 c 0
 453 776 432 808 440 841 c 0
EndSplineSet
EndChar

StartChar: edotaccent
Encoding: 279 279 269
Width: 506
VWidth: 0
Flags: HMW
LayerCount: 2
Fore
SplineSet
109 206 m 1
 133 279 l 1
 402 280 l 1
 410 332 405 383 341 386 c 0
 263 389 204 321 173 257 c 2
 160 230 l 1
 137 166 141 84 224 80 c 0
 282 77 332 116 374 151 c 1
 457 111 l 1
 388 42 303 -10 203 -9 c 0
 68 -7 19 112 54 230 c 0
 59 247 65 263 73 279 c 0
 125 385 235 470 357 469 c 0
 495 468 536 353 503 235 c 0
 500 225 498 216 494 206 c 1
 109 206 l 1
342 599 m 0
 350 630 394 663 426 661 c 0
 460 659 482 627 474 594 c 0
 466 563 421 529 389 531 c 0
 355 533 334 566 342 599 c 0
EndSplineSet
EndChar

StartChar: Eogonek
Encoding: 280 280 270
Width: 537
VWidth: 0
Flags: HMW
LayerCount: 2
Fore
SplineSet
88 0 m 1
 123 104 l 1
 460 104 l 1
 424 0 l 1
 88 0 l 1
291 596 m 1
 326 700 l 1
 662 700 l 1
 627 596 l 1
 291 596 l 1
198 324 m 1
 233 426 l 1
 550 426 l 1
 515 323 l 1
 198 324 l 1
255 699 m 1
 371 700 l 1
 130 0 l 1
 18 0 l 1
 255 699 l 1
259 -122 m 1
 273 -183 l 1
 243 -203 212 -219 176 -219 c 0
 117 -220 73 -180 90 -119 c 0
 111 -45 199 -6 262 24 c 1
 299 0 l 1
 260 -24 196 -49 182 -98 c 0
 177 -117 181 -137 203 -141 c 0
 221 -144 244 -130 259 -122 c 1
EndSplineSet
EndChar

StartChar: eogonek
Encoding: 281 281 271
Width: 506
VWidth: 0
Flags: HMW
LayerCount: 2
Fore
SplineSet
109 206 m 1
 133 279 l 1
 402 280 l 1
 410 332 405 383 341 386 c 0
 263 389 204 321 173 257 c 2
 160 230 l 1
 137 166 141 84 224 80 c 0
 282 77 332 116 374 151 c 1
 457 111 l 1
 388 42 303 -10 203 -9 c 0
 68 -7 19 112 54 230 c 0
 59 247 65 263 73 279 c 0
 125 385 235 470 357 469 c 0
 495 468 536 353 503 235 c 0
 500 225 498 216 494 206 c 1
 109 206 l 1
195 -119 m 1
 209 -180 l 1
 179 -200 148 -216 112 -216 c 0
 53 -217 10 -177 27 -116 c 0
 48 -42 136 -3 199 27 c 1
 236 -2 l 1
 196 -21 132 -47 118 -95 c 0
 113 -114 117 -134 139 -138 c 0
 157 -141 180 -127 195 -119 c 1
EndSplineSet
EndChar

StartChar: Ecaron
Encoding: 282 282 272
Width: 537
VWidth: 0
Flags: HMW
LayerCount: 2
Fore
SplineSet
88 0 m 1
 123 104 l 1
 460 104 l 1
 424 0 l 1
 88 0 l 1
291 596 m 1
 326 700 l 1
 662 700 l 1
 627 596 l 1
 291 596 l 1
198 324 m 1
 233 426 l 1
 550 426 l 1
 515 323 l 1
 198 324 l 1
255 699 m 1
 371 700 l 1
 130 0 l 1
 18 0 l 1
 255 699 l 1
512 876 m 1
 640 965 l 1
 697 909 l 1
 489 773 l 1
 365 916 l 1
 447 965 l 1
 512 876 l 1
EndSplineSet
EndChar

StartChar: ecaron
Encoding: 283 283 273
Width: 506
VWidth: 0
Flags: HMW
LayerCount: 2
Fore
SplineSet
109 206 m 1
 133 279 l 1
 402 280 l 1
 410 332 405 383 341 386 c 0
 263 389 204 321 173 257 c 2
 160 230 l 1
 137 166 141 84 224 80 c 0
 282 77 332 116 374 151 c 1
 457 111 l 1
 388 42 303 -10 203 -9 c 0
 68 -7 19 112 54 230 c 0
 59 247 65 263 73 279 c 0
 125 385 235 470 357 469 c 0
 495 468 536 353 503 235 c 0
 500 225 498 216 494 206 c 1
 109 206 l 1
414 633 m 1
 542 722 l 1
 599 666 l 1
 391 530 l 1
 267 674 l 1
 349 723 l 1
 414 633 l 1
EndSplineSet
EndChar

StartChar: Gcircumflex
Encoding: 284 284 274
Width: 743
VWidth: 0
Flags: HMW
LayerCount: 2
Fore
SplineSet
420 266 m 1
 457 367 l 1
 774 366 l 1
 710 173 547 -15 328 -15 c 0
 124 -15 40 172 98 350 c 0
 161 546 353 713 564 713 c 0
 677 713 760 656 804 554 c 1
 693 493 l 1
 669 564 617 601 541 601 c 0
 397 602 268 480 221 350 c 0
 180 236 211 99 353 97 c 0
 471 96 561 179 626 267 c 1
 420 266 l 1
629 862 m 1
 501 773 l 1
 444 829 l 1
 653 965 l 1
 776 822 l 1
 694 773 l 1
 629 862 l 1
EndSplineSet
EndChar

StartChar: gcircumflex
Encoding: 285 285 275
Width: 551
VWidth: 0
Flags: HMW
LayerCount: 2
Fore
SplineSet
-27 -31 m 1
 75 -32 l 1
 69 -92 87 -138 155 -139 c 0
 241 -141 307 -63 336 10 c 1
 492 460 l 1
 597 460 l 1
 443 10 l 2
 396 -119 285 -232 140 -233 c 0
 14 -234 -46 -151 -27 -31 c 1
54 233 m 0
 92 354 209 471 342 470 c 0
 473 469 486 332 454 232 c 0
 419 119 323 -3 194 -4 c 0
 61 -5 19 123 54 233 c 0
164 232 m 0
 141 168 159 91 238 90 c 0
 316 89 390 164 415 233 c 0
 436 293 423 371 348 375 c 0
 267 379 190 303 164 232 c 0
433 620 m 1
 305 531 l 1
 248 587 l 1
 457 723 l 1
 580 580 l 1
 497 530 l 1
 433 620 l 1
EndSplineSet
EndChar

StartChar: Gbreve
Encoding: 286 286 276
Width: 743
VWidth: 0
Flags: HMW
LayerCount: 2
Fore
SplineSet
420 266 m 1
 457 367 l 1
 774 366 l 1
 710 173 547 -15 328 -15 c 0
 124 -15 40 172 98 350 c 0
 161 546 353 713 564 713 c 0
 677 713 760 656 804 554 c 1
 693 493 l 1
 669 564 617 601 541 601 c 0
 397 602 268 480 221 350 c 0
 180 236 211 99 353 97 c 0
 471 96 561 179 626 267 c 1
 420 266 l 1
487 915 m 1
 565 914 l 1
 563 879 568 850 610 848 c 0
 655 846 686 881 710 914 c 1
 793 913 l 1
 756 835 689 774 598 774 c 0
 509 774 476 835 487 915 c 1
EndSplineSet
EndChar

StartChar: gbreve
Encoding: 287 287 277
Width: 551
VWidth: 0
Flags: HMW
LayerCount: 2
Fore
SplineSet
-27 -31 m 1
 75 -32 l 1
 69 -92 87 -138 155 -139 c 0
 241 -141 307 -63 336 10 c 1
 492 460 l 1
 597 460 l 1
 443 10 l 2
 396 -119 285 -232 140 -233 c 0
 14 -234 -46 -151 -27 -31 c 1
54 233 m 0
 92 354 209 471 342 470 c 0
 473 469 486 332 454 232 c 0
 419 119 323 -3 194 -4 c 0
 61 -5 19 123 54 233 c 0
164 232 m 0
 141 168 159 91 238 90 c 0
 316 89 390 164 415 233 c 0
 436 293 423 371 348 375 c 0
 267 379 190 303 164 232 c 0
292 673 m 1
 369 672 l 1
 367 637 372 607 414 605 c 0
 459 603 490 639 514 672 c 1
 597 671 l 1
 560 594 493 531 402 531 c 0
 313 531 281 593 292 673 c 1
EndSplineSet
EndChar

StartChar: Gdotaccent
Encoding: 288 288 278
Width: 743
VWidth: 0
Flags: HMW
LayerCount: 2
Fore
SplineSet
420 266 m 1
 457 367 l 1
 774 366 l 1
 710 173 547 -15 328 -15 c 0
 124 -15 40 172 98 350 c 0
 161 546 353 713 564 713 c 0
 677 713 760 656 804 554 c 1
 693 493 l 1
 669 564 617 601 541 601 c 0
 397 602 268 480 221 350 c 0
 180 236 211 99 353 97 c 0
 471 96 561 179 626 267 c 1
 420 266 l 1
549 841 m 0
 557 872 601 906 633 904 c 0
 667 902 689 869 681 836 c 0
 673 805 628 772 596 774 c 0
 562 776 541 808 549 841 c 0
EndSplineSet
EndChar

StartChar: gdotaccent
Encoding: 289 289 279
Width: 551
VWidth: 0
Flags: HMW
LayerCount: 2
Fore
SplineSet
-27 -31 m 1
 75 -32 l 1
 69 -92 87 -138 155 -139 c 0
 241 -141 307 -63 336 10 c 1
 492 460 l 1
 597 460 l 1
 443 10 l 2
 396 -119 285 -232 140 -233 c 0
 14 -234 -46 -151 -27 -31 c 1
54 233 m 0
 92 354 209 471 342 470 c 0
 473 469 486 332 454 232 c 0
 419 119 323 -3 194 -4 c 0
 61 -5 19 123 54 233 c 0
164 232 m 0
 141 168 159 91 238 90 c 0
 316 89 390 164 415 233 c 0
 436 293 423 371 348 375 c 0
 267 379 190 303 164 232 c 0
370 628 m 0
 378 659 422 693 454 691 c 0
 488 689 509 657 501 624 c 0
 493 593 449 559 417 561 c 0
 383 563 362 595 370 628 c 0
EndSplineSet
EndChar

StartChar: uni0122
Encoding: 290 290 280
Width: 743
VWidth: 0
Flags: HMW
LayerCount: 2
Fore
SplineSet
420 266 m 1
 457 367 l 1
 774 366 l 1
 710 173 547 -15 328 -15 c 0
 124 -15 40 172 98 350 c 0
 161 546 353 713 564 713 c 0
 677 713 760 656 804 554 c 1
 693 493 l 1
 669 564 617 601 541 601 c 0
 397 602 268 480 221 350 c 0
 180 236 211 99 353 97 c 0
 471 96 561 179 626 267 c 1
 420 266 l 1
273 -77 m 1
 375 -110 l 1
 180 -354 l 1
 104 -332 l 1
 273 -77 l 1
EndSplineSet
EndChar

StartChar: Hcircumflex
Encoding: 292 292 281
Width: 699
VWidth: 0
Flags: HMW
LayerCount: 2
Fore
SplineSet
172 321 m 1
 209 430 l 1
 684 430 l 1
 646 321 l 1
 172 321 l 1
697 699 m 1
 816 700 l 1
 574 0 l 1
 460 0 l 1
 697 699 l 1
255 699 m 1
 374 700 l 1
 132 0 l 1
 18 0 l 1
 255 699 l 1
597 862 m 1
 469 773 l 1
 412 829 l 1
 620 965 l 1
 744 822 l 1
 662 773 l 1
 597 862 l 1
EndSplineSet
EndChar

StartChar: hcircumflex
Encoding: 293 293 282
Width: 509
VWidth: 0
Flags: HMW
LayerCount: 2
Fore
SplineSet
383 780 m 1
 114 0 l 1
 8 0 l 1
 275 780 l 1
 383 780 l 1
385 280 m 1
 398 322 403 377 346 381 c 0
 284 385 239 329 211 282 c 1
 176 282 l 1
 215 373 288 471 398 472 c 0
 504 473 519 379 494 295 c 0
 393 0 l 1
 288 0 l 1
 385 280 l 1
427 930 m 1
 298 841 l 1
 242 897 l 1
 450 1033 l 1
 574 890 l 1
 492 840 l 1
 427 930 l 1
EndSplineSet
EndChar

StartChar: Itilde
Encoding: 296 296 283
Width: 258
VWidth: 0
Flags: HMW
LayerCount: 2
Fore
SplineSet
255 699 m 1
 375 700 l 1
 133 0 l 1
 18 0 l 1
 255 699 l 1
187 825 m 1
 217 864 260 911 315 908 c 0
 356 906 379 858 420 861 c 0
 450 863 475 891 496 909 c 1
 536 850 l 1
 503 816 456 773 404 777 c 0
 364 780 342 828 301 824 c 0
 271 821 251 796 234 775 c 1
 187 825 l 1
EndSplineSet
EndChar

StartChar: itilde
Encoding: 297 297 284
Width: 250
VWidth: 0
Flags: HMW
LayerCount: 2
Fore
SplineSet
174 459 m 1
 282 460 l 1
 122 0 l 1
 20 0 l 1
 174 459 l 1
100 582 m 1
 130 621 173 668 228 665 c 0
 269 663 292 615 333 618 c 0
 363 620 388 648 409 666 c 1
 449 608 l 1
 416 574 368 530 316 534 c 0
 276 537 254 586 213 582 c 0
 183 579 164 554 147 533 c 1
 100 582 l 1
EndSplineSet
EndChar

StartChar: Imacron
Encoding: 298 298 285
Width: 258
VWidth: 0
Flags: HMW
LayerCount: 2
Fore
SplineSet
255 699 m 1
 375 700 l 1
 133 0 l 1
 18 0 l 1
 255 699 l 1
170 773 m 1
 203 871 l 1
 546 871 l 1
 511 773 l 1
 170 773 l 1
EndSplineSet
EndChar

StartChar: imacron
Encoding: 299 299 286
Width: 250
VWidth: 0
Flags: HMW
LayerCount: 2
Fore
SplineSet
174 459 m 1
 282 460 l 1
 122 0 l 1
 20 0 l 1
 174 459 l 1
83 531 m 1
 116 628 l 1
 458 628 l 1
 424 530 l 1
 83 531 l 1
EndSplineSet
EndChar

StartChar: Ibreve
Encoding: 300 300 287
Width: 258
VWidth: 0
Flags: HMW
LayerCount: 2
Fore
SplineSet
255 699 m 1
 375 700 l 1
 133 0 l 1
 18 0 l 1
 255 699 l 1
235 915 m 1
 312 914 l 1
 310 879 316 850 358 848 c 0
 403 846 434 881 458 914 c 1
 540 913 l 1
 503 836 437 774 346 774 c 0
 257 774 224 835 235 915 c 1
EndSplineSet
EndChar

StartChar: ibreve
Encoding: 301 301 288
Width: 250
VWidth: 0
Flags: HMW
LayerCount: 2
Fore
SplineSet
174 459 m 1
 282 460 l 1
 122 0 l 1
 20 0 l 1
 174 459 l 1
147 673 m 1
 224 672 l 1
 222 637 228 607 270 605 c 0
 315 603 346 639 370 672 c 1
 452 671 l 1
 415 594 350 531 259 531 c 0
 170 531 136 593 147 673 c 1
EndSplineSet
EndChar

StartChar: Iogonek
Encoding: 302 302 289
Width: 258
VWidth: 0
Flags: HMW
LayerCount: 2
Fore
SplineSet
255 699 m 1
 375 700 l 1
 133 0 l 1
 18 0 l 1
 255 699 l 1
83 -121 m 1
 98 -182 l 1
 68 -202 37 -218 1 -218 c 0
 -58 -219 -102 -179 -85 -118 c 0
 -64 -44 24 -5 87 25 c 1
 125 -1 l 1
 85 -23 21 -48 7 -97 c 0
 2 -116 6 -137 28 -141 c 0
 46 -144 68 -129 83 -121 c 1
EndSplineSet
EndChar

StartChar: iogonek
Encoding: 303 303 290
Width: 250
VWidth: 0
Flags: HMW
LayerCount: 2
Fore
SplineSet
225 645 m 0
 233 676 277 710 309 708 c 0
 343 706 365 674 357 641 c 0
 349 610 304 576 272 578 c 0
 238 580 217 612 225 645 c 0
174 459 m 1
 282 460 l 1
 122 0 l 1
 20 0 l 1
 174 459 l 1
73 -122 m 1
 87 -183 l 1
 57 -203 27 -219 -9 -219 c 0
 -68 -220 -113 -180 -96 -119 c 0
 -75 -45 14 -6 77 24 c 1
 113 0 l 1
 74 -24 10 -49 -4 -98 c 0
 -9 -117 -5 -137 17 -141 c 0
 35 -144 58 -130 73 -122 c 1
EndSplineSet
EndChar

StartChar: Idotaccent
Encoding: 304 304 291
Width: 258
VWidth: 0
Flags: HMW
LayerCount: 2
Fore
SplineSet
255 699 m 1
 375 700 l 1
 133 0 l 1
 18 0 l 1
 255 699 l 1
295 841 m 0
 303 872 348 906 380 904 c 0
 414 902 435 869 427 836 c 0
 419 805 375 772 343 774 c 0
 309 776 287 808 295 841 c 0
EndSplineSet
EndChar

StartChar: uni0136
Encoding: 310 310 292
Width: 582
VWidth: 0
Flags: HMW
LayerCount: 2
Fore
SplineSet
255 699 m 1
 376 700 l 1
 134 0 l 1
 18 0 l 1
 255 699 l 1
611 699 m 1
 759 699 l 1
 361 367 l 1
 524 0 l 1
 393 0 l 1
 226 375 l 1
 611 699 l 1
228 -62 m 1
 330 -95 l 1
 134 -339 l 1
 58 -316 l 1
 228 -62 l 1
EndSplineSet
EndChar

StartChar: uni0137
Encoding: 311 311 293
Width: 466
VWidth: 0
Flags: HMW
LayerCount: 2
Fore
SplineSet
270 779 m 1
 378 780 l 1
 108 0 l 1
 6 0 l 1
 270 779 l 1
417 459 m 1
 556 459 l 1
 296 265 l 1
 407 0 l 1
 289 0 l 1
 172 276 l 1
 417 459 l 1
164 -62 m 1
 266 -95 l 1
 70 -339 l 1
 -6 -316 l 1
 164 -62 l 1
EndSplineSet
EndChar

StartChar: Lacute
Encoding: 313 313 294
Width: 452
VWidth: 0
Flags: HMW
LayerCount: 2
Fore
SplineSet
256 700 m 1
 374 700 l 1
 170 107 l 1
 431 107 l 1
 394 0 l 1
 16 0 l 1
 256 700 l 1
657 917 m 1
 440 774 l 1
 386 812 l 1
 579 966 l 1
 657 917 l 1
EndSplineSet
EndChar

StartChar: lacute
Encoding: 314 314 295
Width: 231
VWidth: 0
Flags: HMW
LayerCount: 2
Fore
SplineSet
274 779 m 1
 383 780 l 1
 114 0 l 1
 10 0 l 1
 274 779 l 1
536 984 m 1
 320 842 l 1
 266 879 l 1
 458 1034 l 1
 536 984 l 1
EndSplineSet
EndChar

StartChar: uni013B
Encoding: 315 315 296
Width: 452
VWidth: 0
Flags: HMW
LayerCount: 2
Fore
SplineSet
256 700 m 1
 374 700 l 1
 170 107 l 1
 431 107 l 1
 394 0 l 1
 16 0 l 1
 256 700 l 1
171 -62 m 1
 272 -95 l 1
 77 -339 l 1
 0 -316 l 1
 171 -62 l 1
EndSplineSet
EndChar

StartChar: uni013C
Encoding: 316 316 297
Width: 231
VWidth: 0
Flags: HMW
LayerCount: 2
Fore
SplineSet
274 779 m 1
 383 780 l 1
 114 0 l 1
 10 0 l 1
 274 779 l 1
26 -62 m 1
 128 -95 l 1
 -67 -339 l 1
 -143 -316 l 1
 26 -62 l 1
EndSplineSet
EndChar

StartChar: Lcaron
Encoding: 317 317 298
Width: 452
VWidth: 0
Flags: HMW
LayerCount: 2
Fore
SplineSet
256 700 m 1
 374 700 l 1
 170 107 l 1
 431 107 l 1
 394 0 l 1
 16 0 l 1
 256 700 l 1
526 711 m 1
 627 678 l 1
 432 434 l 1
 356 456 l 1
 526 711 l 1
EndSplineSet
EndChar

StartChar: lcaron
Encoding: 318 318 299
Width: 231
VWidth: 0
Flags: HMW
LayerCount: 2
Fore
SplineSet
274 779 m 1
 383 780 l 1
 114 0 l 1
 10 0 l 1
 274 779 l 1
505 778 m 1
 606 745 l 1
 411 501 l 1
 335 524 l 1
 505 778 l 1
EndSplineSet
EndChar

StartChar: Ldot
Encoding: 319 319 300
Width: 452
VWidth: 0
Flags: HMW
LayerCount: 2
Fore
SplineSet
256 700 m 1
 374 700 l 1
 170 107 l 1
 431 107 l 1
 394 0 l 1
 16 0 l 1
 256 700 l 1
354 423 m 0
 363 456 408 493 443 491 c 0
 480 489 501 453 492 419 c 0
 483 386 438 350 403 352 c 0
 366 354 345 389 354 423 c 0
EndSplineSet
EndChar

StartChar: ldot
Encoding: 320 320 301
Width: 389
VWidth: 0
Flags: HMW
LayerCount: 2
Fore
SplineSet
274 779 m 1
 383 780 l 1
 114 0 l 1
 10 0 l 1
 274 779 l 1
302 414 m 0
 311 447 355 484 390 482 c 0
 427 480 447 444 438 410 c 0
 429 377 385 341 350 343 c 0
 313 345 293 380 302 414 c 0
EndSplineSet
EndChar

StartChar: eth
Encoding: 240 240 302
Width: 577
VWidth: 0
Flags: HMW
LayerCount: 2
Fore
SplineSet
447 237 m 0
 471 302 452 381 372 382 c 0
 289 384 211 310 184 236 c 0
 160 171 181 94 260 93 c 0
 342 92 420 163 447 237 c 0
448 699 m 1
 556 402 l 2
 575 348 577 291 560 236 c 0
 517 100 384 -12 238 -12 c 0
 97 -12 31 109 71 237 c 0
 107 351 217 461 342 463 c 0
 384 464 413 448 441 418 c 1
 428 423 l 1
 312 699 l 1
 448 699 l 1
262 521 m 1
 284 589 l 1
 623 589 l 1
 600 521 l 1
 262 521 l 1
EndSplineSet
EndChar

StartChar: racute
Encoding: 341 341 303
Width: 348
VWidth: 0
Flags: HMW
LayerCount: 2
Fore
SplineSet
272 460 m 1
 113 0 l 1
 7 0 l 1
 166 460 l 1
 272 460 l 1
364 345 m 1
 350 357 336 367 316 368 c 0
 257 370 224 305 202 260 c 1
 172 282 l 1
 205 360 268 470 366 470 c 0
 399 470 419 454 441 433 c 1
 364 345 l 1
518 675 m 1
 301 532 l 1
 249 570 l 1
 441 724 l 1
 518 675 l 1
EndSplineSet
EndChar

StartChar: rcaron
Encoding: 345 345 304
Width: 348
VWidth: 0
Flags: HMW
LayerCount: 2
Fore
SplineSet
272 460 m 1
 113 0 l 1
 7 0 l 1
 166 460 l 1
 272 460 l 1
364 345 m 1
 350 357 336 367 316 368 c 0
 257 370 224 305 202 260 c 1
 172 282 l 1
 205 360 268 470 366 470 c 0
 399 470 419 454 441 433 c 1
 364 345 l 1
360 634 m 1
 488 723 l 1
 545 666 l 1
 336 531 l 1
 213 674 l 1
 295 723 l 1
 360 634 l 1
EndSplineSet
EndChar

StartChar: Rcaron
Encoding: 344 344 305
Width: 559
VWidth: 0
Flags: HMW
LayerCount: 2
Fore
SplineSet
270 333 m 1
 388 333 l 1
 497 0 l 1
 368 0 l 1
 270 333 l 1
255 699 m 1
 374 700 l 1
 132 0 l 1
 18 0 l 1
 255 699 l 1
287 597 m 1
 323 700 l 1
 454 700 l 0
 579 695 667 611 627 482 c 0
 586 349 454 270 320 265 c 0
 173 265 l 1
 208 363 l 1
 335 363 l 1
 408 367 482 409 508 480 c 0
 532 546 495 591 428 596 c 1
 287 597 l 1
501 876 m 1
 629 965 l 1
 686 909 l 1
 477 773 l 1
 353 916 l 1
 436 965 l 1
 501 876 l 1
EndSplineSet
EndChar

StartChar: uni0213
Encoding: 531 531 306
Width: 348
VWidth: 0
Flags: HMW
LayerCount: 2
Fore
SplineSet
272 460 m 1
 113 0 l 1
 7 0 l 1
 166 460 l 1
 272 460 l 1
364 345 m 1
 350 357 336 367 316 368 c 0
 257 370 224 305 202 260 c 1
 172 282 l 1
 205 360 268 470 366 470 c 0
 399 470 419 454 441 433 c 1
 364 345 l 1
179 530 m 1
 260 531 l 1
 283 565 312 599 357 598 c 0
 401 597 410 568 410 530 c 1
 479 531 l 1
 497 607 476 670 388 672 c 0
 293 674 223 607 179 530 c 1
EndSplineSet
EndChar

StartChar: uni0212
Encoding: 530 530 307
Width: 559
VWidth: 0
Flags: HMW
LayerCount: 2
Fore
SplineSet
270 333 m 1
 388 333 l 1
 497 0 l 1
 368 0 l 1
 270 333 l 1
255 699 m 1
 374 700 l 1
 132 0 l 1
 18 0 l 1
 255 699 l 1
287 597 m 1
 323 700 l 1
 454 700 l 0
 579 695 667 611 627 482 c 0
 586 349 454 270 320 265 c 0
 173 265 l 1
 208 363 l 1
 335 363 l 1
 408 367 482 409 508 480 c 0
 532 546 495 591 428 596 c 1
 287 597 l 1
335 772 m 1
 416 773 l 1
 439 807 468 841 513 840 c 0
 557 839 566 810 566 772 c 1
 636 773 l 1
 654 849 632 912 544 914 c 0
 449 916 379 849 335 772 c 1
EndSplineSet
EndChar

StartChar: OE
Encoding: 338 338 308
Width: 926
VWidth: 0
Flags: HMW
LayerCount: 2
Fore
SplineSet
584 324 m 1
 620 426 l 1
 950 426 l 1
 914 323 l 1
 584 324 l 1
644 669 m 1
 761 670 l 1
 539 30 l 1
 428 31 l 1
 644 669 l 1
855 103 m 1
 822 0 l 1
 321 0 l 0
 126 7 42 174 98 350 c 0
 159 542 339 694 543 700 c 0
 1062 700 l 1
 1024 596 l 1
 691 596 l 1
 674 592 l 1
 535 592 l 0
 389 587 266 485 217 350 c 0
 173 229 215 115 354 109 c 0
 491 108 l 1
 512 104 l 1
 855 103 l 1
EndSplineSet
EndChar

StartChar: oe
Encoding: 339 339 309
Width: 846
VWidth: 0
Flags: HMW
LayerCount: 2
Fore
SplineSet
737 250 m 2
 755 306 759 382 683 386 c 0
 606 390 544 323 514 260 c 2
 501 230 l 1
 478 167 479 83 564 79 c 0
 622 76 672 117 714 152 c 1
 796 111 l 1
 733 48 651 -10 557 -9 c 0
 425 -7 395 123 427 230 c 0
 432 247 438 263 446 279 c 0
 495 380 599 471 717 469 c 0
 847 467 871 337 842 234 c 0
 839 224 836 216 832 206 c 1
 730 231 l 1
 737 250 l 2
469 206 m 1
 492 279 l 1
 836 279 l 1
 831 205 l 1
 469 206 l 1
55 230 m 0
 93 352 211 470 346 469 c 0
 481 468 498 335 465 230 c 0
 428 113 331 -8 198 -9 c 0
 64 -10 20 117 55 230 c 0
161 230 m 0
 138 167 153 88 233 87 c 0
 311 86 377 162 402 230 c 0
 423 287 421 370 344 373 c 0
 262 377 187 301 161 230 c 0
EndSplineSet
EndChar

StartChar: a.alt
Encoding: 65536 -1 310
Width: 553
VWidth: 0
Flags: HMW
LayerCount: 2
Fore
SplineSet
494 459 m 1
 600 460 l 1
 440 0 l 1
 339 0 l 1
 494 459 l 1
53 230 m 0
 91 351 208 471 342 470 c 0
 474 469 484 329 452 230 c 0
 416 116 323 -8 193 -9 c 0
 60 -10 18 120 53 230 c 0
163 230 m 0
 140 167 156 86 236 85 c 0
 315 84 387 161 413 230 c 0
 434 289 424 371 348 375 c 0
 266 379 189 301 163 230 c 0
EndSplineSet
EndChar

StartChar: Jcircumflex
Encoding: 308 308 312
Width: 260
VWidth: 0
Flags: HMW
LayerCount: 2
Fore
SplineSet
-155 -88 m 1
 -138 -107 -121 -124 -93 -122 c 0
 -47 -119 -13 -75 4 -36 c 1
 256 700 l 1
 376 700 l 1
 118 -58 l 2
 81 -155 -5 -228 -112 -227 c 0
 -164 -226 -202 -206 -240 -173 c 1
 -155 -88 l 1
377 862 m 1
 249 773 l 1
 192 829 l 1
 400 965 l 1
 524 822 l 1
 442 773 l 1
 377 862 l 1
EndSplineSet
EndChar

StartChar: jcircumflex
Encoding: 309 309 313
Width: 243
VWidth: 0
Flags: HMW
LayerCount: 2
Fore
SplineSet
-116 -100 m 1
 -107 -112 -97 -126 -80 -126 c 0
 -40 -126 -17 -74 -4 -43 c 1
 169 460 l 1
 275 460 l 1
 96 -66 l 2
 65 -148 0 -230 -97 -227 c 0
 -136 -226 -162 -207 -188 -180 c 1
 -116 -100 l 1
282 620 m 1
 154 531 l 1
 97 587 l 1
 305 723 l 1
 429 580 l 1
 347 530 l 1
 282 620 l 1
EndSplineSet
EndChar

StartChar: Nacute
Encoding: 323 323 314
Width: 735
VWidth: 0
Flags: HMW
LayerCount: 2
Fore
SplineSet
737 700 m 1
 851 700 l 1
 600 -32 l 1
 292 470 l 1
 130 0 l 1
 15 0 l 1
 267 732 l 1
 575 230 l 1
 737 700 l 1
779 902 m 1
 563 759 l 1
 509 797 l 1
 701 951 l 1
 779 902 l 1
EndSplineSet
EndChar

StartChar: nacute
Encoding: 324 324 315
Width: 512
VWidth: 0
Flags: HMW
LayerCount: 2
Fore
SplineSet
273 460 m 1
 114 0 l 1
 7 0 l 1
 166 460 l 1
 273 460 l 1
385 280 m 1
 398 322 404 377 346 381 c 0
 284 385 238 329 210 282 c 1
 182 279 l 1
 219 370 288 469 397 470 c 0
 503 471 520 378 495 293 c 1
 395 0 l 1
 288 0 l 1
 385 280 l 1
577 675 m 1
 361 531 l 1
 308 569 l 1
 500 724 l 1
 577 675 l 1
EndSplineSet
EndChar

StartChar: uni0145
Encoding: 325 325 316
Width: 735
VWidth: 0
Flags: HMW
LayerCount: 2
Fore
SplineSet
288 -45 m 1
 390 -78 l 1
 194 -322 l 1
 119 -299 l 1
 288 -45 l 1
737 700 m 1
 851 700 l 1
 600 -32 l 1
 292 470 l 1
 130 0 l 1
 15 0 l 1
 267 732 l 1
 575 230 l 1
 737 700 l 1
EndSplineSet
EndChar

StartChar: uni0146
Encoding: 326 326 317
Width: 512
VWidth: 0
Flags: HMW
LayerCount: 2
Fore
SplineSet
273 460 m 1
 114 0 l 1
 7 0 l 1
 166 460 l 1
 273 460 l 1
385 280 m 1
 398 322 404 377 346 381 c 0
 284 385 238 329 210 282 c 1
 176 279 l 1
 215 370 287 469 397 470 c 0
 503 471 520 378 495 293 c 1
 395 0 l 1
 288 0 l 1
 385 280 l 1
167 -62 m 1
 268 -95 l 1
 74 -339 l 1
 -3 -316 l 1
 167 -62 l 1
EndSplineSet
EndChar

StartChar: Ncaron
Encoding: 327 327 318
Width: 735
VWidth: 0
Flags: HMW
LayerCount: 2
Fore
SplineSet
610 891 m 1
 738 979 l 1
 795 923 l 1
 586 787 l 1
 463 931 l 1
 545 980 l 1
 610 891 l 1
737 700 m 1
 851 700 l 1
 600 -32 l 1
 292 470 l 1
 130 0 l 1
 15 0 l 1
 267 732 l 1
 575 230 l 1
 737 700 l 1
EndSplineSet
EndChar

StartChar: ncaron
Encoding: 328 328 319
Width: 512
VWidth: 0
Flags: HMW
LayerCount: 2
Fore
SplineSet
273 460 m 1
 114 0 l 1
 7 0 l 1
 166 460 l 1
 273 460 l 1
385 280 m 1
 398 322 404 377 346 381 c 0
 284 385 238 329 210 282 c 1
 176 279 l 1
 215 370 287 469 397 470 c 0
 503 471 520 378 495 293 c 1
 395 0 l 1
 288 0 l 1
 385 280 l 1
412 633 m 1
 540 722 l 1
 597 666 l 1
 388 530 l 1
 265 674 l 1
 347 723 l 1
 412 633 l 1
EndSplineSet
EndChar

StartChar: Omacron
Encoding: 332 332 320
Width: 754
VWidth: 0
Flags: HMW
LayerCount: 2
Fore
SplineSet
221 350 m 0
 181 239 212 104 351 102 c 0
 493 100 619 224 665 350 c 0
 705 461 674 596 535 598 c 0
 393 600 267 476 221 350 c 0
98 350 m 0
 160 542 351 714 559 713 c 0
 761 712 844 527 788 350 c 0
 726 157 535 -16 326 -15 c 0
 123 -14 42 173 98 350 c 0
418 773 m 1
 451 871 l 1
 793 871 l 1
 759 773 l 1
 418 773 l 1
EndSplineSet
EndChar

StartChar: omacron
Encoding: 333 333 321
Width: 529
VWidth: 0
Flags: HMW
LayerCount: 2
Fore
SplineSet
53 230 m 0
 94 360 225 470 364 470 c 0
 498 470 564 352 526 230 c 0
 485 100 354 -9 215 -9 c 0
 81 -9 15 108 53 230 c 0
162 230 m 0
 139 167 155 89 234 87 c 0
 315 85 391 158 417 230 c 0
 440 293 424 372 345 374 c 0
 264 376 188 302 162 230 c 0
223 531 m 1
 256 628 l 1
 598 628 l 1
 564 530 l 1
 223 531 l 1
EndSplineSet
EndChar

StartChar: Obreve
Encoding: 334 334 322
Width: 754
VWidth: 0
Flags: HMW
LayerCount: 2
Fore
SplineSet
221 350 m 0
 181 239 212 104 351 102 c 0
 493 100 619 224 665 350 c 0
 705 461 674 596 535 598 c 0
 393 600 267 476 221 350 c 0
98 350 m 0
 160 542 351 714 559 713 c 0
 761 712 844 527 788 350 c 0
 726 157 535 -16 326 -15 c 0
 123 -14 42 173 98 350 c 0
483 915 m 1
 560 914 l 1
 558 879 563 850 605 848 c 0
 650 846 681 881 705 914 c 1
 788 913 l 1
 751 836 684 774 593 774 c 0
 504 774 472 835 483 915 c 1
EndSplineSet
EndChar

StartChar: obreve
Encoding: 335 335 323
Width: 529
VWidth: 0
Flags: HMW
LayerCount: 2
Fore
SplineSet
53 230 m 0
 94 360 225 470 364 470 c 0
 498 470 564 352 526 230 c 0
 485 100 354 -9 215 -9 c 0
 81 -9 15 108 53 230 c 0
162 230 m 0
 139 167 155 89 234 87 c 0
 315 85 391 158 417 230 c 0
 440 293 424 372 345 374 c 0
 264 376 188 302 162 230 c 0
287 673 m 1
 365 672 l 1
 363 637 368 607 410 605 c 0
 455 603 486 639 510 672 c 1
 593 671 l 1
 556 594 490 531 399 531 c 0
 310 531 276 593 287 673 c 1
EndSplineSet
EndChar

StartChar: Racute
Encoding: 340 340 324
Width: 559
VWidth: 0
Flags: HMW
LayerCount: 2
Fore
SplineSet
270 333 m 1
 388 333 l 1
 497 0 l 1
 368 0 l 1
 270 333 l 1
255 699 m 1
 374 700 l 1
 132 0 l 1
 18 0 l 1
 255 699 l 1
287 597 m 1
 323 700 l 1
 454 700 l 0
 579 695 667 611 627 482 c 0
 586 349 454 270 320 265 c 0
 173 265 l 1
 208 363 l 1
 335 363 l 1
 408 367 482 409 508 480 c 0
 532 546 495 591 428 596 c 1
 287 597 l 1
668 917 m 1
 452 774 l 1
 398 812 l 1
 590 966 l 1
 668 917 l 1
EndSplineSet
EndChar

StartChar: uni0156
Encoding: 342 342 325
Width: 559
VWidth: 0
Flags: HMW
LayerCount: 2
Fore
SplineSet
270 333 m 1
 388 333 l 1
 497 0 l 1
 368 0 l 1
 270 333 l 1
255 699 m 1
 374 700 l 1
 132 0 l 1
 18 0 l 1
 255 699 l 1
287 597 m 1
 323 700 l 1
 454 700 l 0
 579 695 667 611 627 482 c 0
 586 349 454 270 320 265 c 0
 173 265 l 1
 208 363 l 1
 335 363 l 1
 408 367 482 409 508 480 c 0
 532 546 495 591 428 596 c 1
 287 597 l 1
224 -62 m 1
 325 -95 l 1
 131 -339 l 1
 54 -316 l 1
 224 -62 l 1
EndSplineSet
EndChar

StartChar: uni0157
Encoding: 343 343 326
Width: 348
VWidth: 0
Flags: HMW
LayerCount: 2
Fore
SplineSet
272 460 m 1
 113 0 l 1
 7 0 l 1
 166 460 l 1
 272 460 l 1
364 345 m 1
 350 357 336 367 316 368 c 0
 257 370 224 305 202 260 c 1
 172 282 l 1
 205 360 268 470 366 470 c 0
 399 470 419 454 441 433 c 1
 364 345 l 1
26 -62 m 1
 127 -95 l 1
 -68 -339 l 1
 -143 -316 l 1
 26 -62 l 1
EndSplineSet
EndChar

StartChar: Scedilla
Encoding: 350 350 327
Width: 544
VWidth: 0
Flags: HMW
LayerCount: 2
Fore
SplineSet
144 236 m 1
 155 169 177 94 259 94 c 0
 318 93 376 133 397 188 c 0
 424 260 358 296 303 323 c 0
 219 363 164 428 194 526 c 0
 229 638 345 712 460 712 c 0
 559 712 616 651 636 559 c 1
 532 505 l 1
 518 556 495 604 434 605 c 0
 384 606 328 570 311 522 c 0
 287 455 370 426 416 403 c 0
 502 362 548 288 519 192 c 0
 482 70 358 -14 232 -14 c 0
 116 -14 56 73 40 179 c 1
 144 236 l 1
240 58 m 1
 324 56 l 1
 211 -58 l 1
 216 -57 221 -57 226 -57 c 0
 269 -63 292 -100 280 -142 c 0
 264 -199 198 -238 141 -239 c 0
 101 -240 71 -222 41 -199 c 1
 91 -151 l 1
 107 -163 123 -175 145 -175 c 0
 165 -175 206 -157 211 -135 c 0
 216 -114 193 -103 177 -102 c 0
 153 -100 125 -110 102 -117 c 1
 240 58 l 1
EndSplineSet
EndChar

StartChar: scedilla
Encoding: 351 351 328
Width: 399
VWidth: 0
Flags: HMW
LayerCount: 2
Fore
SplineSet
79 167 m 1
 98 127 124 77 177 78 c 0
 206 77 246 96 257 126 c 0
 272 169 225 190 194 205 c 0
 136 234 89 274 111 345 c 0
 135 423 221 470 299 470 c 0
 366 470 413 437 448 387 c 1
 373 326 l 1
 353 356 328 384 289 384 c 0
 263 385 221 371 211 343 c 0
 196 300 261 284 288 271 c 0
 345 244 385 196 366 130 c 0
 341 43 256 -12 168 -12 c 0
 84 -12 33 40 1 106 c 1
 79 167 l 1
173 60 m 1
 258 59 l 1
 145 -56 l 1
 149 -55 155 -55 159 -55 c 0
 203 -61 226 -97 215 -140 c 0
 200 -198 131 -237 74 -237 c 0
 34 -237 6 -219 -24 -196 c 1
 24 -149 l 1
 40 -161 56 -173 78 -173 c 0
 98 -173 139 -155 144 -133 c 0
 149 -112 125 -101 109 -100 c 0
 85 -98 59 -108 36 -115 c 1
 173 60 l 1
EndSplineSet
EndChar

StartChar: Zcaron
Encoding: 381 381 329
Width: 540
VWidth: 0
Flags: HMW
LayerCount: 2
Fore
SplineSet
186 590 m 1
 225 700 l 1
 716 699 l 1
 181 108 l 1
 486 107 l 1
 448 0 l 1
 -49 0 l 1
 484 589 l 1
 186 590 l 1
522 876 m 1
 649 965 l 1
 707 909 l 1
 498 773 l 1
 375 916 l 1
 457 965 l 1
 522 876 l 1
EndSplineSet
EndChar

StartChar: zcaron
Encoding: 382 382 330
Width: 453
VWidth: 0
Flags: HMW
LayerCount: 2
Fore
SplineSet
401 633 m 1
 529 722 l 1
 586 666 l 1
 377 530 l 1
 254 673 l 1
 335 723 l 1
 401 633 l 1
329 358 m 1
 113 360 l 1
 148 460 l 1
 552 459 l 1
 181 102 l 1
 403 101 l 1
 367 0 l 1
 -46 0 l 1
 329 358 l 1
EndSplineSet
EndChar

StartChar: Ydieresis
Encoding: 376 376 331
Width: 565
VWidth: 0
Flags: HMW
LayerCount: 2
Fore
SplineSet
341 845 m 0
 349 876 393 910 425 908 c 0
 459 906 481 874 473 841 c 0
 465 810 420 776 388 778 c 0
 353 780 333 812 341 845 c 0
561 845 m 0
 569 876 612 910 644 908 c 0
 678 906 701 874 693 841 c 0
 685 810 639 776 607 778 c 0
 572 780 553 812 561 845 c 0
616 699 m 1
 755 699 l 1
 387 289 l 1
 287 0 l 1
 169 0 l 1
 274 301 l 1
 189 700 l 1
 314 700 l 1
 363 405 l 1
 616 699 l 1
EndSplineSet
EndChar

StartChar: Scaron
Encoding: 352 352 332
Width: 544
VWidth: 0
Flags: HMW
LayerCount: 2
Fore
SplineSet
144 236 m 1
 155 169 177 94 259 94 c 0
 318 93 376 133 397 188 c 0
 424 260 358 296 303 323 c 0
 221 364 165 435 194 530 c 0
 228 640 348 713 460 712 c 0
 557 711 618 651 636 559 c 1
 532 504 l 1
 519 554 501 604 441 605 c 0
 390 606 329 571 311 522 c 0
 286 456 370 426 416 403 c 0
 502 362 548 288 519 192 c 0
 482 68 360 -15 232 -14 c 0
 116 -13 56 73 40 179 c 1
 144 236 l 1
517 876 m 1
 644 965 l 1
 702 909 l 1
 493 773 l 1
 370 916 l 1
 452 965 l 1
 517 876 l 1
EndSplineSet
EndChar

StartChar: scaron
Encoding: 353 353 333
Width: 399
VWidth: 0
Flags: HMW
LayerCount: 2
Fore
SplineSet
81 165 m 1
 94 120 118 79 174 79 c 0
 205 78 246 96 257 127 c 0
 272 169 215 191 185 207 c 0
 131 236 87 280 107 345 c 0
 131 424 222 468 299 469 c 0
 366 470 417 440 448 387 c 1
 374 326 l 1
 351 355 325 379 285 379 c 0
 259 379 216 365 208 337 c 0
 196 298 262 280 287 267 c 0
 341 240 383 193 366 129 c 0
 342 39 250 -14 161 -13 c 0
 77 -13 23 36 1 105 c 1
 81 165 l 1
353 628 m 1
 482 717 l 1
 539 661 l 1
 329 525 l 1
 206 668 l 1
 288 718 l 1
 353 628 l 1
EndSplineSet
EndChar

StartChar: Lslash
Encoding: 321 321 334
Width: 455
VWidth: 0
Flags: HMW
LayerCount: 2
Fore
SplineSet
65 328 m 1
 58 394 l 1
 415 591 l 1
 423 526 l 1
 65 328 l 1
256 700 m 1
 374 700 l 1
 170 107 l 1
 431 107 l 1
 394 0 l 1
 16 0 l 1
 256 700 l 1
EndSplineSet
EndChar

StartChar: lslash
Encoding: 322 322 335
Width: 231
VWidth: 0
Flags: HMW
LayerCount: 2
Fore
SplineSet
61 328 m 1
 53 394 l 1
 379 568 l 1
 386 503 l 1
 61 328 l 1
274 779 m 1
 383 780 l 1
 114 0 l 1
 10 0 l 1
 274 779 l 1
EndSplineSet
EndChar

StartChar: uni0218
Encoding: 536 536 336
Width: 544
VWidth: 0
Flags: HMW
LayerCount: 2
Fore
SplineSet
144 236 m 1
 155 169 177 94 259 94 c 0
 318 93 376 133 397 188 c 0
 424 260 358 296 303 323 c 0
 221 364 165 435 194 530 c 0
 228 640 348 713 460 712 c 0
 557 711 618 651 636 559 c 1
 532 504 l 1
 519 554 501 604 441 605 c 0
 390 606 329 571 311 522 c 0
 286 456 370 426 416 403 c 0
 502 362 548 288 519 192 c 0
 482 68 360 -15 232 -14 c 0
 116 -13 56 73 40 179 c 1
 144 236 l 1
182 -72 m 1
 283 -105 l 1
 88 -349 l 1
 11 -326 l 1
 182 -72 l 1
EndSplineSet
EndChar

StartChar: uni0219
Encoding: 537 537 337
Width: 399
VWidth: 0
Flags: HMW
LayerCount: 2
Fore
SplineSet
81 165 m 1
 94 120 117 79 173 79 c 0
 204 78 246 96 257 127 c 0
 272 169 215 191 185 207 c 0
 131 236 87 280 107 345 c 0
 131 424 222 468 299 469 c 0
 366 470 417 440 448 387 c 1
 374 326 l 1
 351 355 325 379 285 379 c 0
 259 379 216 365 208 337 c 0
 196 298 262 280 287 267 c 0
 341 240 383 193 366 129 c 0
 342 39 250 -14 161 -13 c 0
 77 -13 23 36 1 105 c 1
 81 165 l 1
111 -71 m 1
 211 -104 l 1
 17 -348 l 1
 -60 -325 l 1
 111 -71 l 1
EndSplineSet
EndChar

StartChar: pi
Encoding: 960 960 338
Width: 531
VWidth: 0
Flags: HMW
LayerCount: 2
Fore
SplineSet
174 429 m 1
 280 430 l 1
 130 0 l 1
 30 0 l 1
 174 429 l 1
129 460 m 1
 601 460 l 1
 566 364 l 1
 96 364 l 1
 129 460 l 1
411 430 m 1
 515 430 l 1
 419 156 l 1
 408 117 409 101 446 86 c 1
 415 -8 l 1
 329 -2 280 28 306 121 c 1
 411 430 l 1
EndSplineSet
EndChar

StartChar: trademark
Encoding: 8482 8482 339
Width: 656
VWidth: 0
Flags: HMW
LayerCount: 2
Fore
SplineSet
194 646 m 1
 212 699 l 1
 446 699 l 1
 428 646 l 1
 340 645 l 1
 239 351 l 1
 180 351 l 1
 279 645 l 1
 194 646 l 1
693 601 m 1
 781 729 l 1
 694 350 l 1
 635 351 l 1
 693 601 l 1
503 717 m 1
 502 590 l 1
 392 351 l 1
 330 352 l 1
 503 717 l 1
784 729 m 1
 741 613 l 1
 526 380 l 1
 470 627 l 1
 503 717 l 1
 554 484 l 1
 784 729 l 1
EndSplineSet
EndChar

StartChar: uni2219
Encoding: 8729 8729 340
Width: 290
VWidth: 0
Flags: HMW
LayerCount: 2
Fore
SplineSet
169 429 m 0
 178 462 222 498 257 496 c 0
 294 494 314 459 305 425 c 0
 296 392 252 355 217 357 c 0
 180 359 160 395 169 429 c 0
EndSplineSet
EndChar

StartChar: agrave.alt
Encoding: 65537 -1 341
Width: 553
VWidth: 0
Flags: HMW
LayerCount: 2
Fore
SplineSet
494 459 m 1
 600 460 l 1
 440 0 l 1
 339 0 l 1
 494 459 l 1
53 230 m 0
 91 351 208 471 342 470 c 0
 474 469 484 329 452 230 c 0
 416 116 323 -8 193 -9 c 0
 60 -10 18 120 53 230 c 0
163 230 m 0
 140 167 156 86 236 85 c 0
 315 84 387 161 413 230 c 0
 434 289 424 371 348 375 c 0
 266 379 189 301 163 230 c 0
291 683 m 1
 389 726 l 1
 480 562 l 1
 415 530 l 1
 291 683 l 1
EndSplineSet
EndChar

StartChar: aacute.alt
Encoding: 65538 -1 342
Width: 553
VWidth: 0
Flags: HMW
LayerCount: 2
Fore
SplineSet
494 459 m 1
 600 460 l 1
 440 1 l 1
 339 0 l 1
 494 459 l 1
53 230 m 0
 91 351 208 471 342 470 c 0
 474 469 484 329 452 230 c 0
 416 116 323 -8 193 -9 c 0
 60 -10 18 120 53 230 c 0
163 230 m 0
 140 167 156 86 236 85 c 0
 315 84 387 161 413 230 c 0
 434 289 424 371 348 375 c 0
 266 379 189 301 163 230 c 0
571 675 m 1
 354 532 l 1
 301 569 l 1
 493 724 l 1
 571 675 l 1
EndSplineSet
EndChar

StartChar: acircumflex.alt
Encoding: 65539 -1 343
Width: 553
VWidth: 0
Flags: HMW
LayerCount: 2
Fore
SplineSet
494 459 m 1
 600 460 l 1
 440 0 l 1
 339 0 l 1
 494 459 l 1
53 230 m 0
 91 351 208 471 342 470 c 0
 474 469 484 329 452 230 c 0
 416 116 323 -8 193 -9 c 0
 60 -10 18 120 53 230 c 0
163 230 m 0
 140 167 156 86 236 85 c 0
 315 84 387 161 413 230 c 0
 434 289 424 371 348 375 c 0
 266 379 189 301 163 230 c 0
443 620 m 1
 314 531 l 1
 257 587 l 1
 466 723 l 1
 590 580 l 1
 507 530 l 1
 443 620 l 1
EndSplineSet
EndChar

StartChar: atilde.alt
Encoding: 65540 -1 344
Width: 553
VWidth: 0
Flags: HMW
LayerCount: 2
Fore
SplineSet
494 459 m 1
 600 460 l 1
 440 0 l 1
 339 0 l 1
 494 459 l 1
53 230 m 0
 91 351 208 471 342 470 c 0
 474 469 484 329 452 230 c 0
 416 116 323 -8 193 -9 c 0
 60 -10 18 120 53 230 c 0
163 230 m 0
 140 167 156 86 236 85 c 0
 315 84 387 161 413 230 c 0
 434 289 424 371 348 375 c 0
 266 379 189 301 163 230 c 0
255 582 m 1
 286 625 331 665 384 665 c 0
 425 665 447 615 489 618 c 0
 519 620 543 648 564 666 c 1
 604 608 l 1
 572 574 524 530 472 534 c 0
 432 537 410 586 369 582 c 0
 339 579 320 554 303 533 c 1
 255 582 l 1
EndSplineSet
EndChar

StartChar: adieresis.alt
Encoding: 65541 -1 345
Width: 553
VWidth: 0
Flags: HMW
LayerCount: 2
Fore
SplineSet
494 459 m 1
 600 460 l 1
 440 0 l 1
 339 0 l 1
 494 459 l 1
53 230 m 0
 91 351 208 471 342 470 c 0
 474 469 484 329 452 230 c 0
 416 116 323 -8 193 -9 c 0
 60 -10 18 120 53 230 c 0
163 230 m 0
 140 167 156 86 236 85 c 0
 315 84 387 161 413 230 c 0
 434 289 424 371 348 375 c 0
 266 379 189 301 163 230 c 0
462 599 m 0
 470 630 514 663 546 661 c 0
 580 659 602 627 594 594 c 0
 586 563 541 529 509 531 c 0
 475 533 454 566 462 599 c 0
257 599 m 0
 265 630 309 663 341 661 c 0
 375 659 396 627 388 594 c 0
 380 563 336 529 304 531 c 0
 270 533 249 566 257 599 c 0
EndSplineSet
EndChar

StartChar: aring.alt
Encoding: 65542 -1 346
Width: 553
VWidth: 0
Flags: HMW
LayerCount: 2
Fore
SplineSet
494 459 m 1
 600 460 l 1
 440 0 l 1
 339 0 l 1
 494 459 l 1
53 230 m 0
 91 351 208 471 342 470 c 0
 474 469 484 329 452 230 c 0
 416 116 323 -8 193 -9 c 0
 60 -10 18 120 53 230 c 0
163 230 m 0
 140 167 156 86 236 85 c 0
 315 84 387 161 413 230 c 0
 434 289 424 371 348 375 c 0
 266 379 189 301 163 230 c 0
293 637 m 0
 309 692 372 742 430 741 c 0
 488 740 523 689 507 634 c 0
 491 579 428 530 369 531 c 0
 311 532 277 583 293 637 c 0
353 635 m 0
 347 616 356 587 378 586 c 0
 401 585 440 616 446 637 c 0
 452 656 443 684 421 685 c 0
 397 686 359 656 353 635 c 0
EndSplineSet
EndChar

StartChar: amacron.alt
Encoding: 65543 -1 347
Width: 553
VWidth: 0
Flags: HMW
LayerCount: 2
Fore
SplineSet
494 459 m 1
 600 460 l 1
 440 0 l 1
 339 0 l 1
 494 459 l 1
53 230 m 0
 91 351 208 471 342 470 c 0
 474 469 484 329 452 230 c 0
 416 116 323 -8 193 -9 c 0
 60 -10 18 120 53 230 c 0
163 230 m 0
 140 167 156 86 236 85 c 0
 315 84 387 161 413 230 c 0
 434 289 424 371 348 375 c 0
 266 379 189 301 163 230 c 0
229 546 m 1
 262 643 l 1
 604 643 l 1
 570 545 l 1
 229 546 l 1
EndSplineSet
EndChar

StartChar: abreve.alt
Encoding: 65544 -1 348
Width: 553
VWidth: 0
Flags: HMW
LayerCount: 2
Fore
SplineSet
494 459 m 1
 600 460 l 1
 440 0 l 1
 339 0 l 1
 494 459 l 1
53 230 m 0
 91 351 208 471 342 470 c 0
 474 469 484 329 452 230 c 0
 416 116 323 -8 193 -9 c 0
 60 -10 18 120 53 230 c 0
163 230 m 0
 140 167 156 86 236 85 c 0
 315 84 387 161 413 230 c 0
 434 289 424 371 348 375 c 0
 266 379 189 301 163 230 c 0
254 672 m 1
 331 671 l 1
 330 636 337 607 379 605 c 0
 424 603 454 637 477 671 c 1
 559 670 l 1
 524 592 459 531 368 531 c 0
 280 531 244 591 254 672 c 1
EndSplineSet
EndChar

StartChar: aogonek.alt
Encoding: 65545 -1 349
Width: 553
VWidth: 0
Flags: HMW
LayerCount: 2
Fore
SplineSet
494 459 m 1
 600 460 l 1
 440 1 l 1
 339 0 l 1
 494 459 l 1
53 230 m 0
 91 351 208 471 342 470 c 0
 474 469 484 329 452 230 c 0
 416 116 323 -8 193 -9 c 0
 60 -10 18 120 53 230 c 0
163 230 m 0
 140 167 156 86 236 85 c 0
 315 84 387 161 413 230 c 0
 434 289 424 371 348 375 c 0
 266 379 189 301 163 230 c 0
388 -122 m 1
 402 -183 l 1
 372 -203 341 -219 305 -219 c 0
 246 -220 202 -180 219 -119 c 0
 240 -45 329 -6 392 24 c 1
 429 0 l 1
 390 -24 326 -49 312 -98 c 0
 307 -117 311 -137 333 -141 c 0
 351 -144 373 -130 388 -122 c 1
EndSplineSet
EndChar

StartChar: dagger
Encoding: 8224 8224 350
Width: 559
VWidth: 0
Flags: HMW
LayerCount: 2
Fore
SplineSet
215 540 m 1
 611 540 l 1
 579 444 l 1
 184 444 l 1
 215 540 l 1
409 700 m 1
 514 700 l 1
 250 -150 l 1
 150 -149 l 1
 409 700 l 1
EndSplineSet
EndChar

StartChar: daggerdbl
Encoding: 8225 8225 351
Width: 559
VWidth: 0
Flags: HMW
LayerCount: 2
Fore
SplineSet
90 135 m 1
 486 135 l 1
 455 40 l 1
 60 40 l 1
 90 135 l 1
215 540 m 1
 611 540 l 1
 579 444 l 1
 184 444 l 1
 215 540 l 1
409 700 m 1
 514 700 l 1
 250 -150 l 1
 150 -149 l 1
 409 700 l 1
EndSplineSet
EndChar

StartChar: ellipsis
Encoding: 8230 8230 352
Width: 855
VWidth: 0
Flags: HMW
LayerCount: 2
Fore
SplineSet
41 54 m 0
 50 87 94 123 129 121 c 0
 166 119 186 84 177 50 c 0
 168 17 124 -20 89 -18 c 0
 52 -16 32 20 41 54 c 0
323 54 m 0
 332 87 376 123 411 121 c 0
 448 119 469 84 460 50 c 0
 451 17 406 -20 371 -18 c 0
 334 -16 314 20 323 54 c 0
605 54 m 0
 614 87 658 123 693 121 c 0
 730 119 751 84 742 50 c 0
 733 17 689 -20 654 -18 c 0
 617 -16 596 20 605 54 c 0
EndSplineSet
EndChar

StartChar: uniFF10
Encoding: 65296 65296 353
Width: 564
VWidth: 0
Flags: HMW
LayerCount: 2
Fore
SplineSet
203 350 m 0
 178 280 131 101 254 97 c 0
 378 93 457 252 492 350 c 0
 517 420 565 599 442 603 c 0
 318 607 238 448 203 350 c 0
89 350 m 0
 142 511 273 712 463 711 c 0
 657 710 650 485 606 350 c 0
 553 189 423 -12 232 -11 c 0
 38 -10 45 215 89 350 c 0
EndSplineSet
EndChar

StartChar: uniFF11
Encoding: 65297 65297 354
Width: 564
VWidth: 0
Flags: HMW
LayerCount: 2
Fore
SplineSet
230 534 m 1
 272 650 l 1
 561 713 l 1
 316 0 l 1
 202 0 l 1
 400 577 l 1
 230 534 l 1
EndSplineSet
EndChar

StartChar: uniFF12
Encoding: 65298 65298 355
Width: 564
VWidth: 0
Flags: HMW
LayerCount: 2
Fore
SplineSet
-38 0 m 1
 379 341 l 2
 430 382 492 431 514 496 c 0
 532 549 512 601 451 604 c 0
 362 608 303 523 269 453 c 1
 154 454 l 1
 206 589 319 714 475 712 c 0
 597 711 666 609 630 494 c 0
 606 416 543 353 480 304 c 2
 227 112 l 1
 509 111 l 1
 472 0 l 1
 -38 0 l 1
EndSplineSet
EndChar

StartChar: uniFF13
Encoding: 65299 65299 356
Width: 564
VWidth: 0
Flags: HMW
LayerCount: 2
Fore
SplineSet
318 343 m 1
 337 406 l 1
 404 417 480 445 505 516 c 0
 520 561 508 607 455 609 c 0
 393 611 348 562 319 514 c 1
 209 515 l 1
 255 624 350 711 474 711 c 0
 580 711 656 627 623 521 c 0
 583 392 438 350 318 343 c 1
238 -12 m 0
 110 -11 48 80 71 200 c 1
 185 199 l 1
 177 140 192 94 260 92 c 0
 326 90 392 139 415 201 c 0
 445 283 375 309 308 317 c 1
 329 384 l 1
 445 377 570 327 527 187 c 0
 489 66 361 -13 238 -12 c 0
EndSplineSet
EndChar

StartChar: uniFF14
Encoding: 65300 65300 357
Width: 564
VWidth: 0
Flags: HMW
LayerCount: 2
Fore
SplineSet
-1 135 m 1
 125 227 l 1
 398 228 l 1
 418 237 l 1
 572 237 l 1
 536 134 l 1
 -1 135 l 1
129 155 m 1
 -4 132 l 1
 555 698 l 1
 629 699 l 1
 390 0 l 1
 270 0 l 1
 329 169 l 1
 340 180 l 1
 442 474 l 1
 129 155 l 1
EndSplineSet
EndChar

StartChar: uniFF15
Encoding: 65301 65301 358
Width: 564
VWidth: 0
Flags: HMW
LayerCount: 2
Fore
SplineSet
549 227 m 0
 506 90 372 -10 228 -11 c 0
 129 -11 60 38 15 115 c 1
 105 198 l 1
 130 145 171 101 237 100 c 0
 319 99 401 157 428 235 c 0
 452 304 417 364 342 368 c 0
 272 371 205 343 142 317 c 1
 234 388 l 1
 287 428 353 461 421 460 c 0
 548 458 582 332 549 227 c 0
417 595 m 1
 294 399 l 1
 130 306 l 1
 359 699 l 1
 704 700 l 1
 669 596 l 1
 417 595 l 1
EndSplineSet
EndChar

StartChar: uniFF16
Encoding: 65302 65302 359
Width: 564
VWidth: 0
Flags: HMW
LayerCount: 2
Fore
SplineSet
177 236 m 0
 153 171 174 94 253 93 c 0
 335 92 413 163 440 237 c 0
 464 302 445 381 365 382 c 0
 282 384 204 310 177 236 c 0
484 698 m 1
 638 698 l 1
 334 426 l 1
 311 426 l 1
 346 448 380 464 423 463 c 0
 546 461 584 336 553 235 c 0
 511 98 376 -12 231 -12 c 0
 90 -12 25 108 65 236 c 0
 85 300 127 356 174 402 c 2
 484 698 l 1
EndSplineSet
EndChar

StartChar: uniFF17
Encoding: 65303 65303 360
Width: 564
VWidth: 0
Flags: HMW
LayerCount: 2
Fore
SplineSet
191 588 m 1
 230 700 l 1
 730 699 l 1
 172 0 l 1
 43 0 l 1
 514 587 l 1
 191 588 l 1
EndSplineSet
EndChar

StartChar: uniFF18
Encoding: 65304 65304 361
Width: 564
VWidth: 0
Flags: HMW
LayerCount: 2
Fore
SplineSet
214 532 m 0
 247 637 361 713 469 712 c 0
 571 711 645 633 615 530 c 0
 583 422 470 351 360 351 c 0
 256 351 182 427 214 532 c 0
318 518 m 0
 303 474 319 424 371 421 c 0
 425 418 484 470 502 519 c 0
 518 563 504 614 450 617 c 0
 394 620 336 568 318 518 c 0
74 191 m 0
 110 310 238 393 360 392 c 0
 475 392 558 305 522 189 c 0
 486 72 357 -13 236 -12 c 0
 123 -11 40 78 74 191 c 0
192 206 m 0
 172 151 193 91 257 89 c 0
 323 87 394 146 416 207 c 0
 434 260 412 320 350 322 c 0
 285 324 214 264 192 206 c 0
EndSplineSet
EndChar

StartChar: uniFF19
Encoding: 65305 65305 362
Width: 564
VWidth: 0
Flags: HMW
LayerCount: 2
Fore
SplineSet
518 464 m 0
 542 529 522 606 443 607 c 0
 361 608 282 537 255 463 c 0
 231 398 250 319 330 318 c 0
 413 316 491 390 518 464 c 0
211 2 m 1
 57 2 l 1
 361 274 l 1
 385 274 l 1
 350 252 315 236 272 237 c 0
 149 239 111 364 142 465 c 0
 184 602 319 712 464 712 c 0
 605 712 671 592 631 464 c 0
 611 400 568 344 521 298 c 2
 211 2 l 1
EndSplineSet
EndChar

StartChar: caron
Encoding: 711 711 363
Width: 451
VWidth: 0
Flags: HMW
LayerCount: 2
Fore
SplineSet
392 665 m 1
 520 754 l 1
 577 698 l 1
 369 562 l 1
 245 705 l 1
 327 755 l 1
 392 665 l 1
EndSplineSet
EndChar

StartChar: napostrophe
Encoding: 329 329 364
Width: 639
VWidth: 0
Flags: HMW
LayerCount: 2
Fore
SplineSet
401 460 m 1
 243 0 l 1
 135 0 l 1
 294 460 l 1
 401 460 l 1
513 280 m 1
 526 322 532 377 474 381 c 0
 412 385 367 329 339 282 c 1
 303 279 l 1
 342 370 415 469 525 470 c 0
 631 471 648 378 623 293 c 1
 522 0 l 1
 416 0 l 1
 513 280 l 1
296 699 m 1
 420 699 l 1
 239 461 l 1
 161 461 l 1
 296 699 l 1
EndSplineSet
EndChar

StartChar: IJ
Encoding: 306 306 365
Width: 512
VWidth: 0
Flags: HMW
LayerCount: 2
Fore
SplineSet
97 -88 m 1
 114 -107 131 -124 159 -122 c 0
 205 -119 239 -75 256 -36 c 1
 509 700 l 1
 628 700 l 1
 370 -58 l 2
 333 -155 248 -228 141 -227 c 0
 89 -226 50 -206 12 -173 c 1
 97 -88 l 1
255 699 m 1
 375 700 l 1
 133 0 l 1
 18 0 l 1
 255 699 l 1
EndSplineSet
EndChar

StartChar: ij
Encoding: 307 307 366
Width: 492
VWidth: 0
Flags: HMW
LayerCount: 2
Fore
SplineSet
467 645 m 0
 475 676 520 710 552 708 c 0
 586 706 607 674 599 641 c 0
 591 610 547 576 515 578 c 0
 481 580 459 612 467 645 c 0
134 -100 m 1
 143 -100 159 -125 170 -126 c 0
 209 -130 234 -71 245 -43 c 1
 419 460 l 1
 524 460 l 1
 345 -66 l 2
 314 -148 248 -230 151 -227 c 0
 112 -226 88 -207 61 -180 c 1
 134 -100 l 1
225 645 m 0
 233 676 277 710 309 708 c 0
 343 706 365 674 357 641 c 0
 349 610 304 576 272 578 c 0
 238 580 217 612 225 645 c 0
174 459 m 1
 282 460 l 1
 122 0 l 1
 20 0 l 1
 174 459 l 1
EndSplineSet
EndChar

StartChar: uni0237
Encoding: 567 567 367
Width: 243
VWidth: 0
Flags: HMW
LayerCount: 2
Fore
SplineSet
-116 -100 m 1
 -107 -112 -97 -126 -80 -126 c 0
 -40 -126 -17 -74 -4 -43 c 1
 169 460 l 1
 275 460 l 1
 96 -66 l 2
 65 -148 0 -230 -97 -227 c 0
 -136 -226 -162 -207 -188 -180 c 1
 -116 -100 l 1
EndSplineSet
EndChar

StartChar: Sacute
Encoding: 346 346 368
Width: 544
VWidth: 0
Flags: HMW
LayerCount: 2
Fore
SplineSet
144 236 m 1
 155 169 177 94 259 94 c 0
 318 93 376 133 397 188 c 0
 424 260 358 296 303 323 c 0
 221 364 165 435 194 530 c 0
 228 640 348 713 460 712 c 0
 557 711 618 651 636 559 c 1
 532 504 l 1
 519 554 501 604 441 605 c 0
 390 606 329 571 311 522 c 0
 286 456 370 426 416 403 c 0
 502 362 548 288 519 192 c 0
 482 68 360 -15 232 -14 c 0
 116 -13 56 73 40 179 c 1
 144 236 l 1
710 917 m 1
 493 774 l 1
 439 812 l 1
 632 966 l 1
 710 917 l 1
EndSplineSet
EndChar

StartChar: sacute
Encoding: 347 347 369
Width: 399
VWidth: 0
Flags: HMW
LayerCount: 2
Fore
SplineSet
81 165 m 1
 94 120 117 79 173 79 c 0
 204 78 246 96 257 127 c 0
 272 169 215 191 185 207 c 0
 131 236 87 280 107 345 c 0
 131 424 222 468 299 469 c 0
 366 470 417 440 448 387 c 1
 374 326 l 1
 351 355 325 379 285 379 c 0
 259 379 216 365 208 337 c 0
 196 298 262 280 287 267 c 0
 341 240 383 193 366 129 c 0
 342 39 250 -14 161 -13 c 0
 77 -13 23 36 1 105 c 1
 81 165 l 1
549 675 m 1
 332 532 l 1
 278 569 l 1
 470 724 l 1
 549 675 l 1
EndSplineSet
EndChar

StartChar: Scircumflex
Encoding: 348 348 370
Width: 544
VWidth: 0
Flags: HMW
LayerCount: 2
Fore
SplineSet
144 236 m 1
 155 169 177 94 259 94 c 0
 318 93 376 133 397 188 c 0
 424 260 358 296 303 323 c 0
 221 364 165 435 194 530 c 0
 228 640 348 713 460 712 c 0
 557 711 618 651 636 559 c 1
 532 504 l 1
 519 554 501 604 441 605 c 0
 390 606 329 571 311 522 c 0
 286 456 370 426 416 403 c 0
 502 362 548 288 519 192 c 0
 482 68 360 -15 232 -14 c 0
 116 -13 56 73 40 179 c 1
 144 236 l 1
525 862 m 1
 396 773 l 1
 340 829 l 1
 548 965 l 1
 672 822 l 1
 590 773 l 1
 525 862 l 1
EndSplineSet
EndChar

StartChar: scircumflex
Encoding: 349 349 371
Width: 399
VWidth: 0
Flags: HMW
LayerCount: 2
Fore
SplineSet
81 165 m 1
 94 120 118 79 174 79 c 0
 205 78 246 96 257 127 c 0
 272 169 215 191 185 207 c 0
 131 236 87 280 107 345 c 0
 131 424 222 468 299 469 c 0
 366 470 417 440 448 387 c 1
 374 326 l 1
 351 355 325 379 285 379 c 0
 259 379 216 365 208 337 c 0
 196 298 262 280 287 267 c 0
 341 240 383 193 366 129 c 0
 342 39 250 -14 161 -13 c 0
 77 -13 23 36 1 105 c 1
 81 165 l 1
368 620 m 1
 240 531 l 1
 183 587 l 1
 391 723 l 1
 515 580 l 1
 433 530 l 1
 368 620 l 1
EndSplineSet
EndChar

StartChar: uni1E9E
Encoding: 7838 7838 372
Width: 740
VWidth: 0
Flags: HMW
LayerCount: 2
Fore
SplineSet
417 -12 m 0
 289 -11 232 82 255 200 c 1
 361 199 l 1
 353 140 369 94 437 92 c 0
 503 90 570 139 592 201 c 0
 621 283 552 309 485 317 c 1
 504 379 l 1
 619 373 746 323 703 184 c 0
 666 65 538 -13 417 -12 c 0
495 346 m 1
 514 406 l 1
 580 416 654 444 678 514 c 0
 703 585 627 610 570 610 c 0
 423 609 311 496 261 365 c 1
 135 0 l 1
 18 0 l 1
 147 376 l 2
 213 564 380 709 586 710 c 0
 692 710 841 662 801 528 c 0
 762 397 616 354 495 346 c 1
EndSplineSet
EndChar

StartChar: Zacute
Encoding: 377 377 373
Width: 540
VWidth: 0
Flags: HW
LayerCount: 2
Fore
SplineSet
186 590 m 1
 225 700 l 1
 716 699 l 1
 181 108 l 1
 486 107 l 1
 448 0 l 1
 -49 0 l 1
 484 589 l 1
 186 590 l 1
701 917 m 1
 484 774 l 1
 430 812 l 1
 623 966 l 1
 701 917 l 1
EndSplineSet
EndChar

StartChar: zacute
Encoding: 378 378 374
Width: 455
VWidth: 0
Flags: HW
LayerCount: 2
Fore
SplineSet
328 358 m 1
 113 360 l 1
 148 460 l 1
 552 459 l 1
 182 102 l 1
 403 100 l 1
 367 0 l 1
 -46 0 l 1
 328 358 l 1
585 690 m 1
 368 547 l 1
 314 584 l 1
 507 739 l 1
 585 690 l 1
EndSplineSet
EndChar

StartChar: Zdotaccent
Encoding: 379 379 375
Width: 540
VWidth: 0
Flags: HW
LayerCount: 2
Fore
SplineSet
186 590 m 1
 225 700 l 1
 716 699 l 1
 181 108 l 1
 486 107 l 1
 448 0 l 1
 -49 0 l 1
 484 589 l 1
 186 590 l 1
449 841 m 0
 457 872 502 906 534 904 c 0
 568 902 590 869 582 836 c 0
 574 805 528 772 496 774 c 0
 462 776 441 808 449 841 c 0
EndSplineSet
EndChar

StartChar: zdotaccent
Encoding: 380 380 376
Width: 455
VWidth: 0
Flags: HW
LayerCount: 2
Fore
SplineSet
328 358 m 1
 113 360 l 1
 148 460 l 1
 552 459 l 1
 182 102 l 1
 403 100 l 1
 367 0 l 1
 -46 0 l 1
 328 358 l 1
336 621 m 0
 344 652 389 686 421 684 c 0
 455 682 476 649 468 616 c 0
 460 585 416 552 384 554 c 0
 350 556 328 588 336 621 c 0
EndSplineSet
EndChar

StartChar: Tcaron
Encoding: 356 356 377
Width: 474
VWidth: 0
Flags: HW
LayerCount: 2
Fore
SplineSet
151 590 m 1
 190 700 l 1
 655 700 l 1
 617 590 l 1
 443 590 l 1
 241 0 l 1
 124 0 l 1
 327 590 l 1
 151 590 l 1
476 876 m 1
 604 965 l 1
 661 909 l 1
 452 773 l 1
 329 916 l 1
 411 965 l 1
 476 876 l 1
EndSplineSet
EndChar

StartChar: tcaron
Encoding: 357 357 378
Width: 380
VWidth: 0
Flags: HW
LayerCount: 2
Fore
SplineSet
106 460 m 1
 357 460 l 1
 323 364 l 1
 72 364 l 1
 106 460 l 1
232 619 m 1
 339 620 l 1
 125 0 l 1
 23 0 l 1
 232 619 l 1
525 798 m 1
 626 765 l 1
 431 521 l 1
 356 544 l 1
 525 798 l 1
EndSplineSet
EndChar

StartChar: Uring
Encoding: 366 366 379
Width: 617
VWidth: 0
Flags: HW
LayerCount: 2
Fore
SplineSet
252 700 m 1
 369 700 l 1
 207 235 l 2
 187 169 196 94 280 93 c 0
 381 92 434 160 461 235 c 1
 621 700 l 1
 738 700 l 1
 577 230 l 2
 530 94 431 -17 258 -17 c 0
 114 -17 49 102 91 230 c 1
 252 700 l 1
449.022460938 881.014648438 m 0
 465.022460938 936.014648438 529.022460938 985.014648438 587.022460938 984.014648438 c 0
 645.022460938 983.014648438 679.022460938 932.014648438 663.022460938 877.014648438 c 0
 647.022460938 822.014648438 584.022460938 772.014648438 525.022460938 773.014648438 c 0
 467.022460938 774.014648438 433.022460938 827.014648438 449.022460938 881.014648438 c 0
509.022460938 877.014648438 m 0
 503.022460938 858.014648438 512.022460938 832.014648438 534.022460938 829.014648438 c 0
 557.022460938 826.014648438 596.022460938 859.014648438 602.022460938 880.014648438 c 0
 608.022460938 899.014648438 599.022460938 926.014648438 577.022460938 929.014648438 c 0
 554.022460938 932.014648438 515.022460938 898.014648438 509.022460938 877.014648438 c 0
EndSplineSet
EndChar

StartChar: uring
Encoding: 367 367 380
Width: 512
VWidth: 0
Flags: HW
LayerCount: 2
Fore
SplineSet
288 0 m 1
 447 460 l 1
 555 460 l 1
 396 0 l 1
 288 0 l 1
177 180 m 1
 164 138 159 83 216 79 c 0
 278 75 323 131 351 178 c 1
 379 181 l 1
 342 90 274 -9 165 -10 c 0
 59 -11 41 82 66 167 c 1
 167 460 l 1
 273 459 l 1
 177 180 l 1
314.01171875 638.014648438 m 0
 330.01171875 693.014648438 394.01171875 742.014648438 452.01171875 741.014648438 c 0
 510.01171875 740.014648438 544.01171875 689.014648438 528.01171875 634.014648438 c 0
 512.01171875 579.014648438 449.01171875 529.014648438 390.01171875 530.014648438 c 0
 332.01171875 531.014648438 298.01171875 584.014648438 314.01171875 638.014648438 c 0
374.01171875 634.014648438 m 0
 368.01171875 615.014648438 377.01171875 589.014648438 399.01171875 586.014648438 c 0
 422.01171875 583.014648438 461.01171875 616.014648438 467.01171875 637.014648438 c 0
 473.01171875 656.014648438 464.01171875 683.014648438 442.01171875 686.014648438 c 0
 419.01171875 689.014648438 380.01171875 655.014648438 374.01171875 634.014648438 c 0
EndSplineSet
EndChar

StartChar: Wcircumflex
Encoding: 372 372 381
Width: 959
VWidth: 0
Flags: HW
LayerCount: 2
Fore
SplineSet
691 227 m 1
 1002 699 l 1
 1145 699 l 1
 622 -44 l 1
 587 450 l 1
 215 -44 l 1
 192 700 l 1
 322 700 l 1
 312 229 l 1
 676 742 l 1
 691 227 l 1
735 886 m 1
 606 798 l 1
 548 855 l 1
 754 990 l 1
 880 846 l 1
 799 797 l 1
 735 886 l 1
EndSplineSet
EndChar

StartChar: wcircumflex
Encoding: 373 373 382
Width: 670
VWidth: 0
Flags: HW
LayerCount: 2
Fore
SplineSet
105 460 m 1
 214 460 l 1
 219 194 l 1
 447 501 l 1
 465 192 l 1
 658 459 l 1
 782 459 l 1
 404 -38 l 1
 377 271 l 1
 137 -38 l 1
 105 460 l 1
506 646 m 1
 378 558 l 1
 319 614 l 1
 526 750 l 1
 652 606 l 1
 571 556 l 1
 506 646 l 1
EndSplineSet
EndChar

StartChar: Ycircumflex
Encoding: 374 374 383
Width: 565
VWidth: 0
Flags: HW
LayerCount: 2
Fore
SplineSet
615 699 m 1
 757 699 l 1
 387 287 l 1
 288 0 l 1
 168 0 l 1
 274 304 l 1
 190 700 l 1
 313 700 l 1
 362 407 l 1
 615 699 l 1
529 862 m 1
 400 774 l 1
 342 831 l 1
 548 966 l 1
 674 822 l 1
 593 773 l 1
 529 862 l 1
EndSplineSet
EndChar

StartChar: ycircumflex
Encoding: 375 375 384
Width: 444
VWidth: 0
Flags: HW
LayerCount: 2
Fore
SplineSet
559 459 m 1
 43 -219 l 1
 -79 -219 l 1
 137 62 l 1
 101 460 l 1
 216 460 l 1
 231 96 l 1
 179 101 l 1
 436 459 l 1
 559 459 l 1
385 620 m 1
 257 532 l 1
 198 588 l 1
 405 724 l 1
 531 580 l 1
 450 530 l 1
 385 620 l 1
EndSplineSet
EndChar

StartChar: Utilde
Encoding: 360 360 385
Width: 617
VWidth: 0
Flags: HW
LayerCount: 2
Fore
SplineSet
252 700 m 1
 369 700 l 1
 207 235 l 2
 187 169 196 94 280 93 c 0
 381 92 434 160 461 235 c 1
 621 700 l 1
 738 700 l 1
 577 230 l 2
 530 94 431 -17 258 -17 c 0
 114 -17 49 102 91 230 c 1
 252 700 l 1
366.3515625 822 m 1
 395.3515625 862 438.3515625 908 492.3515625 905 c 0
 533.3515625 903 557.3515625 855 599.3515625 858 c 0
 628.3515625 860 653.3515625 889 673.3515625 907 c 1
 715.3515625 848 l 1
 683.3515625 813 637.3515625 770 585.3515625 774 c 0
 545.3515625 777 519.3515625 826 478.3515625 822 c 0
 448.3515625 819 431.3515625 795 415.3515625 773 c 1
 366.3515625 822 l 1
EndSplineSet
EndChar

StartChar: utilde
Encoding: 361 361 386
Width: 512
VWidth: 0
Flags: HW
LayerCount: 2
Fore
SplineSet
288 0 m 1
 447 460 l 1
 555 460 l 1
 396 0 l 1
 288 0 l 1
177 180 m 1
 164 138 159 83 216 79 c 0
 278 75 323 131 351 178 c 1
 379 181 l 1
 342 90 274 -9 165 -10 c 0
 59 -11 41 82 66 167 c 1
 167 460 l 1
 273 459 l 1
 177 180 l 1
231.33984375 579 m 1
 260.33984375 619 303.33984375 665 357.33984375 662 c 0
 398.33984375 660 422.33984375 612 464.33984375 615 c 0
 493.33984375 617 518.33984375 646 538.33984375 664 c 1
 580.33984375 605 l 1
 548.33984375 570 502.33984375 527 450.33984375 531 c 0
 410.33984375 534 384.33984375 583 343.33984375 579 c 0
 313.33984375 576 296.33984375 552 280.33984375 530 c 1
 231.33984375 579 l 1
EndSplineSet
EndChar

StartChar: Umacron
Encoding: 362 362 387
Width: 617
VWidth: 0
Flags: HW
LayerCount: 2
Fore
SplineSet
252 700 m 1
 369 700 l 1
 207 235 l 2
 187 169 196 94 280 93 c 0
 381 92 434 160 461 235 c 1
 621 700 l 1
 738 700 l 1
 577 230 l 2
 530 94 431 -17 258 -17 c 0
 114 -17 49 102 91 230 c 1
 252 700 l 1
350.13671875 773 m 1
 381.13671875 872 l 1
 722.13671875 872 l 1
 692.13671875 773 l 1
 350.13671875 773 l 1
EndSplineSet
EndChar

StartChar: umacron
Encoding: 363 363 388
Width: 512
VWidth: 0
Flags: HW
LayerCount: 2
Fore
SplineSet
288 0 m 1
 447 460 l 1
 555 460 l 1
 396 0 l 1
 288 0 l 1
177 180 m 1
 164 138 159 83 216 79 c 0
 278 75 323 131 351 178 c 1
 379 181 l 1
 342 90 274 -9 165 -10 c 0
 59 -11 41 82 66 167 c 1
 167 460 l 1
 273 459 l 1
 177 180 l 1
215.125976562 530 m 1
 246.125976562 629 l 1
 587.125976562 629 l 1
 557.125976562 530 l 1
 215.125976562 530 l 1
EndSplineSet
EndChar

StartChar: Ubreve
Encoding: 364 364 389
Width: 617
VWidth: 0
Flags: HW
LayerCount: 2
Fore
SplineSet
252 700 m 1
 369 700 l 1
 207 235 l 2
 187 169 196 94 280 93 c 0
 381 92 434 160 461 235 c 1
 621 700 l 1
 738 700 l 1
 577 230 l 2
 530 94 431 -17 258 -17 c 0
 114 -17 49 102 91 230 c 1
 252 700 l 1
414.985351562 915 m 1
 491.985351562 915 l 1
 490.985351562 880 498.985351562 849 540.985351562 847 c 0
 585.985351562 845 615.985351562 880 637.985351562 914 c 1
 719.985351562 913 l 1
 685.985351562 835 621.985351562 773 530.985351562 773 c 0
 442.985351562 773 405.985351562 834 414.985351562 915 c 1
EndSplineSet
EndChar

StartChar: ubreve
Encoding: 365 365 390
Width: 512
VWidth: 0
Flags: HW
LayerCount: 2
Fore
SplineSet
288 0 m 1
 447 460 l 1
 555 460 l 1
 396 0 l 1
 288 0 l 1
177 180 m 1
 164 138 159 83 216 79 c 0
 278 75 323 131 351 178 c 1
 379 181 l 1
 342 90 274 -9 165 -10 c 0
 59 -11 41 82 66 167 c 1
 167 460 l 1
 273 459 l 1
 177 180 l 1
279.974609375 672 m 1
 356.974609375 672 l 1
 355.974609375 637 363.974609375 606 405.974609375 604 c 0
 450.974609375 602 480.974609375 637 502.974609375 671 c 1
 584.974609375 670 l 1
 550.974609375 592 486.974609375 530 395.974609375 530 c 0
 307.974609375 530 270.974609375 591 279.974609375 672 c 1
EndSplineSet
EndChar

StartChar: uni0123
Encoding: 291 291 391
Width: 536
VWidth: 0
Flags: HW
LayerCount: 2
Fore
SplineSet
-67 -31 m 1
 35 -32 l 1
 28 -91 46 -137 113 -139 c 0
 199 -141 266 -63 296 10 c 1
 452 460 l 1
 560 460 l 1
 407 10 l 2
 360 -119 250 -232 105 -233 c 0
 -21 -234 -84 -152 -67 -31 c 1
15 233 m 0
 52 354 166 471 299 470 c 0
 430 469 447 334 416 232 c 0
 382 119 289 -3 160 -4 c 0
 27 -6 -19 121 15 233 c 0
126 232 m 0
 103 170 117 91 196 90 c 0
 274 89 348 164 374 233 c 0
 396 291 388 371 313 375 c 0
 232 380 153 303 126 232 c 0
378 546 m 1
 284 599 l 1
 503 819 l 1
 575 781 l 1
 378 546 l 1
EndSplineSet
EndChar

StartChar: Hbar
Encoding: 294 294 392
Width: 699
VWidth: 0
Flags: HW
LayerCount: 2
Fore
SplineSet
133 322 m 1
 169 430 l 1
 647 430 l 1
 610 322 l 1
 133 322 l 1
656 699 m 1
 779 700 l 1
 537 0 l 1
 421 0 l 1
 656 699 l 1
214 699 m 1
 337 700 l 1
 94 0 l 1
 -21 0 l 1
 214 699 l 1
95 540 m 1
 124 627 l 1
 822 626 l 1
 793 540 l 1
 95 540 l 1
EndSplineSet
EndChar

StartChar: hbar
Encoding: 295 295 393
Width: 509
VWidth: 0
Flags: HW
LayerCount: 2
Fore
SplineSet
346 780 m 1
 77 0 l 1
 -33 0 l 1
 236 780 l 1
 346 780 l 1
347 280 m 1
 360 321 367 376 310 380 c 0
 248 385 202 329 174 282 c 1
 144 283 l 1
 180 374 248 471 356 472 c 0
 462 473 480 381 456 295 c 1
 355 0 l 1
 250 0 l 1
 347 280 l 1
120 614 m 1
 153 711 l 1
 461 711 l 1
 428 614 l 1
 120 614 l 1
EndSplineSet
EndChar

StartChar: uni0400
Encoding: 1024 1024 394
Width: 517
VWidth: 0
Flags: HW
LayerCount: 2
Fore
SplineSet
88 0 m 1
 122 104 l 1
 461 104 l 1
 426 0 l 1
 88 0 l 1
291 596 m 1
 325 700 l 1
 664 700 l 1
 629 596 l 1
 291 596 l 1
198 324 m 1
 232 426 l 1
 552 426 l 1
 517 324 l 1
 198 324 l 1
252 699 m 1
 373 700 l 1
 130 0 l 1
 18 0 l 1
 252 699 l 1
376 926 m 1
 471 967 l 1
 568 803 l 1
 504 772 l 1
 376 926 l 1
EndSplineSet
EndChar

StartChar: uni0401
Encoding: 1025 1025 395
Width: 517
VWidth: 0
Flags: HW
LayerCount: 2
Fore
SplineSet
88 0 m 1
 122 104 l 1
 461 104 l 1
 426 0 l 1
 88 0 l 1
291 596 m 1
 325 700 l 1
 664 700 l 1
 629 596 l 1
 291 596 l 1
198 324 m 1
 232 426 l 1
 552 426 l 1
 517 324 l 1
 198 324 l 1
252 699 m 1
 373 700 l 1
 130 0 l 1
 18 0 l 1
 252 699 l 1
559 841 m 0
 566 872 610 905 642 903 c 0
 676 901 699 870 692 836 c 0
 685 805 641 771 609 773 c 0
 575 775 552 807 559 841 c 0
354 841 m 0
 361 872 405 905 437 903 c 0
 471 901 494 870 487 836 c 0
 480 805 436 771 404 773 c 0
 370 775 347 807 354 841 c 0
EndSplineSet
EndChar

StartChar: uni0403
Encoding: 1027 1027 396
Width: 436
VWidth: 0
Flags: HW
LayerCount: 2
Fore
SplineSet
254 699 m 1
 617 700 l 1
 578 590 l 1
 339 590 l 1
 135 0 l 1
 20 0 l 1
 254 699 l 1
660 916 m 1
 447 773 l 1
 391 811 l 1
 579 965 l 1
 660 916 l 1
EndSplineSet
EndChar

StartChar: uni040C
Encoding: 1036 1036 397
Width: 531
VWidth: 0
Flags: HW
LayerCount: 2
Fore
SplineSet
252 699 m 1
 378 700 l 1
 135 0 l 1
 18 0 l 1
 252 699 l 1
608 699 m 1
 763 699 l 1
 361 363 l 1
 523 0 l 1
 394 0 l 1
 226 378 l 1
 608 699 l 1
709 910 m 1
 495 768 l 1
 438 809 l 1
 628 962 l 1
 709 910 l 1
EndSplineSet
EndChar

StartChar: uni040D
Encoding: 1037 1037 398
Width: 735
VWidth: 0
Flags: HW
LayerCount: 2
Fore
SplineSet
801 565 m 1
 -5 -49 l 1
 66 135 l 1
 871 750 l 1
 801 565 l 1
372 700 m 1
 163 90 l 1
 -5 -49 l 1
 255 700 l 1
 372 700 l 1
871 750 m 1
 612 0 l 1
 495 0 l 1
 702 607 l 1
 871 750 l 1
445 905 m 1
 542 947 l 1
 635 780 l 1
 572 750 l 1
 445 905 l 1
EndSplineSet
EndChar

StartChar: uni040E
Encoding: 1038 1038 399
Width: 546
VWidth: 0
Flags: HW
LayerCount: 2
Fore
SplineSet
745 700 m 1
 194 0 l 1
 61 0 l 1
 229 220 l 1
 183 700 l 1
 305 700 l 1
 329 252 l 1
 271 257 l 1
 611 700 l 1
 745 700 l 1
370 915 m 1
 447 914 l 1
 446 879 453 849 494 847 c 0
 539 845 570 879 593 913 c 1
 676 912 l 1
 642 834 577 773 487 773 c 0
 399 773 361 833 370 915 c 1
EndSplineSet
EndChar

StartChar: uni0410
Encoding: 1040 1040 400
Width: 648
VWidth: 0
Flags: HW
LayerCount: 2
Fore
SplineSet
158 181 m 1
 211 278 l 1
 524 279 l 1
 512 178 l 1
 158 181 l 1
450 501 m 1
 257 244 l 1
 248 218 l 1
 82 0 l 1
 -61 0 l 1
 522 746 l 1
 592 0 l 1
 468 0 l 1
 450 213 l 1
 459 242 l 1
 450 501 l 1
EndSplineSet
EndChar

StartChar: uni0411
Encoding: 1041 1041 401
Width: 563
VWidth: 0
Flags: HW
LayerCount: 2
Fore
SplineSet
173 324 m 1
 209 426 l 1
 382 426 l 1
 502 422 584 335 548 213 c 0
 511 87 388 4 260 0 c 1
 60 0 l 1
 98 104 l 1
 261 104 l 2
 332 107 403 144 430 214 c 0
 455 279 417 318 353 322 c 1
 173 324 l 1
254 699 m 1
 665 700 l 1
 629 596 l 1
 342 596 l 1
 136 0 l 1
 20 0 l 1
 254 699 l 1
EndSplineSet
EndChar

StartChar: uni0412
Encoding: 1042 1042 402
Width: 566
VWidth: 0
Flags: HW
LayerCount: 2
Fore
SplineSet
226 362 m 1
 246 418 l 1
 345 419 l 1
 403 423 467 453 489 511 c 0
 509 564 478 597 426 601 c 1
 342 602 l 1
 167 98 l 1
 246 99 l 1
 321 103 398 142 425 215 c 0
 450 283 410 321 344 326 c 1
 214 328 l 1
 237 392 l 1
 354 393 l 1
 467 390 576 330 540 201 c 0
 503 69 371 4 242 0 c 1
 15 0 l 1
 255 700 l 1
 446 700 l 1
 550 696 647 639 612 523 c 0
 579 411 459 365 352 362 c 2
 226 362 l 1
EndSplineSet
EndChar

StartChar: uni0413
Encoding: 1043 1043 403
Width: 436
VWidth: 0
Flags: HW
LayerCount: 2
Fore
SplineSet
254 699 m 1
 617 700 l 1
 578 590 l 1
 339 590 l 1
 135 0 l 1
 20 0 l 1
 254 699 l 1
EndSplineSet
EndChar

StartChar: uni0414
Encoding: 1044 1044 404
Width: 781
VWidth: 0
Flags: HW
LayerCount: 2
Fore
SplineSet
508 492 m 1
 187 31 l 1
 46 31 l 1
 585 742 l 1
 632 30 l 1
 512 30 l 1
 508 492 l 1
580 0 m 1
 95 0 l 1
 56 -109 l 1
 -57 -109 l 1
 17 107 l 1
 727 107 l 1
 650 -109 l 1
 540 -109 l 1
 580 0 l 1
EndSplineSet
EndChar

StartChar: uni0415
Encoding: 1045 1045 405
Width: 538
VWidth: 0
Flags: HW
LayerCount: 2
Fore
SplineSet
89 0 m 1
 123 104 l 1
 462 104 l 1
 427 0 l 1
 89 0 l 1
291 596 m 1
 326 700 l 1
 665 700 l 1
 629 596 l 1
 291 596 l 1
199 324 m 1
 233 426 l 1
 553 426 l 1
 518 324 l 1
 199 324 l 1
253 699 m 1
 374 700 l 1
 131 0 l 1
 18 0 l 1
 253 699 l 1
EndSplineSet
EndChar

StartChar: uni0416
Encoding: 1046 1046 406
Width: 915
VWidth: 0
Flags: HW
LayerCount: 2
Fore
SplineSet
331 700 m 1
 502 361 l 1
 92 0 l 1
 -62 0 l 1
 371 381 l 1
 206 700 l 1
 331 700 l 1
583 699 m 1
 709 700 l 1
 466 0 l 1
 349 0 l 1
 583 699 l 1
937 699 m 1
 1095 699 l 1
 691 363 l 1
 854 0 l 1
 726 0 l 1
 565 380 l 1
 937 699 l 1
EndSplineSet
EndChar

StartChar: uni0417
Encoding: 1047 1047 407
Width: 593
VWidth: 0
Flags: HW
LayerCount: 2
Fore
SplineSet
336 343 m 1
 353 405 l 1
 426 413 519 437 547 514 c 0
 568 571 533 608 476 609 c 0
 406 611 350 570 313 514 c 1
 201 515 l 1
 248 635 358 711 488 711 c 0
 596 711 701 641 666 521 c 0
 626 383 460 349 336 343 c 1
263 -12 m 0
 129 -12 39 62 61 200 c 1
 174 199 l 1
 168 128 201 93 274 92 c 0
 348 91 429 128 457 201 c 0
 492 293 397 312 329 318 c 1
 348 385 l 1
 466 381 614 336 571 187 c 0
 533 55 392 -12 263 -12 c 0
EndSplineSet
EndChar

StartChar: uni0418
Encoding: 1048 1048 408
Width: 735
VWidth: 0
Flags: HW
LayerCount: 2
Fore
SplineSet
801 565 m 1
 -5 -49 l 1
 66 135 l 1
 871 750 l 1
 801 565 l 1
372 700 m 1
 163 90 l 1
 -5 -49 l 1
 255 700 l 1
 372 700 l 1
871 750 m 1
 612 0 l 1
 495 0 l 1
 702 607 l 1
 871 750 l 1
EndSplineSet
EndChar

StartChar: uni0419
Encoding: 1049 1049 409
Width: 735
VWidth: 0
Flags: HW
LayerCount: 2
Fore
SplineSet
801 565 m 1
 -5 -49 l 1
 66 135 l 1
 871 750 l 1
 801 565 l 1
372 700 m 1
 163 90 l 1
 -5 -49 l 1
 255 700 l 1
 372 700 l 1
871 750 m 1
 612 0 l 1
 495 0 l 1
 702 607 l 1
 871 750 l 1
462 914 m 1
 539 914 l 1
 538 879 545 849 587 847 c 0
 632 845 663 879 685 913 c 1
 767 912 l 1
 733 834 668 773 577 773 c 0
 489 773 453 833 462 914 c 1
EndSplineSet
EndChar

StartChar: uni041A
Encoding: 1050 1050 410
Width: 586
VWidth: 0
Flags: HW
LayerCount: 2
Fore
SplineSet
252 699 m 1
 378 700 l 1
 135 0 l 1
 18 0 l 1
 252 699 l 1
608 699 m 1
 763 699 l 1
 361 363 l 1
 523 0 l 1
 394 0 l 1
 226 378 l 1
 608 699 l 1
EndSplineSet
EndChar

StartChar: uni041B
Encoding: 1051 1051 411
Width: 661
VWidth: 0
Flags: HW
LayerCount: 2
Fore
SplineSet
776 700 m 1
 535 0 l 1
 415 0 l 1
 618 590 l 1
 364 590 l 1
 253 262 l 2
 203 119 111 19 -44 2 c 1
 -15 101 l 1
 66 125 106 195 135 271 c 1
 283 700 l 1
 776 700 l 1
EndSplineSet
EndChar

StartChar: uni041C
Encoding: 1052 1052 412
Width: 793
VWidth: 0
Flags: HW
LayerCount: 2
Fore
SplineSet
292 422 m 1
 101 0 l 1
 -25 0 l 1
 320 737 l 1
 426 266 l 1
 871 749 l 1
 705 0 l 1
 584 0 l 1
 683 409 l 1
 368 61 l 1
 292 422 l 1
EndSplineSet
EndChar

StartChar: uni041D
Encoding: 1053 1053 413
Width: 700
VWidth: 0
Flags: HW
LayerCount: 2
Fore
SplineSet
172 321 m 1
 208 430 l 1
 686 430 l 1
 648 321 l 1
 172 321 l 1
695 699 m 1
 818 700 l 1
 575 0 l 1
 460 0 l 1
 695 699 l 1
252 699 m 1
 376 700 l 1
 133 0 l 1
 18 0 l 1
 252 699 l 1
EndSplineSet
EndChar

StartChar: uni041E
Encoding: 1054 1054 414
Width: 754
VWidth: 0
Flags: HW
LayerCount: 2
Fore
SplineSet
223 350 m 0
 182 241 208 104 347 102 c 0
 489 100 616 224 663 350 c 0
 704 460 678 596 539 598 c 0
 397 600 270 476 223 350 c 0
97 350 m 0
 157 542 347 714 555 713 c 0
 756 712 844 528 789 350 c 0
 729 157 539 -16 330 -15 c 0
 128 -14 42 172 97 350 c 0
EndSplineSet
EndChar

StartChar: uni041F
Encoding: 1055 1055 415
Width: 693
VWidth: 0
Flags: HW
LayerCount: 2
Fore
SplineSet
654 591 m 1
 340 590 l 1
 138 0 l 1
 16 0 l 1
 257 700 l 1
 808 700 l 1
 567 0 l 1
 450 0 l 1
 654 591 l 1
EndSplineSet
EndChar

StartChar: uni0420
Encoding: 1056 1056 416
Width: 546
VWidth: 0
Flags: HW
LayerCount: 2
Fore
SplineSet
253 699 m 1
 376 700 l 1
 133 0 l 1
 18 0 l 1
 253 699 l 1
287 596 m 1
 323 700 l 1
 446 700 l 1
 572 695 663 612 624 481 c 0
 584 348 454 270 320 265 c 1
 172 265 l 1
 210 369 l 1
 334 369 l 2
 407 372 481 412 509 483 c 0
 534 549 498 591 432 595 c 1
 287 596 l 1
EndSplineSet
EndChar

StartChar: uni0421
Encoding: 1057 1057 417
Width: 649
VWidth: 0
Flags: HW
LayerCount: 2
Fore
SplineSet
225 350 m 0
 183 241 216 108 352 105 c 0
 443 103 527 151 599 201 c 1
 559 61 l 1
 490 17 414 -14 331 -13 c 0
 130 -12 41 172 97 350 c 0
 157 545 347 712 556 713 c 0
 632 714 695 688 751 637 c 1
 709 497 l 1
 672 561 617 595 542 595 c 0
 402 594 273 476 225 350 c 0
EndSplineSet
EndChar

StartChar: uni0422
Encoding: 1058 1058 418
Width: 475
VWidth: 0
Flags: HW
LayerCount: 2
Fore
SplineSet
150 590 m 1
 189 700 l 1
 657 700 l 1
 619 590 l 1
 445 590 l 1
 243 0 l 1
 123 0 l 1
 326 590 l 1
 150 590 l 1
EndSplineSet
EndChar

StartChar: uni0423
Encoding: 1059 1059 419
Width: 551
VWidth: 0
Flags: HW
LayerCount: 2
Fore
SplineSet
749 700 m 1
 199 0 l 1
 64 0 l 1
 232 220 l 1
 183 700 l 1
 308 700 l 1
 332 252 l 1
 273 257 l 1
 613 700 l 1
 749 700 l 1
EndSplineSet
EndChar

StartChar: uni0424
Encoding: 1060 1060 420
Width: 793
VWidth: 0
Flags: HW
LayerCount: 2
Fore
SplineSet
520 699 m 1
 644 700 l 1
 402 0 l 1
 285 0 l 1
 520 699 l 1
707 350 m 0
 748 455 668 505 572 508 c 1
 484 509 l 2
 375 506 260 458 218 350 c 0
 177 245 257 195 353 192 c 1
 441 191 l 2
 550 194 665 242 707 350 c 0
826 350 m 0
 775 183 606 84 438 80 c 1
 326 80 l 1
 172 83 50 188 99 350 c 0
 150 517 319 616 487 620 c 1
 599 620 l 1
 753 617 875 512 826 350 c 0
EndSplineSet
EndChar

StartChar: uni0425
Encoding: 1061 1061 421
Width: 596
VWidth: 0
Flags: HW
LayerCount: 2
Fore
SplineSet
600 699 m 1
 753 699 l 1
 428 354 l 1
 515 0 l 1
 384 0 l 1
 337 262 l 1
 103 0 l 1
 -50 0 l 1
 304 373 l 1
 225 700 l 1
 356 700 l 1
 396 471 l 1
 600 699 l 1
EndSplineSet
EndChar

StartChar: uni0426
Encoding: 1062 1062 422
Width: 753
VWidth: 0
Flags: HW
LayerCount: 2
Fore
SplineSet
169 109 m 1
 494 110 l 1
 697 700 l 1
 818 700 l 1
 615 110 l 1
 706 110 l 1
 626 -120 l 1
 516 -120 l 1
 557 0 l 1
 15 0 l 1
 256 700 l 1
 372 699 l 1
 169 109 l 1
EndSplineSet
EndChar

StartChar: uni0427
Encoding: 1063 1063 423
Width: 617
VWidth: 0
Flags: HW
LayerCount: 2
Fore
SplineSet
318 257 m 1
 369 361 l 1
 559 361 l 1
 522 256 l 1
 318 257 l 1
608 699 m 1
 733 700 l 1
 491 0 l 1
 373 0 l 1
 608 699 l 1
372 700 m 1
 303 506 l 1
 277 431 296 361 369 361 c 1
 318 257 l 1
 198 257 150 377 186 497 c 1
 255 700 l 1
 372 700 l 1
EndSplineSet
EndChar

StartChar: uni0428
Encoding: 1064 1064 424
Width: 963
VWidth: 0
Flags: HW
LayerCount: 2
Fore
SplineSet
755 110 m 1
 958 700 l 1
 1078 700 l 1
 838 0 l 1
 17 0 l 1
 257 700 l 1
 377 700 l 1
 174 110 l 1
 406 110 l 1
 609 700 l 1
 726 700 l 1
 523 110 l 1
 755 110 l 1
EndSplineSet
EndChar

StartChar: uni0429
Encoding: 1065 1065 425
Width: 1015
VWidth: 0
Flags: HW
LayerCount: 2
Fore
SplineSet
755 110 m 1
 958 700 l 1
 1078 700 l 1
 875 110 l 1
 966 110 l 1
 886 -120 l 1
 776 -120 l 1
 818 0 l 1
 17 0 l 1
 257 700 l 1
 377 700 l 1
 174 110 l 1
 406 110 l 1
 609 700 l 1
 726 700 l 1
 523 110 l 1
 755 110 l 1
EndSplineSet
EndChar

StartChar: uni042A
Encoding: 1066 1066 426
Width: 648
VWidth: 0
Flags: HW
LayerCount: 2
Fore
SplineSet
301 331 m 1
 336 435 l 1
 460 435 l 2
 586 434 677 348 638 217 c 0
 598 84 468 1 334 0 c 2
 186 0 l 1
 224 104 l 1
 347 104 l 2
 420 107 495 147 523 218 c 0
 548 284 511 329 445 330 c 2
 301 331 l 1
327 591 m 1
 152 591 l 1
 191 700 l 1
 480 700 l 1
 239 0 l 1
 124 0 l 1
 327 591 l 1
EndSplineSet
EndChar

StartChar: uni042B
Encoding: 1067 1067 427
Width: 774
VWidth: 0
Flags: HW
LayerCount: 2
Fore
SplineSet
768 699 m 1
 892 700 l 1
 650 0 l 1
 533 0 l 1
 768 699 l 1
252 699 m 1
 376 700 l 1
 133 0 l 1
 18 0 l 1
 252 699 l 1
196 331 m 1
 232 435 l 1
 355 435 l 2
 481 434 572 348 533 217 c 0
 493 84 364 1 230 0 c 2
 81 0 l 1
 119 104 l 1
 243 104 l 2
 316 107 390 147 418 218 c 0
 443 284 406 329 340 330 c 2
 196 331 l 1
EndSplineSet
EndChar

StartChar: uni042C
Encoding: 1068 1068 428
Width: 543
VWidth: 0
Flags: HW
LayerCount: 2
Fore
SplineSet
252 699 m 1
 376 700 l 1
 133 0 l 1
 18 0 l 1
 252 699 l 1
196 331 m 1
 232 435 l 1
 355 435 l 2
 481 434 572 348 533 217 c 0
 493 84 364 1 230 0 c 2
 81 0 l 1
 119 104 l 1
 243 104 l 2
 316 107 390 147 418 218 c 0
 443 284 406 329 340 330 c 2
 196 331 l 1
EndSplineSet
EndChar

StartChar: uni042D
Encoding: 1069 1069 429
Width: 649
VWidth: 0
Flags: HW
LayerCount: 2
Fore
SplineSet
173 299 m 1
 207 402 l 1
 593 402 l 1
 557 299 l 1
 173 299 l 1
564 350 m 0
 607 462 566 595 430 598 c 0
 340 600 257 553 184 506 c 1
 222 639 l 1
 291 683 367 714 450 713 c 0
 651 712 740 528 684 350 c 0
 624 155 435 -12 226 -13 c 0
 150 -14 86 12 30 63 c 1
 69 195 l 1
 108 134 164 102 238 102 c 0
 380 103 515 222 564 350 c 0
EndSplineSet
EndChar

StartChar: uni042E
Encoding: 1070 1070 430
Width: 1011
VWidth: 0
Flags: HW
LayerCount: 2
Fore
SplineSet
171 321 m 1
 208 430 l 1
 468 430 l 1
 430 321 l 1
 171 321 l 1
252 699 m 1
 376 700 l 1
 133 0 l 1
 18 0 l 1
 252 699 l 1
480 350 m 0
 439 241 465 104 604 102 c 0
 746 100 874 224 921 350 c 0
 962 460 935 596 796 598 c 0
 654 600 527 476 480 350 c 0
354 350 m 0
 414 542 604 714 812 713 c 0
 1013 712 1101 528 1046 350 c 0
 986 157 796 -16 587 -15 c 0
 385 -14 299 172 354 350 c 0
EndSplineSet
EndChar

StartChar: uni042F
Encoding: 1071 1071 431
Width: 559
VWidth: 0
Flags: HW
LayerCount: 2
Fore
SplineSet
420 332 m 1
 95 0 l 1
 -57 0 l 1
 282 332 l 1
 420 332 l 1
677 700 m 1
 436 0 l 1
 317 0 l 1
 558 700 l 1
 677 700 l 1
573 597 m 1
 449 597 l 2
 375 597 300 550 272 479 c 0
 246 414 282 369 349 364 c 1
 495 362 l 1
 460 265 l 1
 331 265 l 0
 206 270 115 353 154 483 c 0
 193 616 323 699 457 700 c 1
 610 700 l 1
 573 597 l 1
EndSplineSet
EndChar

StartChar: uni0430
Encoding: 1072 1072 432
Width: 478
VWidth: 0
Flags: HW
LayerCount: 2
Fore
SplineSet
122 135 m 0
 110 97 138 76 173 74 c 0
 247 70 297 124 332 182 c 1
 331 128 l 1
 292 48 222 -9 129 -9 c 0
 47 -9 -10 50 14 133 c 0
 43 231 150 282 246 282 c 0
 301 282 344 264 381 226 c 1
 364 171 l 1
 331 198 297 214 253 213 c 0
 203 212 137 188 122 135 c 0
172 338 m 1
 151 419 l 1
 211 448 275 472 342 471 c 0
 428 470 516 421 484 327 c 2
 373 0 l 1
 266 0 l 1
 379 315 l 2
 393 354 367 378 323 381 c 0
 271 385 218 359 172 338 c 1
EndSplineSet
Substitution2: "alt a" a.alt
EndChar

StartChar: uni0431
Encoding: 1073 1073 433
Width: 536
VWidth: 0
Flags: HW
LayerCount: 2
Fore
SplineSet
351 375 m 1
 386 469 l 1
 515 469 579 356 545 229 c 0
 510 98 383 -10 245 -10 c 0
 88 -10 74 132 74 185 c 1
 175 182 l 1
 176 150 183 88 254 87 c 0
 335 86 410 159 435 231 c 0
 462 309 427 375 351 375 c 1
131 232 m 1
 174 358 248 469 386 469 c 1
 351 375 l 1
 268 375 175 305 175 182 c 1
 131 232 l 1
74 185 m 1
 74 392 219 592 382 659 c 0
 452 688 511 718 558 779 c 1
 666 778 l 1
 617 676 528 625 426 583 c 0
 317 539 178 405 174 273 c 1
 175 182 l 1
 74 185 l 1
EndSplineSet
EndChar

StartChar: uni0432
Encoding: 1074 1074 434
Width: 453
VWidth: 0
Flags: HW
LayerCount: 2
Fore
SplineSet
154 239 m 1
 286 240 l 2
 358 238 440 213 417 124 c 0
 396 45 318 2 242 1 c 2
 74 0 l 1
 100 79 l 1
 219 80 l 2
 255 80 305 101 318 139 c 0
 329 174 303 191 273 192 c 2
 141 194 l 1
 154 239 l 1
151 221 m 1
 166 271 l 1
 277 272 l 2
 310 272 354 293 365 328 c 0
 375 358 354 378 327 379 c 2
 203 381 l 1
 229 460 l 1
 351 460 l 2
 424 459 495 417 470 334 c 0
 447 256 363 224 289 221 c 2
 151 221 l 1
168 460 m 1
 280 460 l 1
 118 0 l 1
 15 0 l 1
 168 460 l 1
EndSplineSet
EndChar

StartChar: uni0433
Encoding: 1075 1075 435
Width: 320
VWidth: 0
Flags: HW
LayerCount: 2
Fore
SplineSet
165 459 m 1
 425 460 l 1
 391 364 l 1
 244 364 l 1
 117 0 l 1
 13 0 l 1
 165 459 l 1
EndSplineSet
EndChar

StartChar: uni0434
Encoding: 1076 1076 436
Width: 635
VWidth: 0
Flags: HW
LayerCount: 2
Fore
SplineSet
371 301 m 1
 161 31 l 1
 45 46 l 1
 428 500 l 1
 497 41 l 1
 392 28 l 1
 371 301 l 1
442 0 m 1
 92 0 l 1
 59 -90 l 1
 -53 -90 l 1
 12 93 l 1
 575 93 l 1
 510 -90 l 1
 409 -90 l 1
 442 0 l 1
EndSplineSet
EndChar

StartChar: uni0435
Encoding: 1077 1077 437
Width: 507
VWidth: 0
Flags: HW
LayerCount: 2
Fore
SplineSet
119 205 m 1
 141 279 l 1
 410 280 l 1
 423 332 410 383 346 386 c 0
 268 389 210 321 181 257 c 2
 170 230 l 1
 148 167 154 83 237 80 c 0
 294 78 342 117 383 153 c 1
 470 111 l 1
 404 42 320 -10 220 -9 c 0
 86 -7 31 110 63 230 c 0
 68 247 74 263 81 279 c 0
 130 386 238 470 359 469 c 0
 496 468 542 355 513 235 c 0
 510 225 507 215 504 205 c 1
 119 205 l 1
EndSplineSet
EndChar

StartChar: uni0436
Encoding: 1078 1078 438
Width: 714
VWidth: 0
Flags: HW
LayerCount: 2
Fore
SplineSet
667 459 m 1
 810 459 l 1
 537 255 l 1
 656 0 l 1
 543 0 l 1
 423 279 l 1
 667 459 l 1
511 459 m 1
 355 1 l 1
 252 0 l 1
 409 459 l 1
 511 459 l 1
238 460 m 1
 368 261 l 1
 77 0 l 1
 -65 0 l 1
 248 271 l 1
 127 460 l 1
 238 460 l 1
EndSplineSet
EndChar

StartChar: uni0437
Encoding: 1079 1079 439
Width: 470
VWidth: 0
Flags: HW
LayerCount: 2
Fore
SplineSet
263 230 m 1
 278 282 l 1
 311 287 361 298 372 336 c 0
 379 362 360 380 333 381 c 0
 292 382 264 350 244 319 c 1
 139 321 l 1
 175 403 247 469 341 469 c 0
 417 469 498 417 473 332 c 0
 448 244 340 234 263 230 c 1
199 -9 m 0
 98 -9 46 53 50 150 c 1
 149 150 l 1
 152 109 161 77 210 76 c 0
 255 75 309 102 322 143 c 0
 339 193 292 201 255 207 c 1
 272 260 l 1
 344 255 450 231 424 134 c 0
 399 41 287 -9 199 -9 c 0
EndSplineSet
EndChar

StartChar: uni0438
Encoding: 1080 1080 440
Width: 530
VWidth: 0
Flags: HW
LayerCount: 2
Fore
SplineSet
528 353 m 1
 -9 -49 l 1
 51 107 l 1
 588 510 l 1
 528 353 l 1
276 460 m 1
 145 80 l 1
 -9 -49 l 1
 168 460 l 1
 276 460 l 1
588 510 m 1
 411 0 l 1
 303 0 l 1
 434 380 l 1
 588 510 l 1
EndSplineSet
EndChar

StartChar: uni0439
Encoding: 1081 1081 441
Width: 530
VWidth: 0
Flags: HW
LayerCount: 2
Fore
SplineSet
528 353 m 1
 -9 -49 l 1
 51 107 l 1
 588 510 l 1
 528 353 l 1
276 460 m 1
 145 80 l 1
 -9 -49 l 1
 168 460 l 1
 276 460 l 1
588 510 m 1
 411 0 l 1
 303 0 l 1
 434 380 l 1
 588 510 l 1
281 684 m 1
 358 684 l 1
 357 649 365 618 407 616 c 0
 452 614 482 649 504 683 c 1
 586 682 l 1
 552 604 488 542 397 542 c 0
 309 542 272 603 281 684 c 1
EndSplineSet
EndChar

StartChar: uni043A
Encoding: 1082 1082 442
Width: 470
VWidth: 0
Flags: HW
LayerCount: 2
Fore
SplineSet
158 459 m 1
 270 460 l 1
 109 0 l 1
 6 0 l 1
 158 459 l 1
413 459 m 1
 560 459 l 1
 295 262 l 1
 406 0 l 1
 291 0 l 1
 172 279 l 1
 413 459 l 1
EndSplineSet
EndChar

StartChar: uni043B
Encoding: 1083 1083 443
Width: 549
VWidth: 0
Flags: HW
LayerCount: 2
Fore
SplineSet
582 460 m 1
 423 0 l 1
 315 0 l 1
 440 359 l 1
 251 359 l 1
 184 159 l 1
 145 51 65 12 -44 1 c 1
 -16 97 l 1
 30 108 59 131 79 176 c 1
 178 460 l 1
 582 460 l 1
EndSplineSet
EndChar

StartChar: uni043C
Encoding: 1084 1084 444
Width: 590
VWidth: 0
Flags: HW
LayerCount: 2
Fore
SplineSet
421 0 m 1
 474 355 l 1
 584 507 l 1
 531 0 l 1
 421 0 l 1
244 105 m 1
 584 507 l 1
 529 307 l 1
 231 -35 l 1
 244 105 l 1
231 -35 m 1
 169 328 l 1
 240 501 l 1
 301 83 l 1
 231 -35 l 1
-57 0 m 1
 240 501 l 1
 242 332 l 1
 63 0 l 1
 -57 0 l 1
EndSplineSet
EndChar

StartChar: uni043D
Encoding: 1085 1085 445
Width: 550
VWidth: 0
Flags: HW
LayerCount: 2
Fore
SplineSet
121 198 m 1
 151 288 l 1
 489 288 l 1
 459 198 l 1
 121 198 l 1
483 459 m 1
 595 460 l 1
 434 0 l 1
 331 0 l 1
 483 459 l 1
162 459 m 1
 274 460 l 1
 113 0 l 1
 9 0 l 1
 162 459 l 1
EndSplineSet
EndChar

StartChar: uni043E
Encoding: 1086 1086 446
Width: 529
VWidth: 0
Flags: HW
LayerCount: 2
Fore
SplineSet
52 230 m 0
 91 361 221 470 360 470 c 0
 494 470 564 353 527 230 c 0
 488 100 358 -9 219 -9 c 0
 85 -9 15 107 52 230 c 0
163 229 m 0
 140 168 151 89 230 87 c 0
 311 85 388 159 416 231 c 0
 439 292 428 372 349 374 c 0
 268 376 191 301 163 229 c 0
EndSplineSet
EndChar

StartChar: uni043F
Encoding: 1087 1087 447
Width: 512
VWidth: 0
Flags: HW
LayerCount: 2
Fore
SplineSet
556 460 m 1
 397 0 l 1
 289 0 l 1
 415 362 l 1
 239 362 l 1
 113 0 l 1
 5 0 l 1
 164 460 l 1
 556 460 l 1
EndSplineSet
EndChar

StartChar: uni0440
Encoding: 1088 1088 448
Width: 554
VWidth: 0
Flags: HW
LayerCount: 2
Fore
SplineSet
40 -219 m 1
 -73 -220 l 1
 162 460 l 1
 268 459 l 1
 40 -219 l 1
550 230 m 0
 513 109 399 -14 264 -13 c 0
 130 -12 121 129 152 230 c 0
 186 344 277 471 408 472 c 0
 543 474 584 341 550 230 c 0
439 231 m 0
 462 293 449 371 370 372 c 0
 292 373 217 298 191 229 c 0
 169 171 178 92 253 88 c 0
 334 83 412 160 439 231 c 0
EndSplineSet
EndChar

StartChar: uni0441
Encoding: 1089 1089 449
Width: 452
VWidth: 0
Flags: HW
LayerCount: 2
Fore
SplineSet
159 229 m 0
 133 163 153 89 233 86 c 0
 298 83 358 121 407 160 c 1
 374 41 l 1
 326 10 274 -10 216 -10 c 0
 82 -9 12 106 49 230 c 0
 88 362 219 468 358 469 c 0
 412 469 457 452 497 418 c 1
 463 299 l 1
 444 349 408 376 353 375 c 0
 269 374 188 305 159 229 c 0
EndSplineSet
EndChar

StartChar: uni0442
Encoding: 1090 1090 450
Width: 283
VWidth: 0
Flags: HW
LayerCount: 2
Fore
SplineSet
104 460 m 1
 386 460 l 1
 352 364 l 1
 70 364 l 1
 104 460 l 1
183 439 m 1
 293 440 l 1
 139 0 l 1
 37 0 l 1
 183 439 l 1
EndSplineSet
EndChar

StartChar: uni0443
Encoding: 1091 1091 451
Width: 444
VWidth: 0
Flags: HW
LayerCount: 2
Fore
SplineSet
559 459 m 1
 43 -219 l 1
 -79 -219 l 1
 137 62 l 1
 101 460 l 1
 216 460 l 1
 231 96 l 1
 179 101 l 1
 436 459 l 1
 559 459 l 1
EndSplineSet
EndChar

StartChar: uni0444
Encoding: 1092 1092 452
Width: 582
VWidth: 0
Flags: HW
LayerCount: 2
Fore
SplineSet
374 559 m 1
 483 560 l 1
 254 -99 l 1
 153 -99 l 1
 374 559 l 1
53 230 m 0
 95 373 240 471 386 470 c 0
 524 469 619 368 578 230 c 0
 536 87 391 -11 245 -10 c 0
 107 -9 12 92 53 230 c 0
156 230 m 0
 124 149 172 88 256 87 c 0
 348 85 443 144 476 230 c 0
 508 311 460 373 376 374 c 0
 284 376 189 316 156 230 c 0
EndSplineSet
EndChar

StartChar: uni0445
Encoding: 1093 1093 453
Width: 437
VWidth: 0
Flags: HW
LayerCount: 2
Fore
SplineSet
412 459 m 1
 542 459 l 1
 302 229 l 1
 386 0 l 1
 278 0 l 1
 227 156 l 1
 74 0 l 1
 -58 0 l 1
 194 247 l 1
 117 460 l 1
 227 460 l 1
 271 320 l 1
 412 459 l 1
EndSplineSet
EndChar

StartChar: uni0446
Encoding: 1094 1094 454
Width: 552
VWidth: 0
Flags: HW
LayerCount: 2
Fore
SplineSet
430 95 m 1
 510 95 l 1
 443 -94 l 1
 344 -94 l 1
 377 0 l 1
 6 0 l 1
 165 460 l 1
 275 460 l 1
 149 96 l 1
 322 96 l 1
 450 459 l 1
 555 459 l 1
 430 95 l 1
EndSplineSet
EndChar

StartChar: uni0447
Encoding: 1095 1095 455
Width: 479
VWidth: 0
Flags: HW
LayerCount: 2
Fore
SplineSet
211 131 m 1
 253 224 l 1
 392 225 l 1
 359 131 l 1
 211 131 l 1
408 459 m 1
 521 460 l 1
 361 0 l 1
 255 0 l 1
 408 459 l 1
257 459 m 1
 207 323 l 2
 186 265 197 224 253 224 c 1
 211 131 l 1
 89 131 66 218 102 328 c 2
 147 460 l 1
 257 459 l 1
EndSplineSet
EndChar

StartChar: uni0448
Encoding: 1096 1096 456
Width: 755
VWidth: 0
Flags: HW
LayerCount: 2
Fore
SplineSet
406 95 m 1
 565 96 l 1
 691 460 l 1
 799 460 l 1
 640 0 l 1
 6 0 l 1
 165 460 l 1
 273 460 l 1
 146 96 l 1
 302 96 l 1
 429 459 l 1
 532 459 l 1
 406 95 l 1
EndSplineSet
EndChar

StartChar: uni0449
Encoding: 1097 1097 457
Width: 792
VWidth: 0
Flags: HW
LayerCount: 2
Fore
SplineSet
406 95 m 1
 564 96 l 1
 691 460 l 1
 799 460 l 1
 673 96 l 1
 748 96 l 1
 683 -94 l 1
 584 -94 l 1
 617 0 l 1
 6 0 l 1
 165 460 l 1
 273 460 l 1
 146 96 l 1
 302 96 l 1
 429 459 l 1
 532 459 l 1
 406 95 l 1
EndSplineSet
EndChar

StartChar: uni044A
Encoding: 1098 1098 458
Width: 555
VWidth: 0
Flags: HW
LayerCount: 2
Fore
SplineSet
236 213 m 1
 261 293 l 1
 389 294 l 2
 473 295 537 240 511 150 c 0
 485 59 399 0 309 0 c 2
 163 0 l 1
 192 88 l 1
 310 89 l 2
 350 89 393 112 408 152 c 0
 422 187 400 210 367 211 c 2
 236 213 l 1
221 365 m 1
 70 364 l 1
 104 460 l 1
 355 460 l 1
 196 0 l 1
 95 0 l 1
 221 365 l 1
EndSplineSet
EndChar

StartChar: uni044B
Encoding: 1099 1099 459
Width: 651
VWidth: 0
Flags: HW
LayerCount: 2
Fore
SplineSet
583 459 m 1
 696 460 l 1
 535 0 l 1
 430 0 l 1
 583 459 l 1
162 459 m 1
 276 460 l 1
 115 0 l 1
 9 0 l 1
 162 459 l 1
155 213 m 1
 180 293 l 1
 307 294 l 2
 391 295 455 240 429 150 c 0
 403 59 317 0 227 0 c 2
 80 0 l 1
 110 88 l 1
 228 89 l 2
 268 89 311 112 326 152 c 0
 340 187 318 210 285 211 c 2
 155 213 l 1
EndSplineSet
EndChar

